G04 EAGLE Gerber RS-274X export*
G75*
%MOMM*%
%FSLAX34Y34*%
%LPD*%
%INBottom Copper*%
%IPPOS*%
%AMOC8*
5,1,8,0,0,1.08239X$1,22.5*%
G01*
%ADD10R,4.000000X2.000000*%
%ADD11R,1.200000X0.800000*%
%ADD12R,0.635000X0.250000*%
%ADD13P,0.871107X8X22.500000*%
%ADD14C,0.250000*%
%ADD15P,0.979346X8X22.500000*%
%ADD16C,3.800000*%
%ADD17C,0.200000*%
%ADD18R,0.904800X0.904800*%

G36*
X306808Y-353248D02*
X306808Y-353248D01*
X306817Y-353249D01*
X306905Y-353228D01*
X306995Y-353210D01*
X307002Y-353205D01*
X307010Y-353203D01*
X307083Y-353149D01*
X307159Y-353097D01*
X307163Y-353090D01*
X307170Y-353085D01*
X307217Y-353007D01*
X307266Y-352930D01*
X307267Y-352921D01*
X307272Y-352914D01*
X307299Y-352750D01*
X307299Y-310499D01*
X343867Y-310499D01*
X343871Y-310498D01*
X343875Y-310499D01*
X343968Y-310479D01*
X344061Y-310460D01*
X344065Y-310457D01*
X344069Y-310456D01*
X344147Y-310401D01*
X344225Y-310347D01*
X344228Y-310344D01*
X344231Y-310341D01*
X344281Y-310260D01*
X344332Y-310180D01*
X344333Y-310175D01*
X344335Y-310172D01*
X344350Y-310078D01*
X344366Y-309983D01*
X344365Y-309979D01*
X344365Y-309975D01*
X344342Y-309883D01*
X344320Y-309790D01*
X344317Y-309787D01*
X344316Y-309783D01*
X344220Y-309647D01*
X342275Y-307703D01*
X342275Y-303986D01*
X342273Y-303974D01*
X342275Y-303962D01*
X342253Y-303877D01*
X342236Y-303792D01*
X342229Y-303781D01*
X342225Y-303769D01*
X342129Y-303633D01*
X335049Y-296554D01*
X335049Y-284250D01*
X335048Y-284242D01*
X335049Y-284233D01*
X335028Y-284145D01*
X335010Y-284055D01*
X335005Y-284048D01*
X335003Y-284040D01*
X334949Y-283967D01*
X334897Y-283891D01*
X334890Y-283887D01*
X334885Y-283880D01*
X334807Y-283833D01*
X334730Y-283784D01*
X334721Y-283783D01*
X334714Y-283778D01*
X334550Y-283751D01*
X326300Y-283751D01*
X326292Y-283752D01*
X326283Y-283751D01*
X326195Y-283772D01*
X326105Y-283790D01*
X326098Y-283795D01*
X326090Y-283797D01*
X326017Y-283851D01*
X325941Y-283903D01*
X325937Y-283910D01*
X325930Y-283915D01*
X325883Y-283993D01*
X325834Y-284070D01*
X325833Y-284079D01*
X325828Y-284086D01*
X325802Y-284242D01*
X324043Y-286001D01*
X309557Y-286001D01*
X307798Y-284241D01*
X307799Y-284233D01*
X307778Y-284145D01*
X307760Y-284055D01*
X307755Y-284048D01*
X307753Y-284040D01*
X307699Y-283967D01*
X307647Y-283891D01*
X307640Y-283887D01*
X307635Y-283880D01*
X307557Y-283833D01*
X307480Y-283784D01*
X307471Y-283783D01*
X307464Y-283778D01*
X307300Y-283751D01*
X279483Y-283751D01*
X279471Y-283753D01*
X279459Y-283751D01*
X279374Y-283773D01*
X279289Y-283790D01*
X279278Y-283797D01*
X279266Y-283801D01*
X279130Y-283897D01*
X276503Y-286525D01*
X271097Y-286525D01*
X267275Y-282703D01*
X267275Y-277297D01*
X271097Y-273475D01*
X276503Y-273475D01*
X279130Y-276103D01*
X279141Y-276110D01*
X279148Y-276120D01*
X279223Y-276165D01*
X279296Y-276213D01*
X279309Y-276215D01*
X279319Y-276222D01*
X279483Y-276249D01*
X307300Y-276249D01*
X307308Y-276248D01*
X307317Y-276249D01*
X307405Y-276228D01*
X307495Y-276210D01*
X307502Y-276205D01*
X307510Y-276203D01*
X307583Y-276149D01*
X307659Y-276097D01*
X307663Y-276090D01*
X307670Y-276085D01*
X307717Y-276007D01*
X307766Y-275930D01*
X307767Y-275921D01*
X307772Y-275914D01*
X307799Y-275750D01*
X307799Y-245743D01*
X307798Y-245738D01*
X307799Y-245734D01*
X307779Y-245641D01*
X307760Y-245548D01*
X307757Y-245544D01*
X307756Y-245540D01*
X307701Y-245463D01*
X307647Y-245384D01*
X307644Y-245382D01*
X307641Y-245378D01*
X307560Y-245328D01*
X307480Y-245277D01*
X307475Y-245276D01*
X307472Y-245274D01*
X307378Y-245260D01*
X307283Y-245244D01*
X307279Y-245245D01*
X307275Y-245244D01*
X307182Y-245268D01*
X307090Y-245290D01*
X307087Y-245292D01*
X307083Y-245293D01*
X306947Y-245390D01*
X306836Y-245501D01*
X264764Y-245501D01*
X263299Y-244036D01*
X263299Y-221964D01*
X264764Y-220499D01*
X306836Y-220499D01*
X306947Y-220610D01*
X306950Y-220612D01*
X306951Y-220613D01*
X306953Y-220616D01*
X307033Y-220668D01*
X307113Y-220720D01*
X307117Y-220721D01*
X307120Y-220723D01*
X307214Y-220739D01*
X307308Y-220757D01*
X307312Y-220756D01*
X307317Y-220756D01*
X307409Y-220734D01*
X307502Y-220714D01*
X307506Y-220711D01*
X307510Y-220710D01*
X307586Y-220654D01*
X307665Y-220599D01*
X307667Y-220595D01*
X307670Y-220592D01*
X307718Y-220512D01*
X307769Y-220429D01*
X307769Y-220425D01*
X307772Y-220421D01*
X307799Y-220257D01*
X307799Y-215757D01*
X309153Y-214403D01*
X309557Y-213999D01*
X484043Y-213999D01*
X485801Y-215757D01*
X485801Y-250243D01*
X481043Y-255001D01*
X469300Y-255001D01*
X469292Y-255002D01*
X469283Y-255001D01*
X469195Y-255022D01*
X469105Y-255040D01*
X469098Y-255045D01*
X469090Y-255047D01*
X469017Y-255101D01*
X468941Y-255153D01*
X468937Y-255160D01*
X468930Y-255165D01*
X468883Y-255243D01*
X468834Y-255320D01*
X468833Y-255329D01*
X468828Y-255336D01*
X468801Y-255500D01*
X468801Y-264743D01*
X467043Y-266501D01*
X355300Y-266501D01*
X355292Y-266502D01*
X355283Y-266501D01*
X355195Y-266522D01*
X355105Y-266540D01*
X355098Y-266545D01*
X355090Y-266547D01*
X355017Y-266601D01*
X354941Y-266653D01*
X354937Y-266660D01*
X354930Y-266665D01*
X354883Y-266743D01*
X354834Y-266820D01*
X354833Y-266829D01*
X354828Y-266836D01*
X354801Y-267000D01*
X354801Y-268243D01*
X353043Y-270001D01*
X326300Y-270001D01*
X326292Y-270002D01*
X326283Y-270001D01*
X326195Y-270022D01*
X326105Y-270040D01*
X326098Y-270045D01*
X326090Y-270047D01*
X326017Y-270101D01*
X325941Y-270153D01*
X325937Y-270160D01*
X325930Y-270165D01*
X325883Y-270243D01*
X325834Y-270320D01*
X325833Y-270329D01*
X325828Y-270336D01*
X325801Y-270500D01*
X325801Y-275750D01*
X325802Y-275758D01*
X325801Y-275767D01*
X325822Y-275855D01*
X325840Y-275945D01*
X325845Y-275952D01*
X325847Y-275960D01*
X325901Y-276033D01*
X325953Y-276109D01*
X325960Y-276113D01*
X325965Y-276120D01*
X326043Y-276167D01*
X326120Y-276216D01*
X326129Y-276217D01*
X326136Y-276222D01*
X326300Y-276249D01*
X340354Y-276249D01*
X342551Y-278446D01*
X342551Y-293240D01*
X342553Y-293252D01*
X342551Y-293264D01*
X342573Y-293349D01*
X342590Y-293434D01*
X342597Y-293445D01*
X342601Y-293457D01*
X342697Y-293593D01*
X347433Y-298329D01*
X347444Y-298336D01*
X347451Y-298346D01*
X347526Y-298391D01*
X347599Y-298439D01*
X347612Y-298441D01*
X347622Y-298448D01*
X347786Y-298475D01*
X351503Y-298475D01*
X355325Y-302297D01*
X355325Y-307703D01*
X353380Y-309647D01*
X353378Y-309651D01*
X353375Y-309653D01*
X353323Y-309733D01*
X353271Y-309813D01*
X353270Y-309817D01*
X353268Y-309820D01*
X353252Y-309914D01*
X353234Y-310008D01*
X353235Y-310012D01*
X353234Y-310017D01*
X353256Y-310108D01*
X353277Y-310202D01*
X353279Y-310206D01*
X353280Y-310210D01*
X353336Y-310286D01*
X353392Y-310365D01*
X353396Y-310367D01*
X353398Y-310370D01*
X353480Y-310419D01*
X353562Y-310469D01*
X353566Y-310469D01*
X353569Y-310472D01*
X353733Y-310499D01*
X421800Y-310499D01*
X421808Y-310498D01*
X421817Y-310499D01*
X421905Y-310478D01*
X421995Y-310460D01*
X422002Y-310455D01*
X422010Y-310453D01*
X422083Y-310399D01*
X422159Y-310347D01*
X422163Y-310340D01*
X422170Y-310335D01*
X422217Y-310257D01*
X422266Y-310180D01*
X422267Y-310171D01*
X422272Y-310164D01*
X422299Y-310000D01*
X422299Y-308999D01*
X598990Y-308999D01*
X598994Y-308998D01*
X598998Y-308999D01*
X599091Y-308979D01*
X599185Y-308960D01*
X599188Y-308957D01*
X599192Y-308956D01*
X599270Y-308901D01*
X599348Y-308847D01*
X599351Y-308844D01*
X599354Y-308841D01*
X599404Y-308760D01*
X599455Y-308680D01*
X599456Y-308675D01*
X599458Y-308672D01*
X599473Y-308578D01*
X599489Y-308483D01*
X599488Y-308479D01*
X599488Y-308475D01*
X599465Y-308383D01*
X599443Y-308290D01*
X599440Y-308287D01*
X599439Y-308283D01*
X599343Y-308147D01*
X580843Y-289647D01*
X580832Y-289640D01*
X580825Y-289630D01*
X580750Y-289585D01*
X580677Y-289537D01*
X580664Y-289535D01*
X580654Y-289528D01*
X580490Y-289501D01*
X540978Y-289501D01*
X540966Y-289503D01*
X540953Y-289501D01*
X540869Y-289523D01*
X540783Y-289540D01*
X540773Y-289547D01*
X540761Y-289551D01*
X540625Y-289647D01*
X537997Y-292275D01*
X532592Y-292275D01*
X528770Y-288453D01*
X528770Y-284736D01*
X528768Y-284724D01*
X528769Y-284712D01*
X528748Y-284627D01*
X528730Y-284542D01*
X528723Y-284531D01*
X528720Y-284519D01*
X528624Y-284383D01*
X525137Y-280897D01*
X525127Y-280890D01*
X525119Y-280880D01*
X525045Y-280835D01*
X524972Y-280787D01*
X524959Y-280785D01*
X524948Y-280778D01*
X524784Y-280751D01*
X489683Y-280751D01*
X489671Y-280753D01*
X489659Y-280751D01*
X489574Y-280773D01*
X489489Y-280790D01*
X489478Y-280797D01*
X489466Y-280801D01*
X489330Y-280897D01*
X486703Y-283525D01*
X481297Y-283525D01*
X477475Y-279703D01*
X477475Y-274297D01*
X481297Y-270475D01*
X486703Y-270475D01*
X489330Y-273103D01*
X489341Y-273110D01*
X489348Y-273120D01*
X489423Y-273165D01*
X489496Y-273213D01*
X489509Y-273215D01*
X489519Y-273222D01*
X489683Y-273249D01*
X528098Y-273249D01*
X530442Y-275593D01*
X531202Y-276353D01*
X533928Y-279079D01*
X533939Y-279086D01*
X533946Y-279096D01*
X534021Y-279141D01*
X534094Y-279189D01*
X534106Y-279191D01*
X534117Y-279198D01*
X534281Y-279225D01*
X537997Y-279225D01*
X540625Y-281853D01*
X540636Y-281860D01*
X540643Y-281870D01*
X540718Y-281915D01*
X540791Y-281963D01*
X540803Y-281965D01*
X540814Y-281972D01*
X540978Y-281999D01*
X583804Y-281999D01*
X604907Y-303103D01*
X604918Y-303110D01*
X604925Y-303120D01*
X605000Y-303165D01*
X605073Y-303213D01*
X605086Y-303215D01*
X605096Y-303222D01*
X605260Y-303249D01*
X614817Y-303249D01*
X614821Y-303248D01*
X614825Y-303249D01*
X614918Y-303229D01*
X615012Y-303210D01*
X615015Y-303207D01*
X615019Y-303206D01*
X615097Y-303151D01*
X615175Y-303097D01*
X615178Y-303094D01*
X615181Y-303091D01*
X615231Y-303010D01*
X615282Y-302930D01*
X615283Y-302925D01*
X615285Y-302922D01*
X615300Y-302828D01*
X615316Y-302733D01*
X615315Y-302729D01*
X615315Y-302725D01*
X615292Y-302633D01*
X615270Y-302540D01*
X615267Y-302537D01*
X615266Y-302533D01*
X615170Y-302397D01*
X611475Y-298703D01*
X611475Y-294986D01*
X611473Y-294974D01*
X611475Y-294962D01*
X611453Y-294877D01*
X611436Y-294792D01*
X611429Y-294781D01*
X611425Y-294769D01*
X611329Y-294633D01*
X576249Y-259554D01*
X576249Y-231683D01*
X576247Y-231671D01*
X576249Y-231659D01*
X576227Y-231574D01*
X576210Y-231489D01*
X576203Y-231478D01*
X576199Y-231466D01*
X576103Y-231330D01*
X573475Y-228703D01*
X573475Y-223297D01*
X577297Y-219475D01*
X582703Y-219475D01*
X586525Y-223297D01*
X586525Y-225976D01*
X586526Y-225984D01*
X586525Y-225993D01*
X586546Y-226081D01*
X586564Y-226171D01*
X586569Y-226178D01*
X586571Y-226186D01*
X586625Y-226259D01*
X586677Y-226335D01*
X586684Y-226339D01*
X586689Y-226346D01*
X586767Y-226393D01*
X586844Y-226442D01*
X586853Y-226443D01*
X586860Y-226448D01*
X587024Y-226475D01*
X590703Y-226475D01*
X594525Y-230297D01*
X594525Y-235865D01*
X594527Y-235877D01*
X594525Y-235889D01*
X594547Y-235974D01*
X594564Y-236059D01*
X594571Y-236070D01*
X594575Y-236082D01*
X594671Y-236218D01*
X598323Y-239869D01*
X598323Y-243586D01*
X598325Y-243598D01*
X598323Y-243610D01*
X598345Y-243695D01*
X598362Y-243780D01*
X598369Y-243791D01*
X598373Y-243803D01*
X598469Y-243939D01*
X625581Y-271051D01*
X625592Y-271058D01*
X625599Y-271068D01*
X625674Y-271113D01*
X625747Y-271161D01*
X625760Y-271163D01*
X625770Y-271170D01*
X625934Y-271197D01*
X788601Y-271197D01*
X788613Y-271195D01*
X788626Y-271197D01*
X788710Y-271175D01*
X788796Y-271158D01*
X788806Y-271151D01*
X788818Y-271147D01*
X788954Y-271051D01*
X816808Y-243197D01*
X869765Y-243197D01*
X869769Y-243196D01*
X869773Y-243197D01*
X869866Y-243177D01*
X869960Y-243158D01*
X869963Y-243155D01*
X869967Y-243154D01*
X870045Y-243099D01*
X870123Y-243045D01*
X870126Y-243042D01*
X870129Y-243039D01*
X870179Y-242958D01*
X870230Y-242878D01*
X870231Y-242873D01*
X870233Y-242870D01*
X870248Y-242776D01*
X870264Y-242681D01*
X870263Y-242677D01*
X870263Y-242673D01*
X870240Y-242581D01*
X870218Y-242488D01*
X870215Y-242485D01*
X870214Y-242481D01*
X870118Y-242345D01*
X868475Y-240703D01*
X868475Y-236000D01*
X868474Y-235992D01*
X868475Y-235983D01*
X868454Y-235895D01*
X868436Y-235805D01*
X868431Y-235798D01*
X868429Y-235790D01*
X868375Y-235717D01*
X868323Y-235641D01*
X868316Y-235637D01*
X868311Y-235630D01*
X868233Y-235583D01*
X868156Y-235534D01*
X868147Y-235533D01*
X868140Y-235528D01*
X867976Y-235501D01*
X865584Y-235501D01*
X865353Y-235270D01*
X865346Y-235265D01*
X865341Y-235258D01*
X865263Y-235210D01*
X865187Y-235160D01*
X865179Y-235158D01*
X865172Y-235154D01*
X865082Y-235140D01*
X864992Y-235123D01*
X864984Y-235125D01*
X864975Y-235124D01*
X864887Y-235146D01*
X864798Y-235166D01*
X864791Y-235171D01*
X864783Y-235173D01*
X864647Y-235270D01*
X864416Y-235501D01*
X850344Y-235501D01*
X848879Y-234036D01*
X848879Y-233250D01*
X848878Y-233242D01*
X848879Y-233233D01*
X848858Y-233145D01*
X848840Y-233055D01*
X848835Y-233048D01*
X848833Y-233040D01*
X848779Y-232967D01*
X848727Y-232891D01*
X848720Y-232887D01*
X848715Y-232880D01*
X848637Y-232833D01*
X848560Y-232784D01*
X848551Y-232783D01*
X848544Y-232778D01*
X848380Y-232751D01*
X844700Y-232751D01*
X836367Y-224417D01*
X836356Y-224410D01*
X836349Y-224400D01*
X836274Y-224355D01*
X836201Y-224307D01*
X836188Y-224305D01*
X836178Y-224298D01*
X836014Y-224271D01*
X832297Y-224271D01*
X828475Y-220449D01*
X828475Y-215043D01*
X829166Y-214353D01*
X829168Y-214349D01*
X829171Y-214347D01*
X829222Y-214268D01*
X829275Y-214187D01*
X829276Y-214183D01*
X829278Y-214180D01*
X829294Y-214086D01*
X829312Y-213992D01*
X829311Y-213988D01*
X829312Y-213983D01*
X829290Y-213892D01*
X829269Y-213798D01*
X829267Y-213794D01*
X829266Y-213790D01*
X829210Y-213714D01*
X829154Y-213635D01*
X829150Y-213633D01*
X829148Y-213630D01*
X829066Y-213581D01*
X828984Y-213531D01*
X828980Y-213531D01*
X828977Y-213528D01*
X828813Y-213501D01*
X775024Y-213501D01*
X775016Y-213502D01*
X775007Y-213501D01*
X774919Y-213522D01*
X774829Y-213540D01*
X774822Y-213545D01*
X774814Y-213547D01*
X774741Y-213601D01*
X774665Y-213653D01*
X774661Y-213660D01*
X774654Y-213665D01*
X774607Y-213743D01*
X774558Y-213820D01*
X774557Y-213829D01*
X774552Y-213836D01*
X774525Y-214000D01*
X774525Y-215703D01*
X770703Y-219525D01*
X765297Y-219525D01*
X761475Y-215703D01*
X761475Y-210297D01*
X761698Y-210075D01*
X761700Y-210072D01*
X761703Y-210069D01*
X761755Y-209989D01*
X761807Y-209909D01*
X761808Y-209905D01*
X761810Y-209902D01*
X761826Y-209808D01*
X761844Y-209714D01*
X761843Y-209710D01*
X761844Y-209705D01*
X761822Y-209614D01*
X761801Y-209520D01*
X761799Y-209516D01*
X761798Y-209512D01*
X761742Y-209436D01*
X761686Y-209357D01*
X761682Y-209355D01*
X761680Y-209352D01*
X761598Y-209304D01*
X761516Y-209253D01*
X761512Y-209253D01*
X761509Y-209250D01*
X761345Y-209223D01*
X574261Y-209223D01*
X574249Y-209225D01*
X574237Y-209223D01*
X574152Y-209245D01*
X574067Y-209262D01*
X574056Y-209269D01*
X574044Y-209273D01*
X573908Y-209369D01*
X573475Y-209803D01*
X73708Y-209803D01*
X73696Y-209805D01*
X73684Y-209803D01*
X73599Y-209825D01*
X73514Y-209842D01*
X73503Y-209849D01*
X73491Y-209853D01*
X73355Y-209949D01*
X-19881Y-303185D01*
X-19886Y-303193D01*
X-19893Y-303197D01*
X-19940Y-303275D01*
X-19991Y-303351D01*
X-19992Y-303360D01*
X-19997Y-303367D01*
X-20011Y-303457D01*
X-20027Y-303547D01*
X-20025Y-303555D01*
X-20027Y-303563D01*
X-20004Y-303652D01*
X-19984Y-303741D01*
X-19980Y-303748D01*
X-19978Y-303756D01*
X-19881Y-303892D01*
X-17475Y-306297D01*
X-17475Y-311703D01*
X-21297Y-315525D01*
X-26703Y-315525D01*
X-30525Y-311703D01*
X-30525Y-306297D01*
X-27897Y-303670D01*
X-27890Y-303659D01*
X-27880Y-303652D01*
X-27835Y-303577D01*
X-27787Y-303504D01*
X-27785Y-303491D01*
X-27778Y-303481D01*
X-27751Y-303317D01*
X-27751Y-300446D01*
X70394Y-202301D01*
X570161Y-202301D01*
X570173Y-202299D01*
X570185Y-202301D01*
X570270Y-202279D01*
X570356Y-202262D01*
X570366Y-202255D01*
X570378Y-202251D01*
X570514Y-202155D01*
X570947Y-201721D01*
X939026Y-201721D01*
X941633Y-204329D01*
X941644Y-204336D01*
X941651Y-204346D01*
X941726Y-204391D01*
X941799Y-204439D01*
X941812Y-204441D01*
X941822Y-204448D01*
X941986Y-204475D01*
X943966Y-204475D01*
X943970Y-204474D01*
X943974Y-204475D01*
X944067Y-204455D01*
X944161Y-204436D01*
X944164Y-204433D01*
X944168Y-204432D01*
X944246Y-204377D01*
X944324Y-204323D01*
X944327Y-204320D01*
X944330Y-204317D01*
X944380Y-204236D01*
X944431Y-204156D01*
X944432Y-204151D01*
X944434Y-204148D01*
X944449Y-204054D01*
X944465Y-203959D01*
X944464Y-203955D01*
X944464Y-203951D01*
X944441Y-203859D01*
X944419Y-203766D01*
X944416Y-203763D01*
X944415Y-203759D01*
X944319Y-203623D01*
X882541Y-141845D01*
X882530Y-141838D01*
X882523Y-141828D01*
X882448Y-141783D01*
X882375Y-141735D01*
X882362Y-141733D01*
X882352Y-141726D01*
X882188Y-141699D01*
X31812Y-141699D01*
X31800Y-141701D01*
X31788Y-141699D01*
X31703Y-141721D01*
X31618Y-141738D01*
X31607Y-141745D01*
X31595Y-141749D01*
X31459Y-141845D01*
X-20946Y-194251D01*
X-102240Y-194251D01*
X-102252Y-194253D01*
X-102264Y-194251D01*
X-102349Y-194273D01*
X-102434Y-194290D01*
X-102445Y-194297D01*
X-102457Y-194301D01*
X-102593Y-194397D01*
X-133329Y-225133D01*
X-133336Y-225144D01*
X-133346Y-225151D01*
X-133391Y-225226D01*
X-133439Y-225299D01*
X-133441Y-225312D01*
X-133448Y-225322D01*
X-133475Y-225486D01*
X-133475Y-229203D01*
X-137297Y-233025D01*
X-142703Y-233025D01*
X-146525Y-229203D01*
X-146525Y-223797D01*
X-142703Y-219975D01*
X-138986Y-219975D01*
X-138974Y-219973D01*
X-138962Y-219975D01*
X-138877Y-219953D01*
X-138792Y-219936D01*
X-138781Y-219929D01*
X-138769Y-219925D01*
X-138633Y-219829D01*
X-105554Y-186749D01*
X-24260Y-186749D01*
X-24248Y-186747D01*
X-24236Y-186749D01*
X-24151Y-186727D01*
X-24066Y-186710D01*
X-24055Y-186703D01*
X-24043Y-186699D01*
X-23907Y-186603D01*
X28498Y-134197D01*
X885502Y-134197D01*
X971633Y-220329D01*
X971644Y-220336D01*
X971651Y-220346D01*
X971726Y-220391D01*
X971799Y-220439D01*
X971812Y-220441D01*
X971822Y-220448D01*
X971986Y-220475D01*
X975703Y-220475D01*
X979525Y-224297D01*
X979525Y-228043D01*
X979526Y-228047D01*
X979525Y-228051D01*
X979545Y-228144D01*
X979564Y-228238D01*
X979567Y-228241D01*
X979568Y-228245D01*
X979623Y-228323D01*
X979677Y-228401D01*
X979680Y-228404D01*
X979683Y-228407D01*
X979764Y-228457D01*
X979844Y-228508D01*
X979849Y-228509D01*
X979852Y-228511D01*
X979946Y-228526D01*
X980041Y-228542D01*
X980045Y-228541D01*
X980049Y-228541D01*
X980141Y-228518D01*
X980234Y-228496D01*
X980237Y-228493D01*
X980241Y-228492D01*
X980377Y-228396D01*
X982297Y-226475D01*
X987703Y-226475D01*
X991525Y-230297D01*
X991525Y-235703D01*
X987703Y-239525D01*
X982297Y-239525D01*
X979420Y-236647D01*
X979409Y-236640D01*
X979402Y-236630D01*
X979327Y-236585D01*
X979254Y-236537D01*
X979241Y-236535D01*
X979231Y-236528D01*
X979067Y-236501D01*
X978950Y-236501D01*
X978937Y-236503D01*
X978925Y-236501D01*
X978840Y-236523D01*
X978755Y-236540D01*
X978744Y-236547D01*
X978732Y-236551D01*
X978597Y-236647D01*
X977465Y-237779D01*
X967469Y-237779D01*
X965731Y-236041D01*
X965727Y-236038D01*
X965725Y-236035D01*
X965645Y-235984D01*
X965565Y-235931D01*
X965561Y-235930D01*
X965557Y-235928D01*
X965464Y-235912D01*
X965369Y-235894D01*
X965365Y-235895D01*
X965361Y-235895D01*
X965269Y-235917D01*
X965175Y-235937D01*
X965172Y-235940D01*
X965168Y-235941D01*
X965092Y-235997D01*
X965013Y-236052D01*
X965011Y-236056D01*
X965008Y-236059D01*
X964959Y-236140D01*
X964909Y-236222D01*
X964908Y-236226D01*
X964906Y-236230D01*
X964887Y-236340D01*
X961056Y-240171D01*
X955651Y-240171D01*
X953023Y-237543D01*
X953013Y-237536D01*
X953005Y-237526D01*
X952930Y-237482D01*
X952857Y-237434D01*
X952845Y-237431D01*
X952834Y-237425D01*
X952670Y-237397D01*
X944066Y-237397D01*
X942301Y-235632D01*
X942294Y-235628D01*
X942289Y-235621D01*
X942212Y-235573D01*
X942135Y-235523D01*
X942127Y-235521D01*
X942120Y-235517D01*
X942030Y-235503D01*
X941940Y-235486D01*
X941932Y-235488D01*
X941923Y-235487D01*
X941835Y-235509D01*
X941746Y-235529D01*
X941739Y-235534D01*
X941731Y-235536D01*
X941595Y-235632D01*
X937703Y-239525D01*
X933986Y-239525D01*
X933974Y-239527D01*
X933962Y-239525D01*
X933877Y-239547D01*
X933792Y-239564D01*
X933781Y-239571D01*
X933769Y-239575D01*
X933633Y-239671D01*
X905554Y-267751D01*
X869760Y-267751D01*
X869748Y-267753D01*
X869736Y-267751D01*
X869651Y-267773D01*
X869566Y-267790D01*
X869555Y-267797D01*
X869543Y-267801D01*
X869407Y-267897D01*
X865554Y-271751D01*
X857760Y-271751D01*
X857748Y-271753D01*
X857736Y-271751D01*
X857651Y-271773D01*
X857566Y-271790D01*
X857555Y-271797D01*
X857543Y-271801D01*
X857407Y-271897D01*
X840554Y-288751D01*
X698183Y-288751D01*
X698179Y-288752D01*
X698175Y-288751D01*
X698082Y-288771D01*
X697988Y-288790D01*
X697985Y-288793D01*
X697981Y-288794D01*
X697903Y-288849D01*
X697825Y-288903D01*
X697822Y-288906D01*
X697819Y-288909D01*
X697769Y-288990D01*
X697718Y-289070D01*
X697717Y-289075D01*
X697715Y-289078D01*
X697700Y-289172D01*
X697684Y-289267D01*
X697685Y-289271D01*
X697685Y-289275D01*
X697708Y-289367D01*
X697730Y-289460D01*
X697733Y-289463D01*
X697734Y-289467D01*
X697830Y-289603D01*
X701525Y-293297D01*
X701525Y-298703D01*
X697830Y-302397D01*
X697828Y-302401D01*
X697825Y-302403D01*
X697773Y-302483D01*
X697721Y-302563D01*
X697720Y-302567D01*
X697718Y-302570D01*
X697702Y-302664D01*
X697684Y-302758D01*
X697685Y-302762D01*
X697684Y-302767D01*
X697706Y-302859D01*
X697727Y-302952D01*
X697729Y-302956D01*
X697730Y-302960D01*
X697786Y-303036D01*
X697842Y-303115D01*
X697846Y-303117D01*
X697848Y-303120D01*
X697930Y-303169D01*
X698012Y-303219D01*
X698016Y-303219D01*
X698019Y-303222D01*
X698183Y-303249D01*
X740581Y-303249D01*
X761434Y-324103D01*
X761445Y-324110D01*
X761452Y-324120D01*
X761527Y-324165D01*
X761600Y-324213D01*
X761613Y-324215D01*
X761623Y-324222D01*
X761787Y-324249D01*
X861380Y-324249D01*
X861388Y-324248D01*
X861397Y-324249D01*
X861485Y-324228D01*
X861575Y-324210D01*
X861582Y-324205D01*
X861590Y-324203D01*
X861663Y-324149D01*
X861739Y-324097D01*
X861743Y-324090D01*
X861750Y-324085D01*
X861797Y-324007D01*
X861846Y-323930D01*
X861847Y-323921D01*
X861852Y-323914D01*
X861879Y-323750D01*
X861879Y-322964D01*
X863344Y-321499D01*
X877416Y-321499D01*
X877647Y-321730D01*
X877654Y-321735D01*
X877659Y-321742D01*
X877737Y-321790D01*
X877813Y-321840D01*
X877821Y-321842D01*
X877828Y-321846D01*
X877918Y-321860D01*
X878008Y-321877D01*
X878017Y-321875D01*
X878025Y-321876D01*
X878113Y-321854D01*
X878202Y-321834D01*
X878209Y-321829D01*
X878217Y-321827D01*
X878353Y-321730D01*
X878584Y-321499D01*
X892656Y-321499D01*
X894121Y-322964D01*
X894121Y-323750D01*
X894122Y-323758D01*
X894121Y-323767D01*
X894142Y-323855D01*
X894160Y-323945D01*
X894165Y-323952D01*
X894167Y-323960D01*
X894221Y-324033D01*
X894273Y-324109D01*
X894280Y-324113D01*
X894285Y-324120D01*
X894363Y-324167D01*
X894440Y-324216D01*
X894449Y-324217D01*
X894456Y-324222D01*
X894620Y-324249D01*
X911317Y-324249D01*
X911329Y-324247D01*
X911341Y-324249D01*
X911426Y-324227D01*
X911511Y-324210D01*
X911522Y-324203D01*
X911534Y-324199D01*
X911670Y-324103D01*
X914297Y-321475D01*
X919703Y-321475D01*
X923525Y-325297D01*
X923525Y-330703D01*
X919703Y-334525D01*
X914297Y-334525D01*
X911670Y-331897D01*
X911659Y-331890D01*
X911652Y-331880D01*
X911577Y-331835D01*
X911504Y-331787D01*
X911491Y-331785D01*
X911481Y-331778D01*
X911317Y-331751D01*
X894620Y-331751D01*
X894612Y-331752D01*
X894603Y-331751D01*
X894515Y-331772D01*
X894425Y-331790D01*
X894418Y-331795D01*
X894410Y-331797D01*
X894337Y-331851D01*
X894261Y-331903D01*
X894257Y-331910D01*
X894250Y-331915D01*
X894203Y-331993D01*
X894154Y-332070D01*
X894153Y-332079D01*
X894148Y-332086D01*
X894121Y-332250D01*
X894121Y-333036D01*
X892656Y-334501D01*
X878584Y-334501D01*
X878353Y-334270D01*
X878346Y-334265D01*
X878341Y-334258D01*
X878263Y-334210D01*
X878187Y-334160D01*
X878179Y-334158D01*
X878172Y-334154D01*
X878082Y-334140D01*
X877992Y-334123D01*
X877984Y-334125D01*
X877975Y-334124D01*
X877887Y-334146D01*
X877798Y-334166D01*
X877791Y-334171D01*
X877783Y-334173D01*
X877647Y-334270D01*
X877416Y-334501D01*
X863344Y-334501D01*
X861879Y-333036D01*
X861879Y-332250D01*
X861878Y-332242D01*
X861879Y-332233D01*
X861858Y-332145D01*
X861840Y-332055D01*
X861835Y-332048D01*
X861833Y-332040D01*
X861779Y-331967D01*
X861727Y-331891D01*
X861720Y-331887D01*
X861715Y-331880D01*
X861637Y-331833D01*
X861560Y-331784D01*
X861551Y-331783D01*
X861544Y-331778D01*
X861380Y-331751D01*
X758473Y-331751D01*
X737620Y-310897D01*
X737609Y-310890D01*
X737602Y-310880D01*
X737527Y-310835D01*
X737454Y-310787D01*
X737441Y-310785D01*
X737431Y-310778D01*
X737267Y-310751D01*
X692500Y-310751D01*
X692492Y-310752D01*
X692483Y-310751D01*
X692395Y-310772D01*
X692305Y-310790D01*
X692298Y-310795D01*
X692290Y-310797D01*
X692217Y-310851D01*
X692141Y-310903D01*
X692137Y-310910D01*
X692130Y-310915D01*
X692083Y-310993D01*
X692034Y-311070D01*
X692033Y-311079D01*
X692028Y-311086D01*
X692001Y-311250D01*
X692001Y-353564D01*
X692003Y-353575D01*
X692001Y-353586D01*
X692010Y-353621D01*
X692001Y-355009D01*
X692001Y-355010D01*
X692001Y-355012D01*
X692001Y-356255D01*
X691117Y-357127D01*
X691116Y-357128D01*
X691114Y-357129D01*
X690235Y-358009D01*
X688990Y-358001D01*
X688988Y-358001D01*
X688987Y-358001D01*
X687599Y-358001D01*
X687544Y-357991D01*
X685503Y-357977D01*
X685493Y-357979D01*
X685483Y-357978D01*
X685396Y-357998D01*
X685308Y-358016D01*
X685300Y-358021D01*
X685290Y-358024D01*
X685218Y-358077D01*
X685144Y-358127D01*
X685138Y-358135D01*
X685130Y-358141D01*
X685084Y-358218D01*
X685035Y-358294D01*
X685034Y-358304D01*
X685028Y-358312D01*
X685001Y-358477D01*
X685001Y-375550D01*
X685003Y-375563D01*
X685001Y-375575D01*
X685023Y-375659D01*
X685040Y-375745D01*
X685047Y-375756D01*
X685051Y-375768D01*
X685147Y-375903D01*
X691097Y-381853D01*
X691107Y-381860D01*
X691115Y-381870D01*
X691190Y-381915D01*
X691263Y-381963D01*
X691275Y-381965D01*
X691286Y-381972D01*
X691450Y-381999D01*
X708550Y-381999D01*
X708563Y-381997D01*
X708575Y-381999D01*
X708659Y-381977D01*
X708745Y-381960D01*
X708756Y-381953D01*
X708768Y-381949D01*
X708903Y-381853D01*
X720757Y-369999D01*
X789243Y-369999D01*
X801097Y-381853D01*
X801107Y-381860D01*
X801115Y-381870D01*
X801190Y-381915D01*
X801263Y-381963D01*
X801275Y-381965D01*
X801286Y-381972D01*
X801450Y-381999D01*
X1195550Y-381999D01*
X1195563Y-381997D01*
X1195575Y-381999D01*
X1195659Y-381977D01*
X1195745Y-381960D01*
X1195756Y-381953D01*
X1195768Y-381949D01*
X1195903Y-381853D01*
X1198853Y-378903D01*
X1198860Y-378893D01*
X1198870Y-378885D01*
X1198914Y-378811D01*
X1198963Y-378738D01*
X1198965Y-378725D01*
X1198972Y-378714D01*
X1198999Y-378550D01*
X1198999Y18550D01*
X1198997Y18563D01*
X1198999Y18575D01*
X1198977Y18659D01*
X1198960Y18745D01*
X1198953Y18756D01*
X1198949Y18768D01*
X1198853Y18903D01*
X1195903Y21853D01*
X1195893Y21860D01*
X1195885Y21870D01*
X1195810Y21915D01*
X1195737Y21963D01*
X1195725Y21965D01*
X1195714Y21972D01*
X1195550Y21999D01*
X-171550Y21999D01*
X-171563Y21997D01*
X-171575Y21999D01*
X-171659Y21977D01*
X-171745Y21960D01*
X-171756Y21953D01*
X-171768Y21949D01*
X-171903Y21853D01*
X-174853Y18903D01*
X-174860Y18893D01*
X-174870Y18885D01*
X-174915Y18810D01*
X-174963Y18737D01*
X-174965Y18725D01*
X-174972Y18714D01*
X-174999Y18550D01*
X-174999Y-339887D01*
X-174998Y-339891D01*
X-174999Y-339895D01*
X-174979Y-339988D01*
X-174960Y-340082D01*
X-174957Y-340085D01*
X-174956Y-340089D01*
X-174901Y-340167D01*
X-174847Y-340246D01*
X-174844Y-340248D01*
X-174841Y-340251D01*
X-174760Y-340301D01*
X-174680Y-340353D01*
X-174675Y-340353D01*
X-174672Y-340355D01*
X-174578Y-340370D01*
X-174483Y-340386D01*
X-174479Y-340385D01*
X-174475Y-340385D01*
X-174382Y-340362D01*
X-174290Y-340340D01*
X-174287Y-340337D01*
X-174283Y-340336D01*
X-174147Y-340240D01*
X-174042Y-340135D01*
X-174024Y-340131D01*
X-173935Y-340116D01*
X-173926Y-340111D01*
X-173918Y-340110D01*
X-173886Y-340088D01*
X-173792Y-340032D01*
X-173498Y-339785D01*
X-173453Y-339728D01*
X-173402Y-339676D01*
X-173389Y-339648D01*
X-173374Y-339629D01*
X-173363Y-339587D01*
X-173335Y-339524D01*
X-173318Y-339456D01*
X-172621Y-339038D01*
X-172596Y-339015D01*
X-172557Y-338992D01*
X-171935Y-338468D01*
X-171866Y-338474D01*
X-171793Y-338466D01*
X-171721Y-338466D01*
X-171692Y-338454D01*
X-171668Y-338452D01*
X-171630Y-338430D01*
X-171566Y-338405D01*
X-171506Y-338369D01*
X-171476Y-338377D01*
X-171444Y-338378D01*
X-171414Y-338388D01*
X-171346Y-338383D01*
X-171277Y-338386D01*
X-171248Y-338374D01*
X-171216Y-338372D01*
X-171155Y-338340D01*
X-171091Y-338316D01*
X-171068Y-338294D01*
X-171040Y-338280D01*
X-170996Y-338227D01*
X-170947Y-338180D01*
X-170934Y-338150D01*
X-170914Y-338126D01*
X-170885Y-338038D01*
X-170867Y-337997D01*
X-170867Y-337984D01*
X-170863Y-337971D01*
X-170764Y-337898D01*
X-170720Y-337850D01*
X-170670Y-337809D01*
X-170650Y-337773D01*
X-170630Y-337751D01*
X-170617Y-337714D01*
X-170589Y-337663D01*
X-170548Y-337549D01*
X-169857Y-337221D01*
X-169826Y-337197D01*
X-169775Y-337172D01*
X-169159Y-336719D01*
X-169039Y-336737D01*
X-168974Y-336734D01*
X-168909Y-336740D01*
X-168870Y-336729D01*
X-168840Y-336728D01*
X-168805Y-336711D01*
X-168749Y-336695D01*
X-164170Y-334522D01*
X-164168Y-334520D01*
X-164166Y-334520D01*
X-164031Y-334424D01*
X-163657Y-334049D01*
X-163287Y-334049D01*
X-163260Y-334044D01*
X-163233Y-334046D01*
X-163132Y-334018D01*
X-163092Y-334010D01*
X-163084Y-334004D01*
X-163073Y-334001D01*
X-162739Y-333843D01*
X-162240Y-334020D01*
X-162239Y-334021D01*
X-162237Y-334022D01*
X-162073Y-334049D01*
X-161516Y-334049D01*
X-161445Y-334099D01*
X-161438Y-334100D01*
X-161433Y-334104D01*
X-161341Y-334121D01*
X-161251Y-334141D01*
X-161244Y-334139D01*
X-161237Y-334141D01*
X-161146Y-334121D01*
X-161055Y-334103D01*
X-161050Y-334099D01*
X-161043Y-334098D01*
X-160967Y-334044D01*
X-160890Y-333992D01*
X-160886Y-333986D01*
X-160881Y-333983D01*
X-160863Y-333953D01*
X-160795Y-333856D01*
X-160648Y-333549D01*
X-160302Y-333426D01*
X-160278Y-333412D01*
X-160252Y-333405D01*
X-160167Y-333345D01*
X-160132Y-333324D01*
X-160126Y-333316D01*
X-160116Y-333309D01*
X-159657Y-332849D01*
X-158760Y-332849D01*
X-158759Y-332849D01*
X-158757Y-332849D01*
X-158646Y-332830D01*
X-158592Y-332839D01*
X-158552Y-332849D01*
X-158542Y-332847D01*
X-158530Y-332849D01*
X-155323Y-332849D01*
X-155261Y-332837D01*
X-155198Y-332833D01*
X-155160Y-332816D01*
X-155129Y-332810D01*
X-155097Y-332788D01*
X-155047Y-332765D01*
X-154936Y-332692D01*
X-154196Y-332840D01*
X-154156Y-332839D01*
X-154098Y-332849D01*
X-153343Y-332849D01*
X-153249Y-332943D01*
X-153197Y-332978D01*
X-153150Y-333021D01*
X-153110Y-333036D01*
X-153084Y-333053D01*
X-153046Y-333060D01*
X-152994Y-333080D01*
X-152864Y-333106D01*
X-152552Y-333574D01*
X-152514Y-333611D01*
X-152484Y-333655D01*
X-152438Y-333687D01*
X-152411Y-333714D01*
X-152382Y-333725D01*
X-152347Y-333749D01*
X-152019Y-333903D01*
X-151994Y-333908D01*
X-151972Y-333922D01*
X-151863Y-333940D01*
X-151825Y-333949D01*
X-151817Y-333948D01*
X-151808Y-333949D01*
X-150991Y-333949D01*
X-150964Y-333944D01*
X-150929Y-333945D01*
X-150871Y-333938D01*
X-150833Y-333925D01*
X-150730Y-333899D01*
X-150374Y-333740D01*
X-150225Y-333798D01*
X-150186Y-333804D01*
X-150150Y-333820D01*
X-150089Y-333822D01*
X-150079Y-333830D01*
X-150043Y-333848D01*
X-149951Y-333902D01*
X-149914Y-333916D01*
X-149907Y-333918D01*
X-149900Y-333922D01*
X-149736Y-333949D01*
X-149243Y-333949D01*
X-148956Y-334237D01*
X-148938Y-334249D01*
X-148924Y-334266D01*
X-148814Y-334331D01*
X-148790Y-334347D01*
X-148786Y-334348D01*
X-148781Y-334350D01*
X-145512Y-335602D01*
X-145455Y-335612D01*
X-145401Y-335631D01*
X-145351Y-335629D01*
X-145315Y-335635D01*
X-145282Y-335627D01*
X-145235Y-335626D01*
X-145064Y-335592D01*
X-144468Y-335989D01*
X-144428Y-336005D01*
X-144370Y-336040D01*
X-143701Y-336296D01*
X-143630Y-336455D01*
X-143597Y-336502D01*
X-143572Y-336553D01*
X-143535Y-336588D01*
X-143514Y-336617D01*
X-143485Y-336635D01*
X-143451Y-336667D01*
X-143306Y-336764D01*
X-143249Y-337048D01*
X-143226Y-337103D01*
X-143213Y-337160D01*
X-143188Y-337193D01*
X-143172Y-337231D01*
X-143130Y-337273D01*
X-143095Y-337320D01*
X-143059Y-337341D01*
X-143030Y-337370D01*
X-142974Y-337391D01*
X-142924Y-337422D01*
X-142876Y-337430D01*
X-142844Y-337442D01*
X-142809Y-337441D01*
X-142760Y-337449D01*
X-142542Y-337449D01*
X-142463Y-337433D01*
X-142383Y-337423D01*
X-142364Y-337413D01*
X-142347Y-337410D01*
X-142310Y-337384D01*
X-142236Y-337345D01*
X-142225Y-337336D01*
X-141554Y-337422D01*
X-141543Y-337421D01*
X-141533Y-337424D01*
X-141367Y-337410D01*
X-140807Y-337267D01*
X-140618Y-337379D01*
X-140571Y-337396D01*
X-140527Y-337422D01*
X-140468Y-337432D01*
X-140430Y-337445D01*
X-140401Y-337443D01*
X-140363Y-337449D01*
X-140143Y-337449D01*
X-139667Y-337925D01*
X-139660Y-337930D01*
X-139656Y-337936D01*
X-139625Y-337954D01*
X-139569Y-338002D01*
X-134718Y-340879D01*
X-134671Y-340896D01*
X-134627Y-340922D01*
X-134568Y-340932D01*
X-134530Y-340945D01*
X-134501Y-340943D01*
X-134463Y-340949D01*
X-134243Y-340949D01*
X-133767Y-341425D01*
X-133763Y-341428D01*
X-133761Y-341431D01*
X-133743Y-341442D01*
X-133730Y-341450D01*
X-133669Y-341502D01*
X-133090Y-341845D01*
X-133036Y-342058D01*
X-133014Y-342104D01*
X-133001Y-342152D01*
X-132966Y-342201D01*
X-132949Y-342237D01*
X-132927Y-342256D01*
X-132905Y-342288D01*
X-132749Y-342443D01*
X-132749Y-343117D01*
X-132740Y-343161D01*
X-132734Y-343240D01*
X-132715Y-343313D01*
X-132697Y-343351D01*
X-132660Y-343446D01*
X-132568Y-343599D01*
X-132574Y-343622D01*
X-132576Y-343662D01*
X-132587Y-343702D01*
X-132581Y-343776D01*
X-132583Y-343820D01*
X-132576Y-343840D01*
X-132574Y-343867D01*
X-132567Y-343893D01*
X-132661Y-344051D01*
X-132675Y-344091D01*
X-132716Y-344184D01*
X-132734Y-344257D01*
X-132736Y-344301D01*
X-132749Y-344379D01*
X-132749Y-345057D01*
X-132901Y-345209D01*
X-132930Y-345251D01*
X-132965Y-345287D01*
X-132989Y-345341D01*
X-133011Y-345374D01*
X-133017Y-345404D01*
X-133032Y-345440D01*
X-133085Y-345648D01*
X-133667Y-345996D01*
X-133700Y-346026D01*
X-133764Y-346071D01*
X-134243Y-346551D01*
X-134459Y-346551D01*
X-134509Y-346561D01*
X-134560Y-346561D01*
X-134614Y-346582D01*
X-134653Y-346590D01*
X-134656Y-346592D01*
X-134679Y-346607D01*
X-134715Y-346621D01*
X-144145Y-352254D01*
X-144164Y-352271D01*
X-144188Y-352282D01*
X-144237Y-352337D01*
X-144292Y-352388D01*
X-144303Y-352411D01*
X-144320Y-352430D01*
X-144344Y-352500D01*
X-144375Y-352568D01*
X-144376Y-352594D01*
X-144384Y-352618D01*
X-144379Y-352692D01*
X-144381Y-352767D01*
X-144372Y-352791D01*
X-144370Y-352817D01*
X-144336Y-352883D01*
X-144309Y-352952D01*
X-144291Y-352971D01*
X-144280Y-352994D01*
X-144198Y-353067D01*
X-144171Y-353095D01*
X-144163Y-353098D01*
X-144156Y-353104D01*
X-139675Y-355931D01*
X-139633Y-355947D01*
X-139558Y-355985D01*
X-138929Y-356182D01*
X-138820Y-356390D01*
X-138790Y-356427D01*
X-138768Y-356470D01*
X-138721Y-356512D01*
X-138695Y-356544D01*
X-138671Y-356557D01*
X-138644Y-356581D01*
X-138446Y-356706D01*
X-138300Y-357349D01*
X-138281Y-357390D01*
X-138255Y-357470D01*
X-138139Y-357693D01*
X-138135Y-357698D01*
X-138133Y-357704D01*
X-138073Y-357775D01*
X-138014Y-357847D01*
X-138008Y-357850D01*
X-138004Y-357855D01*
X-137864Y-357931D01*
X-137837Y-357966D01*
X-137787Y-358038D01*
X-137776Y-358045D01*
X-137769Y-358054D01*
X-137732Y-358075D01*
X-137685Y-358107D01*
X-137363Y-358966D01*
X-137352Y-358985D01*
X-137344Y-359011D01*
X-136939Y-359838D01*
X-136944Y-359879D01*
X-136960Y-359965D01*
X-136957Y-359979D01*
X-136959Y-359989D01*
X-136947Y-360030D01*
X-136936Y-360086D01*
X-137317Y-360921D01*
X-137322Y-360942D01*
X-137335Y-360967D01*
X-137678Y-361969D01*
X-137703Y-362007D01*
X-137705Y-362022D01*
X-137712Y-362035D01*
X-137722Y-362120D01*
X-137737Y-362203D01*
X-137734Y-362219D01*
X-137735Y-362233D01*
X-137723Y-362275D01*
X-137705Y-362366D01*
X-137536Y-362812D01*
X-137527Y-362827D01*
X-137523Y-362844D01*
X-137434Y-362973D01*
X-137430Y-362980D01*
X-137429Y-362980D01*
X-137429Y-362981D01*
X-137130Y-363292D01*
X-137139Y-363760D01*
X-137137Y-363772D01*
X-137139Y-363783D01*
X-137106Y-363947D01*
X-136940Y-364385D01*
X-137118Y-364778D01*
X-137121Y-364795D01*
X-137131Y-364810D01*
X-137160Y-364964D01*
X-137161Y-364972D01*
X-137161Y-364973D01*
X-137162Y-364974D01*
X-137234Y-368796D01*
X-137224Y-368848D01*
X-137225Y-368900D01*
X-137205Y-368953D01*
X-137198Y-368992D01*
X-137181Y-369017D01*
X-137166Y-369056D01*
X-137064Y-369233D01*
X-137240Y-369898D01*
X-137243Y-369942D01*
X-137257Y-370017D01*
X-137270Y-370704D01*
X-137417Y-370846D01*
X-137447Y-370890D01*
X-137484Y-370926D01*
X-137508Y-370978D01*
X-137530Y-371010D01*
X-137536Y-371040D01*
X-137553Y-371078D01*
X-137605Y-371275D01*
X-138201Y-371621D01*
X-138234Y-371650D01*
X-138296Y-371693D01*
X-138792Y-372170D01*
X-138996Y-372166D01*
X-139048Y-372176D01*
X-139100Y-372175D01*
X-139153Y-372195D01*
X-139192Y-372202D01*
X-139217Y-372219D01*
X-139256Y-372234D01*
X-140772Y-373114D01*
X-140826Y-373162D01*
X-140884Y-373203D01*
X-140902Y-373230D01*
X-140921Y-373246D01*
X-140939Y-373285D01*
X-140977Y-373341D01*
X-141009Y-373411D01*
X-141762Y-373697D01*
X-141791Y-373715D01*
X-141836Y-373732D01*
X-142533Y-374136D01*
X-142608Y-374117D01*
X-142679Y-374112D01*
X-142749Y-374100D01*
X-142781Y-374106D01*
X-142806Y-374105D01*
X-142846Y-374119D01*
X-142912Y-374132D01*
X-143078Y-374195D01*
X-143127Y-374205D01*
X-143218Y-374221D01*
X-143224Y-374225D01*
X-143231Y-374227D01*
X-143307Y-374280D01*
X-143384Y-374330D01*
X-143388Y-374336D01*
X-143394Y-374341D01*
X-143488Y-374479D01*
X-143664Y-374866D01*
X-143673Y-374903D01*
X-143690Y-374938D01*
X-143699Y-375016D01*
X-143709Y-375060D01*
X-143705Y-375079D01*
X-143708Y-375103D01*
X-143690Y-375400D01*
X-144087Y-375849D01*
X-144107Y-375883D01*
X-144168Y-375973D01*
X-144416Y-376518D01*
X-144695Y-376623D01*
X-144728Y-376643D01*
X-144764Y-376655D01*
X-144826Y-376704D01*
X-144864Y-376728D01*
X-144875Y-376744D01*
X-144894Y-376759D01*
X-145091Y-376982D01*
X-145689Y-377018D01*
X-145727Y-377028D01*
X-145834Y-377049D01*
X-146395Y-377259D01*
X-146666Y-377136D01*
X-146703Y-377127D01*
X-146738Y-377110D01*
X-146816Y-377101D01*
X-146860Y-377091D01*
X-146879Y-377095D01*
X-146903Y-377092D01*
X-147971Y-377157D01*
X-148012Y-377167D01*
X-148053Y-377169D01*
X-148107Y-377193D01*
X-148164Y-377208D01*
X-148196Y-377234D01*
X-148234Y-377251D01*
X-148286Y-377303D01*
X-148320Y-377330D01*
X-148331Y-377350D01*
X-148351Y-377370D01*
X-150713Y-380762D01*
X-150716Y-380767D01*
X-150720Y-380771D01*
X-150755Y-380858D01*
X-150775Y-380905D01*
X-150996Y-381203D01*
X-151024Y-381264D01*
X-151060Y-381320D01*
X-151066Y-381353D01*
X-151080Y-381383D01*
X-151082Y-381451D01*
X-151093Y-381517D01*
X-151086Y-381549D01*
X-151087Y-381582D01*
X-151063Y-381645D01*
X-151047Y-381710D01*
X-151028Y-381737D01*
X-151016Y-381768D01*
X-150969Y-381816D01*
X-150929Y-381870D01*
X-150901Y-381887D01*
X-150878Y-381911D01*
X-150816Y-381937D01*
X-150758Y-381972D01*
X-150721Y-381978D01*
X-150695Y-381989D01*
X-150654Y-381989D01*
X-150594Y-381999D01*
X305300Y-381999D01*
X305308Y-381998D01*
X305317Y-381999D01*
X305405Y-381978D01*
X305495Y-381960D01*
X305502Y-381955D01*
X305510Y-381953D01*
X305583Y-381899D01*
X305659Y-381847D01*
X305663Y-381840D01*
X305670Y-381835D01*
X305717Y-381757D01*
X305766Y-381680D01*
X305767Y-381671D01*
X305772Y-381664D01*
X305799Y-381500D01*
X305799Y-361250D01*
X305798Y-361242D01*
X305799Y-361233D01*
X305778Y-361145D01*
X305760Y-361055D01*
X305755Y-361048D01*
X305753Y-361040D01*
X305699Y-360967D01*
X305647Y-360891D01*
X305640Y-360887D01*
X305635Y-360880D01*
X305557Y-360833D01*
X305480Y-360784D01*
X305471Y-360783D01*
X305464Y-360778D01*
X305300Y-360751D01*
X245446Y-360751D01*
X219249Y-334554D01*
X219249Y-326683D01*
X219247Y-326671D01*
X219249Y-326659D01*
X219227Y-326574D01*
X219210Y-326489D01*
X219203Y-326478D01*
X219199Y-326466D01*
X219103Y-326330D01*
X216475Y-323703D01*
X216475Y-318297D01*
X220297Y-314475D01*
X225703Y-314475D01*
X229525Y-318297D01*
X229525Y-323703D01*
X226897Y-326330D01*
X226890Y-326341D01*
X226880Y-326348D01*
X226835Y-326423D01*
X226787Y-326496D01*
X226785Y-326509D01*
X226778Y-326519D01*
X226751Y-326683D01*
X226751Y-331240D01*
X226753Y-331252D01*
X226751Y-331264D01*
X226773Y-331349D01*
X226790Y-331434D01*
X226797Y-331445D01*
X226801Y-331457D01*
X226897Y-331593D01*
X248407Y-353103D01*
X248418Y-353110D01*
X248425Y-353120D01*
X248500Y-353165D01*
X248573Y-353213D01*
X248586Y-353215D01*
X248596Y-353222D01*
X248760Y-353249D01*
X306800Y-353249D01*
X306808Y-353248D01*
G37*
%LPC*%
G36*
X-25703Y-176025D02*
X-25703Y-176025D01*
X-29525Y-172203D01*
X-29525Y-166797D01*
X-26897Y-164170D01*
X-26890Y-164159D01*
X-26880Y-164152D01*
X-26835Y-164077D01*
X-26787Y-164004D01*
X-26785Y-163991D01*
X-26778Y-163981D01*
X-26751Y-163817D01*
X-26751Y-131946D01*
X-24407Y-129603D01*
X11593Y-93603D01*
X11595Y-93599D01*
X11598Y-93597D01*
X11650Y-93517D01*
X11702Y-93437D01*
X11703Y-93433D01*
X11705Y-93430D01*
X11721Y-93336D01*
X11739Y-93242D01*
X11738Y-93238D01*
X11739Y-93233D01*
X11717Y-93142D01*
X11696Y-93048D01*
X11694Y-93044D01*
X11693Y-93040D01*
X11637Y-92964D01*
X11581Y-92885D01*
X11577Y-92883D01*
X11575Y-92880D01*
X11493Y-92831D01*
X11411Y-92781D01*
X11407Y-92781D01*
X11404Y-92778D01*
X11240Y-92751D01*
X-43976Y-92751D01*
X-43984Y-92752D01*
X-43993Y-92751D01*
X-44081Y-92772D01*
X-44171Y-92790D01*
X-44178Y-92795D01*
X-44186Y-92797D01*
X-44259Y-92851D01*
X-44335Y-92903D01*
X-44339Y-92910D01*
X-44346Y-92915D01*
X-44393Y-92993D01*
X-44442Y-93070D01*
X-44443Y-93079D01*
X-44448Y-93086D01*
X-44475Y-93250D01*
X-44475Y-94703D01*
X-48297Y-98525D01*
X-53703Y-98525D01*
X-57525Y-94703D01*
X-57525Y-89297D01*
X-56830Y-88603D01*
X-56828Y-88599D01*
X-56825Y-88597D01*
X-56774Y-88517D01*
X-56721Y-88437D01*
X-56720Y-88433D01*
X-56718Y-88430D01*
X-56702Y-88336D01*
X-56684Y-88242D01*
X-56685Y-88238D01*
X-56684Y-88233D01*
X-56706Y-88142D01*
X-56727Y-88048D01*
X-56729Y-88044D01*
X-56730Y-88040D01*
X-56786Y-87964D01*
X-56842Y-87885D01*
X-56846Y-87883D01*
X-56848Y-87880D01*
X-56930Y-87831D01*
X-57012Y-87781D01*
X-57016Y-87781D01*
X-57019Y-87778D01*
X-57183Y-87751D01*
X-75740Y-87751D01*
X-75752Y-87753D01*
X-75764Y-87751D01*
X-75849Y-87773D01*
X-75934Y-87790D01*
X-75945Y-87797D01*
X-75957Y-87801D01*
X-76093Y-87897D01*
X-108946Y-120751D01*
X-134317Y-120751D01*
X-134329Y-120753D01*
X-134341Y-120751D01*
X-134426Y-120773D01*
X-134511Y-120790D01*
X-134522Y-120797D01*
X-134534Y-120801D01*
X-134670Y-120897D01*
X-137297Y-123525D01*
X-142703Y-123525D01*
X-146525Y-119703D01*
X-146525Y-114297D01*
X-142703Y-110475D01*
X-137297Y-110475D01*
X-134670Y-113103D01*
X-134659Y-113110D01*
X-134652Y-113120D01*
X-134577Y-113165D01*
X-134504Y-113213D01*
X-134491Y-113215D01*
X-134481Y-113222D01*
X-134317Y-113249D01*
X-112260Y-113249D01*
X-112248Y-113247D01*
X-112236Y-113249D01*
X-112151Y-113227D01*
X-112066Y-113210D01*
X-112055Y-113203D01*
X-112043Y-113199D01*
X-111907Y-113103D01*
X-82407Y-83603D01*
X-82405Y-83599D01*
X-82402Y-83597D01*
X-82350Y-83517D01*
X-82298Y-83437D01*
X-82297Y-83433D01*
X-82295Y-83430D01*
X-82279Y-83336D01*
X-82261Y-83242D01*
X-82262Y-83238D01*
X-82261Y-83233D01*
X-82283Y-83142D01*
X-82304Y-83048D01*
X-82306Y-83044D01*
X-82307Y-83040D01*
X-82363Y-82964D01*
X-82419Y-82885D01*
X-82423Y-82883D01*
X-82425Y-82880D01*
X-82507Y-82831D01*
X-82589Y-82781D01*
X-82593Y-82781D01*
X-82596Y-82778D01*
X-82760Y-82751D01*
X-123240Y-82751D01*
X-123252Y-82753D01*
X-123264Y-82751D01*
X-123349Y-82773D01*
X-123434Y-82790D01*
X-123445Y-82797D01*
X-123457Y-82801D01*
X-123593Y-82897D01*
X-133329Y-92633D01*
X-133336Y-92644D01*
X-133346Y-92651D01*
X-133391Y-92726D01*
X-133439Y-92799D01*
X-133441Y-92812D01*
X-133448Y-92822D01*
X-133475Y-92986D01*
X-133475Y-96703D01*
X-137297Y-100525D01*
X-142703Y-100525D01*
X-146525Y-96703D01*
X-146525Y-91297D01*
X-142703Y-87475D01*
X-138986Y-87475D01*
X-138974Y-87473D01*
X-138962Y-87475D01*
X-138877Y-87453D01*
X-138792Y-87436D01*
X-138781Y-87429D01*
X-138769Y-87425D01*
X-138633Y-87329D01*
X-126554Y-75249D01*
X169240Y-75249D01*
X169252Y-75247D01*
X169264Y-75249D01*
X169349Y-75227D01*
X169434Y-75210D01*
X169445Y-75203D01*
X169457Y-75199D01*
X169593Y-75103D01*
X171093Y-73603D01*
X171095Y-73599D01*
X171098Y-73597D01*
X171149Y-73517D01*
X171202Y-73437D01*
X171203Y-73433D01*
X171205Y-73430D01*
X171221Y-73336D01*
X171239Y-73242D01*
X171238Y-73238D01*
X171239Y-73233D01*
X171217Y-73142D01*
X171196Y-73048D01*
X171194Y-73044D01*
X171193Y-73040D01*
X171137Y-72964D01*
X171081Y-72885D01*
X171077Y-72883D01*
X171075Y-72880D01*
X170993Y-72831D01*
X170911Y-72781D01*
X170907Y-72781D01*
X170904Y-72778D01*
X170740Y-72751D01*
X-90554Y-72751D01*
X-90633Y-72671D01*
X-90644Y-72664D01*
X-90651Y-72654D01*
X-90726Y-72609D01*
X-90799Y-72561D01*
X-90812Y-72559D01*
X-90822Y-72552D01*
X-90986Y-72525D01*
X-94703Y-72525D01*
X-98525Y-68703D01*
X-98525Y-63297D01*
X-94703Y-59475D01*
X-89297Y-59475D01*
X-85475Y-63297D01*
X-85475Y-64750D01*
X-85474Y-64758D01*
X-85475Y-64767D01*
X-85454Y-64855D01*
X-85436Y-64945D01*
X-85431Y-64952D01*
X-85429Y-64960D01*
X-85375Y-65033D01*
X-85323Y-65109D01*
X-85316Y-65113D01*
X-85311Y-65120D01*
X-85233Y-65167D01*
X-85156Y-65216D01*
X-85147Y-65217D01*
X-85140Y-65222D01*
X-84976Y-65249D01*
X1038554Y-65249D01*
X1072407Y-99103D01*
X1072418Y-99110D01*
X1072425Y-99120D01*
X1072500Y-99165D01*
X1072573Y-99213D01*
X1072586Y-99215D01*
X1072596Y-99222D01*
X1072760Y-99249D01*
X1076317Y-99249D01*
X1076329Y-99247D01*
X1076341Y-99249D01*
X1076426Y-99227D01*
X1076511Y-99210D01*
X1076522Y-99203D01*
X1076534Y-99199D01*
X1076670Y-99103D01*
X1079297Y-96475D01*
X1084703Y-96475D01*
X1088525Y-100297D01*
X1088525Y-105703D01*
X1085830Y-108397D01*
X1085828Y-108401D01*
X1085825Y-108403D01*
X1085774Y-108483D01*
X1085721Y-108563D01*
X1085720Y-108567D01*
X1085718Y-108570D01*
X1085702Y-108664D01*
X1085684Y-108758D01*
X1085685Y-108762D01*
X1085684Y-108767D01*
X1085706Y-108858D01*
X1085727Y-108952D01*
X1085729Y-108956D01*
X1085730Y-108960D01*
X1085786Y-109036D01*
X1085842Y-109115D01*
X1085846Y-109117D01*
X1085848Y-109120D01*
X1085930Y-109169D01*
X1086012Y-109219D01*
X1086016Y-109219D01*
X1086019Y-109222D01*
X1086183Y-109249D01*
X1159317Y-109249D01*
X1159329Y-109247D01*
X1159341Y-109249D01*
X1159426Y-109227D01*
X1159511Y-109210D01*
X1159522Y-109203D01*
X1159534Y-109199D01*
X1159670Y-109103D01*
X1162297Y-106475D01*
X1167703Y-106475D01*
X1171525Y-110297D01*
X1171525Y-115703D01*
X1167703Y-119525D01*
X1162297Y-119525D01*
X1159670Y-116897D01*
X1159659Y-116890D01*
X1159652Y-116880D01*
X1159577Y-116835D01*
X1159504Y-116787D01*
X1159491Y-116785D01*
X1159481Y-116778D01*
X1159317Y-116751D01*
X1157260Y-116751D01*
X1157256Y-116752D01*
X1157252Y-116751D01*
X1157159Y-116771D01*
X1157065Y-116790D01*
X1157062Y-116793D01*
X1157058Y-116794D01*
X1156980Y-116849D01*
X1156902Y-116903D01*
X1156899Y-116906D01*
X1156896Y-116909D01*
X1156846Y-116990D01*
X1156795Y-117070D01*
X1156794Y-117075D01*
X1156792Y-117078D01*
X1156777Y-117172D01*
X1156761Y-117267D01*
X1156762Y-117271D01*
X1156762Y-117275D01*
X1156785Y-117367D01*
X1156807Y-117460D01*
X1156810Y-117463D01*
X1156811Y-117467D01*
X1156907Y-117603D01*
X1163633Y-124329D01*
X1163644Y-124336D01*
X1163651Y-124346D01*
X1163726Y-124391D01*
X1163799Y-124439D01*
X1163812Y-124441D01*
X1163822Y-124448D01*
X1163986Y-124475D01*
X1167703Y-124475D01*
X1171525Y-128297D01*
X1171525Y-133703D01*
X1167703Y-137525D01*
X1162297Y-137525D01*
X1158475Y-133703D01*
X1158475Y-129986D01*
X1158473Y-129974D01*
X1158475Y-129962D01*
X1158453Y-129877D01*
X1158436Y-129792D01*
X1158429Y-129781D01*
X1158425Y-129769D01*
X1158329Y-129633D01*
X1150593Y-121897D01*
X1150582Y-121890D01*
X1150575Y-121880D01*
X1150500Y-121835D01*
X1150427Y-121787D01*
X1150414Y-121785D01*
X1150404Y-121778D01*
X1150240Y-121751D01*
X1096183Y-121751D01*
X1096179Y-121752D01*
X1096175Y-121751D01*
X1096082Y-121771D01*
X1095988Y-121790D01*
X1095985Y-121793D01*
X1095981Y-121794D01*
X1095903Y-121849D01*
X1095825Y-121903D01*
X1095822Y-121906D01*
X1095819Y-121909D01*
X1095769Y-121990D01*
X1095718Y-122070D01*
X1095717Y-122075D01*
X1095715Y-122078D01*
X1095700Y-122172D01*
X1095684Y-122267D01*
X1095685Y-122271D01*
X1095685Y-122275D01*
X1095708Y-122367D01*
X1095730Y-122460D01*
X1095733Y-122463D01*
X1095734Y-122467D01*
X1095830Y-122603D01*
X1096525Y-123297D01*
X1096525Y-128703D01*
X1092703Y-132525D01*
X1087297Y-132525D01*
X1084670Y-129897D01*
X1084659Y-129890D01*
X1084652Y-129880D01*
X1084577Y-129835D01*
X1084504Y-129787D01*
X1084491Y-129785D01*
X1084481Y-129778D01*
X1084317Y-129751D01*
X1071446Y-129751D01*
X1038377Y-96681D01*
X1038373Y-96679D01*
X1038371Y-96676D01*
X1038291Y-96624D01*
X1038211Y-96572D01*
X1038207Y-96571D01*
X1038204Y-96569D01*
X1038110Y-96553D01*
X1038016Y-96535D01*
X1038012Y-96536D01*
X1038007Y-96535D01*
X1037916Y-96557D01*
X1037822Y-96578D01*
X1037818Y-96580D01*
X1037814Y-96581D01*
X1037738Y-96637D01*
X1037659Y-96693D01*
X1037657Y-96697D01*
X1037654Y-96699D01*
X1037605Y-96781D01*
X1037555Y-96863D01*
X1037555Y-96867D01*
X1037552Y-96870D01*
X1037525Y-97034D01*
X1037525Y-101703D01*
X1033703Y-105525D01*
X1028297Y-105525D01*
X1024475Y-101703D01*
X1024475Y-96297D01*
X1027103Y-93670D01*
X1027110Y-93659D01*
X1027120Y-93652D01*
X1027165Y-93577D01*
X1027213Y-93504D01*
X1027215Y-93491D01*
X1027222Y-93481D01*
X1027249Y-93317D01*
X1027249Y-93222D01*
X1027248Y-93214D01*
X1027249Y-93205D01*
X1027228Y-93117D01*
X1027210Y-93027D01*
X1027205Y-93020D01*
X1027203Y-93012D01*
X1027149Y-92939D01*
X1027097Y-92863D01*
X1027090Y-92859D01*
X1027085Y-92852D01*
X1027007Y-92805D01*
X1026930Y-92756D01*
X1026921Y-92755D01*
X1026914Y-92750D01*
X1026750Y-92723D01*
X180479Y-92723D01*
X180467Y-92725D01*
X180454Y-92723D01*
X180370Y-92745D01*
X180284Y-92762D01*
X180274Y-92769D01*
X180262Y-92773D01*
X180126Y-92869D01*
X176220Y-96775D01*
X19236Y-96775D01*
X19224Y-96777D01*
X19212Y-96775D01*
X19127Y-96797D01*
X19042Y-96814D01*
X19031Y-96821D01*
X19019Y-96825D01*
X18883Y-96921D01*
X-19103Y-134907D01*
X-19110Y-134918D01*
X-19120Y-134925D01*
X-19165Y-135000D01*
X-19213Y-135073D01*
X-19215Y-135086D01*
X-19222Y-135096D01*
X-19249Y-135260D01*
X-19249Y-163817D01*
X-19247Y-163829D01*
X-19249Y-163841D01*
X-19227Y-163926D01*
X-19210Y-164011D01*
X-19203Y-164022D01*
X-19199Y-164034D01*
X-19103Y-164170D01*
X-16475Y-166797D01*
X-16475Y-172203D01*
X-20297Y-176025D01*
X-25703Y-176025D01*
G37*
%LPD*%
G36*
X567329Y-353247D02*
X567329Y-353247D01*
X567341Y-353249D01*
X567426Y-353227D01*
X567511Y-353210D01*
X567522Y-353203D01*
X567534Y-353199D01*
X567670Y-353103D01*
X571297Y-349475D01*
X576703Y-349475D01*
X580330Y-353103D01*
X580341Y-353110D01*
X580348Y-353120D01*
X580423Y-353165D01*
X580496Y-353213D01*
X580509Y-353215D01*
X580519Y-353222D01*
X580683Y-353249D01*
X601500Y-353249D01*
X601508Y-353248D01*
X601517Y-353249D01*
X601605Y-353228D01*
X601695Y-353210D01*
X601702Y-353205D01*
X601710Y-353203D01*
X601783Y-353149D01*
X601859Y-353097D01*
X601863Y-353090D01*
X601870Y-353085D01*
X601917Y-353007D01*
X601966Y-352930D01*
X601967Y-352921D01*
X601972Y-352914D01*
X601999Y-352750D01*
X601999Y-322757D01*
X603757Y-320999D01*
X683243Y-320999D01*
X685001Y-322757D01*
X685001Y-352750D01*
X685002Y-352758D01*
X685001Y-352767D01*
X685022Y-352855D01*
X685040Y-352945D01*
X685045Y-352952D01*
X685047Y-352960D01*
X685101Y-353033D01*
X685153Y-353109D01*
X685160Y-353113D01*
X685165Y-353120D01*
X685243Y-353167D01*
X685320Y-353216D01*
X685329Y-353217D01*
X685336Y-353222D01*
X685500Y-353249D01*
X689000Y-353249D01*
X689008Y-353248D01*
X689017Y-353249D01*
X689105Y-353228D01*
X689195Y-353210D01*
X689202Y-353205D01*
X689210Y-353203D01*
X689283Y-353149D01*
X689359Y-353097D01*
X689363Y-353090D01*
X689370Y-353085D01*
X689417Y-353007D01*
X689466Y-352930D01*
X689467Y-352921D01*
X689472Y-352914D01*
X689499Y-352750D01*
X689499Y-312000D01*
X689498Y-311992D01*
X689499Y-311983D01*
X689478Y-311895D01*
X689460Y-311805D01*
X689455Y-311798D01*
X689453Y-311790D01*
X689399Y-311717D01*
X689347Y-311641D01*
X689340Y-311637D01*
X689335Y-311630D01*
X689257Y-311583D01*
X689180Y-311534D01*
X689171Y-311533D01*
X689164Y-311528D01*
X689000Y-311501D01*
X424750Y-311501D01*
X424737Y-311503D01*
X424725Y-311501D01*
X424641Y-311523D01*
X424555Y-311540D01*
X424544Y-311548D01*
X424532Y-311551D01*
X424397Y-311647D01*
X423043Y-313001D01*
X310300Y-313001D01*
X310292Y-313002D01*
X310283Y-313001D01*
X310195Y-313022D01*
X310105Y-313040D01*
X310098Y-313045D01*
X310090Y-313047D01*
X310017Y-313101D01*
X309941Y-313153D01*
X309937Y-313160D01*
X309930Y-313165D01*
X309883Y-313243D01*
X309834Y-313320D01*
X309833Y-313329D01*
X309828Y-313336D01*
X309801Y-313500D01*
X309801Y-352750D01*
X309802Y-352758D01*
X309801Y-352767D01*
X309822Y-352855D01*
X309840Y-352945D01*
X309845Y-352952D01*
X309847Y-352960D01*
X309901Y-353033D01*
X309953Y-353109D01*
X309960Y-353113D01*
X309965Y-353120D01*
X310043Y-353167D01*
X310120Y-353216D01*
X310129Y-353217D01*
X310136Y-353222D01*
X310300Y-353249D01*
X567317Y-353249D01*
X567329Y-353247D01*
G37*
%LPC*%
G36*
X991998Y-316803D02*
X991998Y-316803D01*
X972367Y-297171D01*
X972356Y-297164D01*
X972349Y-297154D01*
X972274Y-297109D01*
X972201Y-297061D01*
X972188Y-297059D01*
X972178Y-297052D01*
X972014Y-297025D01*
X970297Y-297025D01*
X966475Y-293203D01*
X966475Y-287797D01*
X970297Y-283975D01*
X975703Y-283975D01*
X979525Y-287797D01*
X979525Y-293251D01*
X979509Y-293274D01*
X979508Y-293282D01*
X979503Y-293290D01*
X979489Y-293380D01*
X979473Y-293470D01*
X979475Y-293478D01*
X979473Y-293486D01*
X979496Y-293575D01*
X979515Y-293664D01*
X979520Y-293671D01*
X979522Y-293679D01*
X979619Y-293815D01*
X988623Y-302819D01*
X988627Y-302821D01*
X988629Y-302824D01*
X988709Y-302876D01*
X988789Y-302928D01*
X988793Y-302929D01*
X988796Y-302931D01*
X988890Y-302947D01*
X988984Y-302965D01*
X988988Y-302964D01*
X988993Y-302965D01*
X989084Y-302943D01*
X989178Y-302922D01*
X989182Y-302920D01*
X989186Y-302919D01*
X989262Y-302863D01*
X989341Y-302807D01*
X989343Y-302803D01*
X989346Y-302801D01*
X989395Y-302719D01*
X989445Y-302637D01*
X989445Y-302633D01*
X989448Y-302630D01*
X989475Y-302466D01*
X989475Y-300297D01*
X993297Y-296475D01*
X998703Y-296475D01*
X999330Y-297103D01*
X999341Y-297110D01*
X999348Y-297120D01*
X999423Y-297164D01*
X999496Y-297213D01*
X999509Y-297215D01*
X999519Y-297222D01*
X999683Y-297249D01*
X1001740Y-297249D01*
X1001744Y-297248D01*
X1001748Y-297249D01*
X1001841Y-297229D01*
X1001935Y-297210D01*
X1001938Y-297207D01*
X1001942Y-297206D01*
X1002020Y-297151D01*
X1002098Y-297097D01*
X1002101Y-297094D01*
X1002104Y-297091D01*
X1002154Y-297010D01*
X1002205Y-296930D01*
X1002206Y-296925D01*
X1002208Y-296922D01*
X1002223Y-296828D01*
X1002239Y-296733D01*
X1002238Y-296729D01*
X1002238Y-296725D01*
X1002215Y-296633D01*
X1002193Y-296540D01*
X1002190Y-296537D01*
X1002189Y-296533D01*
X1002093Y-296397D01*
X983367Y-277671D01*
X983356Y-277664D01*
X983349Y-277654D01*
X983274Y-277609D01*
X983201Y-277561D01*
X983188Y-277559D01*
X983178Y-277552D01*
X983014Y-277525D01*
X977797Y-277525D01*
X973975Y-273703D01*
X973975Y-271534D01*
X973974Y-271530D01*
X973975Y-271526D01*
X973955Y-271433D01*
X973936Y-271339D01*
X973933Y-271336D01*
X973932Y-271332D01*
X973877Y-271254D01*
X973823Y-271176D01*
X973820Y-271173D01*
X973817Y-271170D01*
X973736Y-271120D01*
X973656Y-271069D01*
X973651Y-271068D01*
X973648Y-271066D01*
X973554Y-271051D01*
X973459Y-271035D01*
X973455Y-271036D01*
X973451Y-271036D01*
X973359Y-271059D01*
X973266Y-271081D01*
X973263Y-271084D01*
X973259Y-271085D01*
X973123Y-271181D01*
X955554Y-288751D01*
X904524Y-288751D01*
X904516Y-288752D01*
X904507Y-288751D01*
X904419Y-288772D01*
X904329Y-288790D01*
X904322Y-288795D01*
X904314Y-288797D01*
X904241Y-288851D01*
X904165Y-288903D01*
X904161Y-288910D01*
X904154Y-288915D01*
X904107Y-288993D01*
X904058Y-289070D01*
X904057Y-289079D01*
X904052Y-289086D01*
X904025Y-289250D01*
X904025Y-292910D01*
X899910Y-297025D01*
X894090Y-297025D01*
X889878Y-292812D01*
X889870Y-292807D01*
X889866Y-292800D01*
X889788Y-292753D01*
X889712Y-292702D01*
X889703Y-292701D01*
X889696Y-292696D01*
X889606Y-292683D01*
X889516Y-292666D01*
X889508Y-292668D01*
X889500Y-292666D01*
X889412Y-292689D01*
X889322Y-292709D01*
X889315Y-292713D01*
X889307Y-292716D01*
X889171Y-292812D01*
X869778Y-312205D01*
X867435Y-314549D01*
X790244Y-314549D01*
X787367Y-311671D01*
X787356Y-311664D01*
X787349Y-311654D01*
X787274Y-311609D01*
X787201Y-311561D01*
X787188Y-311559D01*
X787178Y-311552D01*
X787014Y-311525D01*
X783297Y-311525D01*
X779475Y-307703D01*
X779475Y-302297D01*
X783297Y-298475D01*
X788703Y-298475D01*
X792525Y-302297D01*
X792525Y-306014D01*
X792527Y-306026D01*
X792525Y-306038D01*
X792547Y-306123D01*
X792564Y-306208D01*
X792571Y-306219D01*
X792575Y-306231D01*
X792671Y-306367D01*
X793205Y-306901D01*
X793216Y-306908D01*
X793223Y-306918D01*
X793298Y-306963D01*
X793371Y-307011D01*
X793384Y-307013D01*
X793394Y-307020D01*
X793558Y-307047D01*
X864121Y-307047D01*
X864133Y-307045D01*
X864145Y-307047D01*
X864230Y-307025D01*
X864316Y-307008D01*
X864326Y-307001D01*
X864338Y-306997D01*
X864474Y-306901D01*
X894149Y-277225D01*
X950264Y-277225D01*
X950276Y-277223D01*
X950288Y-277225D01*
X950373Y-277203D01*
X950458Y-277186D01*
X950469Y-277179D01*
X950481Y-277175D01*
X950617Y-277079D01*
X972522Y-255173D01*
X987641Y-255173D01*
X988571Y-256103D01*
X988582Y-256110D01*
X988589Y-256120D01*
X988664Y-256165D01*
X988737Y-256213D01*
X988749Y-256215D01*
X988760Y-256222D01*
X988924Y-256249D01*
X1037317Y-256249D01*
X1037329Y-256247D01*
X1037341Y-256249D01*
X1037426Y-256227D01*
X1037511Y-256210D01*
X1037522Y-256203D01*
X1037534Y-256199D01*
X1037670Y-256103D01*
X1040297Y-253475D01*
X1042966Y-253475D01*
X1042970Y-253474D01*
X1042974Y-253475D01*
X1043067Y-253455D01*
X1043161Y-253436D01*
X1043164Y-253433D01*
X1043168Y-253432D01*
X1043246Y-253377D01*
X1043324Y-253323D01*
X1043327Y-253320D01*
X1043330Y-253317D01*
X1043380Y-253236D01*
X1043431Y-253156D01*
X1043432Y-253151D01*
X1043434Y-253148D01*
X1043449Y-253054D01*
X1043465Y-252959D01*
X1043464Y-252955D01*
X1043464Y-252951D01*
X1043441Y-252859D01*
X1043419Y-252766D01*
X1043416Y-252763D01*
X1043415Y-252759D01*
X1043319Y-252623D01*
X1017367Y-226671D01*
X1017356Y-226664D01*
X1017349Y-226654D01*
X1017274Y-226609D01*
X1017201Y-226561D01*
X1017188Y-226559D01*
X1017178Y-226552D01*
X1017014Y-226525D01*
X1013297Y-226525D01*
X1009475Y-222703D01*
X1009475Y-217297D01*
X1013297Y-213475D01*
X1018703Y-213475D01*
X1022525Y-217297D01*
X1022525Y-221014D01*
X1022527Y-221026D01*
X1022525Y-221038D01*
X1022547Y-221123D01*
X1022564Y-221208D01*
X1022571Y-221219D01*
X1022575Y-221231D01*
X1022671Y-221367D01*
X1047407Y-246103D01*
X1047418Y-246110D01*
X1047425Y-246120D01*
X1047500Y-246165D01*
X1047573Y-246213D01*
X1047586Y-246215D01*
X1047596Y-246222D01*
X1047760Y-246249D01*
X1052000Y-246249D01*
X1052008Y-246248D01*
X1052017Y-246249D01*
X1052105Y-246228D01*
X1052195Y-246210D01*
X1052202Y-246205D01*
X1052210Y-246203D01*
X1052283Y-246149D01*
X1052359Y-246097D01*
X1052363Y-246090D01*
X1052370Y-246085D01*
X1052417Y-246007D01*
X1052466Y-245930D01*
X1052467Y-245921D01*
X1052472Y-245914D01*
X1052499Y-245750D01*
X1052499Y-245550D01*
X1054550Y-243499D01*
X1067067Y-243499D01*
X1067079Y-243497D01*
X1067092Y-243499D01*
X1067176Y-243477D01*
X1067185Y-243475D01*
X1072703Y-243475D01*
X1076525Y-247297D01*
X1076525Y-252703D01*
X1074580Y-254647D01*
X1074576Y-254654D01*
X1074569Y-254659D01*
X1074521Y-254736D01*
X1074471Y-254813D01*
X1074469Y-254821D01*
X1074465Y-254828D01*
X1074451Y-254918D01*
X1074434Y-255008D01*
X1074436Y-255016D01*
X1074435Y-255025D01*
X1074457Y-255113D01*
X1074477Y-255202D01*
X1074482Y-255209D01*
X1074484Y-255217D01*
X1074580Y-255353D01*
X1076525Y-257297D01*
X1076525Y-262703D01*
X1072703Y-266525D01*
X1067209Y-266525D01*
X1067067Y-266501D01*
X1054550Y-266501D01*
X1052499Y-264450D01*
X1052499Y-255550D01*
X1052696Y-255353D01*
X1052701Y-255346D01*
X1052708Y-255341D01*
X1052756Y-255263D01*
X1052806Y-255187D01*
X1052808Y-255179D01*
X1052812Y-255172D01*
X1052826Y-255082D01*
X1052842Y-254992D01*
X1052841Y-254983D01*
X1052842Y-254975D01*
X1052819Y-254887D01*
X1052800Y-254798D01*
X1052795Y-254791D01*
X1052793Y-254783D01*
X1052696Y-254647D01*
X1052499Y-254450D01*
X1052499Y-254250D01*
X1052498Y-254242D01*
X1052499Y-254233D01*
X1052478Y-254145D01*
X1052460Y-254055D01*
X1052455Y-254048D01*
X1052453Y-254040D01*
X1052399Y-253967D01*
X1052347Y-253891D01*
X1052340Y-253887D01*
X1052335Y-253880D01*
X1052257Y-253833D01*
X1052180Y-253784D01*
X1052171Y-253783D01*
X1052164Y-253778D01*
X1052000Y-253751D01*
X1047183Y-253751D01*
X1047179Y-253752D01*
X1047175Y-253751D01*
X1047082Y-253771D01*
X1046988Y-253790D01*
X1046985Y-253793D01*
X1046981Y-253794D01*
X1046903Y-253849D01*
X1046825Y-253903D01*
X1046822Y-253906D01*
X1046819Y-253909D01*
X1046769Y-253990D01*
X1046718Y-254070D01*
X1046717Y-254075D01*
X1046715Y-254078D01*
X1046700Y-254172D01*
X1046684Y-254267D01*
X1046685Y-254271D01*
X1046685Y-254275D01*
X1046708Y-254367D01*
X1046730Y-254460D01*
X1046733Y-254463D01*
X1046734Y-254467D01*
X1046830Y-254603D01*
X1049525Y-257297D01*
X1049525Y-262703D01*
X1045703Y-266525D01*
X1040257Y-266525D01*
X1040211Y-266495D01*
X1040207Y-266494D01*
X1040204Y-266492D01*
X1040110Y-266476D01*
X1040016Y-266458D01*
X1040012Y-266459D01*
X1040007Y-266458D01*
X1039915Y-266480D01*
X1039822Y-266501D01*
X1039818Y-266503D01*
X1039814Y-266504D01*
X1039738Y-266560D01*
X1039660Y-266616D01*
X1039657Y-266620D01*
X1039654Y-266622D01*
X1039606Y-266703D01*
X1039555Y-266785D01*
X1039555Y-266790D01*
X1039552Y-266793D01*
X1039525Y-266957D01*
X1039525Y-270703D01*
X1035703Y-274525D01*
X1030297Y-274525D01*
X1028670Y-272897D01*
X1028659Y-272890D01*
X1028652Y-272880D01*
X1028577Y-272836D01*
X1028504Y-272787D01*
X1028491Y-272785D01*
X1028481Y-272778D01*
X1028317Y-272751D01*
X990260Y-272751D01*
X990256Y-272752D01*
X990252Y-272751D01*
X990159Y-272771D01*
X990065Y-272790D01*
X990062Y-272793D01*
X990058Y-272794D01*
X989980Y-272849D01*
X989902Y-272903D01*
X989899Y-272906D01*
X989896Y-272909D01*
X989846Y-272990D01*
X989795Y-273070D01*
X989794Y-273075D01*
X989792Y-273078D01*
X989777Y-273172D01*
X989761Y-273267D01*
X989762Y-273271D01*
X989762Y-273275D01*
X989785Y-273367D01*
X989807Y-273460D01*
X989810Y-273463D01*
X989811Y-273467D01*
X989907Y-273603D01*
X1007407Y-291103D01*
X1007418Y-291110D01*
X1007425Y-291120D01*
X1007500Y-291165D01*
X1007573Y-291213D01*
X1007586Y-291215D01*
X1007596Y-291222D01*
X1007760Y-291249D01*
X1149240Y-291249D01*
X1149252Y-291247D01*
X1149264Y-291249D01*
X1149349Y-291227D01*
X1149434Y-291210D01*
X1149445Y-291203D01*
X1149457Y-291199D01*
X1149593Y-291103D01*
X1160131Y-280565D01*
X1160136Y-280557D01*
X1160143Y-280553D01*
X1160190Y-280475D01*
X1160241Y-280399D01*
X1160242Y-280390D01*
X1160247Y-280383D01*
X1160261Y-280293D01*
X1160277Y-280203D01*
X1160275Y-280195D01*
X1160277Y-280187D01*
X1160254Y-280099D01*
X1160234Y-280009D01*
X1160230Y-280002D01*
X1160228Y-279994D01*
X1160131Y-279858D01*
X1157975Y-277703D01*
X1157975Y-272297D01*
X1161797Y-268475D01*
X1167203Y-268475D01*
X1171025Y-272297D01*
X1171025Y-277703D01*
X1168397Y-280330D01*
X1168390Y-280341D01*
X1168380Y-280348D01*
X1168336Y-280423D01*
X1168287Y-280496D01*
X1168285Y-280509D01*
X1168278Y-280519D01*
X1168251Y-280683D01*
X1168251Y-283054D01*
X1154907Y-296397D01*
X1154905Y-296401D01*
X1154902Y-296403D01*
X1154850Y-296483D01*
X1154798Y-296563D01*
X1154797Y-296567D01*
X1154795Y-296570D01*
X1154779Y-296664D01*
X1154761Y-296758D01*
X1154762Y-296762D01*
X1154761Y-296767D01*
X1154783Y-296858D01*
X1154804Y-296952D01*
X1154806Y-296956D01*
X1154807Y-296960D01*
X1154863Y-297036D01*
X1154919Y-297115D01*
X1154923Y-297117D01*
X1154925Y-297120D01*
X1155007Y-297169D01*
X1155089Y-297219D01*
X1155093Y-297219D01*
X1155096Y-297222D01*
X1155260Y-297249D01*
X1171317Y-297249D01*
X1171329Y-297247D01*
X1171341Y-297249D01*
X1171426Y-297227D01*
X1171511Y-297210D01*
X1171522Y-297203D01*
X1171534Y-297199D01*
X1171670Y-297103D01*
X1174297Y-294475D01*
X1179703Y-294475D01*
X1181449Y-296222D01*
X1181453Y-296224D01*
X1181455Y-296227D01*
X1181535Y-296278D01*
X1181615Y-296331D01*
X1181619Y-296332D01*
X1181622Y-296334D01*
X1181716Y-296350D01*
X1181810Y-296368D01*
X1181814Y-296367D01*
X1181819Y-296368D01*
X1181910Y-296346D01*
X1182004Y-296325D01*
X1182008Y-296323D01*
X1182012Y-296322D01*
X1182088Y-296266D01*
X1182167Y-296210D01*
X1182169Y-296206D01*
X1182172Y-296204D01*
X1182221Y-296122D01*
X1182271Y-296040D01*
X1182271Y-296036D01*
X1182274Y-296033D01*
X1182301Y-295869D01*
X1182301Y-257812D01*
X1182299Y-257800D01*
X1182301Y-257788D01*
X1182279Y-257703D01*
X1182262Y-257618D01*
X1182255Y-257607D01*
X1182251Y-257595D01*
X1182155Y-257459D01*
X1166367Y-241671D01*
X1166356Y-241664D01*
X1166349Y-241654D01*
X1166274Y-241609D01*
X1166201Y-241561D01*
X1166188Y-241559D01*
X1166178Y-241552D01*
X1166014Y-241525D01*
X1162297Y-241525D01*
X1158475Y-237703D01*
X1158475Y-232297D01*
X1162297Y-228475D01*
X1167703Y-228475D01*
X1171525Y-232297D01*
X1171525Y-236014D01*
X1171527Y-236026D01*
X1171525Y-236038D01*
X1171547Y-236123D01*
X1171564Y-236208D01*
X1171571Y-236219D01*
X1171575Y-236231D01*
X1171671Y-236367D01*
X1189803Y-254498D01*
X1189803Y-305475D01*
X1178475Y-316803D01*
X991998Y-316803D01*
G37*
%LPD*%
G36*
X322808Y-276248D02*
X322808Y-276248D01*
X322817Y-276249D01*
X322905Y-276228D01*
X322995Y-276210D01*
X323002Y-276205D01*
X323010Y-276203D01*
X323083Y-276149D01*
X323159Y-276097D01*
X323163Y-276090D01*
X323170Y-276085D01*
X323217Y-276007D01*
X323266Y-275930D01*
X323267Y-275921D01*
X323272Y-275914D01*
X323299Y-275750D01*
X323299Y-267499D01*
X351800Y-267499D01*
X351808Y-267498D01*
X351817Y-267499D01*
X351905Y-267478D01*
X351995Y-267460D01*
X352002Y-267455D01*
X352010Y-267453D01*
X352083Y-267399D01*
X352159Y-267347D01*
X352163Y-267340D01*
X352170Y-267335D01*
X352217Y-267257D01*
X352266Y-267180D01*
X352267Y-267171D01*
X352272Y-267164D01*
X352299Y-267000D01*
X352299Y-263999D01*
X465800Y-263999D01*
X465808Y-263998D01*
X465817Y-263999D01*
X465905Y-263978D01*
X465995Y-263960D01*
X466002Y-263955D01*
X466010Y-263953D01*
X466083Y-263899D01*
X466159Y-263847D01*
X466163Y-263840D01*
X466170Y-263835D01*
X466217Y-263757D01*
X466266Y-263680D01*
X466267Y-263671D01*
X466272Y-263664D01*
X466299Y-263500D01*
X466299Y-253309D01*
X467918Y-252499D01*
X479800Y-252499D01*
X479812Y-252497D01*
X479825Y-252499D01*
X479909Y-252477D01*
X479995Y-252460D01*
X480005Y-252453D01*
X480017Y-252449D01*
X480153Y-252353D01*
X483153Y-249353D01*
X483160Y-249342D01*
X483170Y-249335D01*
X483215Y-249260D01*
X483263Y-249187D01*
X483265Y-249175D01*
X483272Y-249164D01*
X483299Y-249000D01*
X483299Y-217000D01*
X483298Y-216992D01*
X483299Y-216983D01*
X483278Y-216895D01*
X483260Y-216805D01*
X483255Y-216798D01*
X483253Y-216790D01*
X483199Y-216717D01*
X483147Y-216641D01*
X483140Y-216637D01*
X483135Y-216630D01*
X483057Y-216583D01*
X482980Y-216534D01*
X482971Y-216533D01*
X482964Y-216528D01*
X482800Y-216501D01*
X310800Y-216501D01*
X310792Y-216502D01*
X310783Y-216501D01*
X310695Y-216522D01*
X310605Y-216540D01*
X310598Y-216545D01*
X310590Y-216547D01*
X310517Y-216601D01*
X310441Y-216653D01*
X310437Y-216660D01*
X310430Y-216665D01*
X310383Y-216743D01*
X310334Y-216820D01*
X310333Y-216829D01*
X310328Y-216836D01*
X310301Y-217000D01*
X310301Y-275750D01*
X310302Y-275758D01*
X310301Y-275767D01*
X310322Y-275855D01*
X310340Y-275945D01*
X310345Y-275952D01*
X310347Y-275960D01*
X310401Y-276033D01*
X310453Y-276109D01*
X310460Y-276113D01*
X310465Y-276120D01*
X310543Y-276167D01*
X310620Y-276216D01*
X310629Y-276217D01*
X310636Y-276222D01*
X310800Y-276249D01*
X322800Y-276249D01*
X322808Y-276248D01*
G37*
%LPC*%
G36*
X1125090Y-342025D02*
X1125090Y-342025D01*
X1121963Y-338897D01*
X1121952Y-338890D01*
X1121945Y-338880D01*
X1121870Y-338835D01*
X1121797Y-338787D01*
X1121784Y-338785D01*
X1121774Y-338778D01*
X1121609Y-338751D01*
X952446Y-338751D01*
X948867Y-335171D01*
X948856Y-335164D01*
X948849Y-335154D01*
X948774Y-335109D01*
X948701Y-335061D01*
X948688Y-335059D01*
X948678Y-335052D01*
X948514Y-335025D01*
X944090Y-335025D01*
X939975Y-330910D01*
X939975Y-325090D01*
X944090Y-320975D01*
X949910Y-320975D01*
X954025Y-325090D01*
X954025Y-329514D01*
X954027Y-329526D01*
X954025Y-329538D01*
X954047Y-329623D01*
X954064Y-329708D01*
X954071Y-329719D01*
X954075Y-329731D01*
X954171Y-329867D01*
X955407Y-331103D01*
X955418Y-331110D01*
X955425Y-331120D01*
X955500Y-331165D01*
X955573Y-331213D01*
X955586Y-331215D01*
X955596Y-331222D01*
X955760Y-331249D01*
X1121609Y-331249D01*
X1121622Y-331247D01*
X1121634Y-331249D01*
X1121719Y-331227D01*
X1121804Y-331210D01*
X1121815Y-331203D01*
X1121827Y-331199D01*
X1121963Y-331103D01*
X1125090Y-327975D01*
X1130910Y-327975D01*
X1135025Y-332090D01*
X1135025Y-337910D01*
X1130910Y-342025D01*
X1125090Y-342025D01*
G37*
%LPD*%
%LPC*%
G36*
X487297Y-169525D02*
X487297Y-169525D01*
X483475Y-165703D01*
X483475Y-160297D01*
X487297Y-156475D01*
X492703Y-156475D01*
X495330Y-159103D01*
X495341Y-159110D01*
X495348Y-159120D01*
X495423Y-159165D01*
X495496Y-159213D01*
X495509Y-159215D01*
X495519Y-159222D01*
X495683Y-159249D01*
X530317Y-159249D01*
X530329Y-159247D01*
X530341Y-159249D01*
X530426Y-159227D01*
X530511Y-159210D01*
X530522Y-159203D01*
X530534Y-159199D01*
X530670Y-159103D01*
X533297Y-156475D01*
X538703Y-156475D01*
X542525Y-160297D01*
X542525Y-165703D01*
X538703Y-169525D01*
X533297Y-169525D01*
X530670Y-166897D01*
X530659Y-166890D01*
X530652Y-166880D01*
X530577Y-166835D01*
X530504Y-166787D01*
X530491Y-166785D01*
X530481Y-166778D01*
X530317Y-166751D01*
X495683Y-166751D01*
X495671Y-166753D01*
X495659Y-166751D01*
X495574Y-166773D01*
X495489Y-166790D01*
X495478Y-166797D01*
X495466Y-166801D01*
X495330Y-166897D01*
X492703Y-169525D01*
X487297Y-169525D01*
G37*
%LPD*%
G36*
X-159497Y-356949D02*
X-159497Y-356949D01*
X-156900Y-356949D01*
X-156885Y-356938D01*
X-156875Y-356942D01*
X-135275Y-344042D01*
X-135261Y-344008D01*
X-135251Y-344000D01*
X-135251Y-343500D01*
X-135273Y-343470D01*
X-135275Y-343458D01*
X-141175Y-339958D01*
X-141193Y-339960D01*
X-141200Y-339951D01*
X-141500Y-339951D01*
X-141518Y-339964D01*
X-141530Y-339961D01*
X-154308Y-349844D01*
X-154718Y-349680D01*
X-145463Y-338832D01*
X-145462Y-338817D01*
X-145453Y-338810D01*
X-145461Y-338800D01*
X-145452Y-338790D01*
X-145552Y-338290D01*
X-145579Y-338266D01*
X-145582Y-338254D01*
X-150282Y-336454D01*
X-150295Y-336458D01*
X-150300Y-336451D01*
X-150800Y-336451D01*
X-150825Y-336470D01*
X-150839Y-336470D01*
X-159505Y-347626D01*
X-159641Y-347490D01*
X-154155Y-335721D01*
X-154158Y-335709D01*
X-154156Y-335708D01*
X-154159Y-335704D01*
X-154163Y-335685D01*
X-154159Y-335673D01*
X-154359Y-335373D01*
X-154392Y-335361D01*
X-154400Y-335351D01*
X-158600Y-335351D01*
X-158621Y-335367D01*
X-158635Y-335365D01*
X-158835Y-335565D01*
X-158836Y-335577D01*
X-158844Y-335579D01*
X-163929Y-346245D01*
X-164440Y-346160D01*
X-162252Y-336911D01*
X-162267Y-336878D01*
X-162265Y-336865D01*
X-162565Y-336565D01*
X-162616Y-336558D01*
X-162621Y-336556D01*
X-168521Y-339356D01*
X-168537Y-339386D01*
X-168549Y-339393D01*
X-169642Y-346551D01*
X-170254Y-346551D01*
X-170651Y-341196D01*
X-170686Y-341156D01*
X-170688Y-341152D01*
X-171088Y-341052D01*
X-171112Y-341063D01*
X-171114Y-341063D01*
X-171116Y-341064D01*
X-171119Y-341065D01*
X-171132Y-341062D01*
X-173032Y-342662D01*
X-173038Y-342692D01*
X-173049Y-342700D01*
X-173049Y-358300D01*
X-173013Y-358347D01*
X-173003Y-358340D01*
X-172995Y-358349D01*
X-159497Y-356949D01*
G37*
G36*
X-157493Y-380948D02*
X-157493Y-380948D01*
X-157493Y-380949D01*
X-153493Y-380349D01*
X-153473Y-380329D01*
X-153460Y-380328D01*
X-149573Y-374748D01*
X-146297Y-374549D01*
X-146267Y-374523D01*
X-146255Y-374520D01*
X-139655Y-360020D01*
X-139659Y-360005D01*
X-139652Y-359991D01*
X-139663Y-359985D01*
X-139668Y-359962D01*
X-139696Y-359969D01*
X-139722Y-359956D01*
X-144808Y-362449D01*
X-145482Y-362353D01*
X-150772Y-358759D01*
X-150792Y-358760D01*
X-150799Y-358751D01*
X-158099Y-358551D01*
X-158103Y-358554D01*
X-158105Y-358551D01*
X-173005Y-360151D01*
X-173049Y-360192D01*
X-173044Y-360197D01*
X-173049Y-360201D01*
X-172849Y-377501D01*
X-172813Y-377548D01*
X-172802Y-377539D01*
X-172792Y-377549D01*
X-168492Y-376849D01*
X-168481Y-376837D01*
X-168471Y-376840D01*
X-159985Y-370550D01*
X-158002Y-370649D01*
X-157953Y-370616D01*
X-157954Y-370615D01*
X-157953Y-370614D01*
X-157818Y-370175D01*
X-157621Y-369535D01*
X-157424Y-368895D01*
X-157227Y-368254D01*
X-157030Y-367614D01*
X-156833Y-366974D01*
X-156636Y-366334D01*
X-156439Y-365693D01*
X-156242Y-365053D01*
X-156045Y-364413D01*
X-155958Y-364130D01*
X-152587Y-361651D01*
X-151820Y-361747D01*
X-148899Y-364181D01*
X-149698Y-364448D01*
X-152182Y-363454D01*
X-152216Y-363464D01*
X-152228Y-363460D01*
X-154628Y-365160D01*
X-154635Y-365180D01*
X-154647Y-365184D01*
X-157543Y-373873D01*
X-159634Y-375864D01*
X-159642Y-375913D01*
X-159645Y-375919D01*
X-157545Y-380919D01*
X-157494Y-380949D01*
X-157493Y-380948D01*
G37*
%LPC*%
G36*
X283799Y-315541D02*
X283799Y-315541D01*
X283799Y-303999D01*
X305341Y-303999D01*
X305341Y-313334D01*
X305168Y-313981D01*
X304833Y-314560D01*
X304360Y-315033D01*
X303781Y-315368D01*
X303134Y-315541D01*
X283799Y-315541D01*
G37*
%LPD*%
%LPC*%
G36*
X261819Y-315368D02*
X261819Y-315368D01*
X261240Y-315033D01*
X260767Y-314560D01*
X260432Y-313981D01*
X260259Y-313334D01*
X260259Y-303999D01*
X281801Y-303999D01*
X281801Y-315541D01*
X262466Y-315541D01*
X261819Y-315368D01*
G37*
%LPD*%
%LPC*%
G36*
X283799Y-302001D02*
X283799Y-302001D01*
X283799Y-290459D01*
X303134Y-290459D01*
X303781Y-290632D01*
X304360Y-290967D01*
X304833Y-291440D01*
X305168Y-292019D01*
X305341Y-292666D01*
X305341Y-302001D01*
X283799Y-302001D01*
G37*
%LPD*%
%LPC*%
G36*
X260259Y-302001D02*
X260259Y-302001D01*
X260259Y-292666D01*
X260432Y-292019D01*
X260767Y-291440D01*
X261240Y-290967D01*
X261819Y-290632D01*
X262466Y-290459D01*
X281801Y-290459D01*
X281801Y-302001D01*
X260259Y-302001D01*
G37*
%LPD*%
G36*
X619220Y-276498D02*
X619220Y-276498D01*
X619224Y-276499D01*
X619317Y-276479D01*
X619410Y-276460D01*
X619414Y-276457D01*
X619418Y-276456D01*
X619496Y-276401D01*
X619574Y-276347D01*
X619577Y-276344D01*
X619580Y-276341D01*
X619630Y-276260D01*
X619681Y-276180D01*
X619682Y-276175D01*
X619684Y-276172D01*
X619699Y-276078D01*
X619715Y-275983D01*
X619714Y-275979D01*
X619714Y-275975D01*
X619691Y-275883D01*
X619669Y-275790D01*
X619666Y-275787D01*
X619665Y-275783D01*
X619569Y-275647D01*
X593165Y-249243D01*
X593154Y-249236D01*
X593147Y-249226D01*
X593072Y-249181D01*
X592999Y-249133D01*
X592986Y-249131D01*
X592976Y-249124D01*
X592812Y-249097D01*
X589250Y-249097D01*
X589242Y-249098D01*
X589233Y-249097D01*
X589145Y-249118D01*
X589055Y-249136D01*
X589048Y-249141D01*
X589040Y-249143D01*
X588967Y-249197D01*
X588891Y-249249D01*
X588887Y-249256D01*
X588880Y-249261D01*
X588833Y-249339D01*
X588784Y-249416D01*
X588783Y-249425D01*
X588778Y-249432D01*
X588751Y-249596D01*
X588751Y-252240D01*
X588753Y-252252D01*
X588751Y-252264D01*
X588773Y-252349D01*
X588790Y-252434D01*
X588797Y-252445D01*
X588801Y-252457D01*
X588897Y-252593D01*
X612657Y-276353D01*
X612668Y-276360D01*
X612675Y-276370D01*
X612750Y-276415D01*
X612823Y-276463D01*
X612836Y-276465D01*
X612846Y-276472D01*
X613010Y-276499D01*
X619216Y-276499D01*
X619220Y-276498D01*
G37*
%LPC*%
G36*
X768707Y-361501D02*
X768707Y-361501D01*
X766318Y-360511D01*
X764489Y-358682D01*
X763499Y-356293D01*
X763499Y-353707D01*
X764489Y-351318D01*
X766318Y-349489D01*
X768707Y-348499D01*
X771293Y-348499D01*
X773682Y-349489D01*
X775511Y-351318D01*
X776501Y-353707D01*
X776501Y-356293D01*
X775511Y-358682D01*
X773682Y-360511D01*
X771293Y-361501D01*
X768707Y-361501D01*
G37*
%LPD*%
%LPC*%
G36*
X738707Y-361501D02*
X738707Y-361501D01*
X736318Y-360511D01*
X734489Y-358682D01*
X733499Y-356293D01*
X733499Y-353707D01*
X734489Y-351318D01*
X736318Y-349489D01*
X738707Y-348499D01*
X741293Y-348499D01*
X743682Y-349489D01*
X745511Y-351318D01*
X746501Y-353707D01*
X746501Y-356293D01*
X745511Y-358682D01*
X743682Y-360511D01*
X741293Y-361501D01*
X738707Y-361501D01*
G37*
%LPD*%
G36*
X1070064Y-253990D02*
X1070064Y-253990D01*
X1070128Y-253991D01*
X1070203Y-253970D01*
X1070279Y-253959D01*
X1070338Y-253933D01*
X1070400Y-253916D01*
X1070466Y-253875D01*
X1070536Y-253843D01*
X1070585Y-253801D01*
X1070640Y-253768D01*
X1070692Y-253710D01*
X1070750Y-253660D01*
X1070786Y-253606D01*
X1070829Y-253558D01*
X1070862Y-253489D01*
X1070905Y-253424D01*
X1070924Y-253362D01*
X1070952Y-253305D01*
X1070963Y-253235D01*
X1070987Y-253154D01*
X1070988Y-253069D01*
X1070999Y-253000D01*
X1070999Y-247000D01*
X1070990Y-246937D01*
X1070991Y-246877D01*
X1070991Y-246876D01*
X1070991Y-246872D01*
X1070970Y-246797D01*
X1070959Y-246721D01*
X1070933Y-246662D01*
X1070916Y-246600D01*
X1070875Y-246534D01*
X1070843Y-246464D01*
X1070801Y-246415D01*
X1070768Y-246360D01*
X1070710Y-246308D01*
X1070660Y-246250D01*
X1070606Y-246214D01*
X1070558Y-246171D01*
X1070489Y-246138D01*
X1070424Y-246095D01*
X1070362Y-246076D01*
X1070305Y-246048D01*
X1070235Y-246037D01*
X1070154Y-246013D01*
X1070069Y-246012D01*
X1070000Y-246001D01*
X1056000Y-246001D01*
X1055936Y-246010D01*
X1055872Y-246009D01*
X1055797Y-246030D01*
X1055721Y-246041D01*
X1055662Y-246067D01*
X1055600Y-246084D01*
X1055534Y-246125D01*
X1055464Y-246157D01*
X1055415Y-246199D01*
X1055360Y-246232D01*
X1055308Y-246290D01*
X1055250Y-246340D01*
X1055214Y-246394D01*
X1055171Y-246442D01*
X1055138Y-246511D01*
X1055095Y-246576D01*
X1055076Y-246638D01*
X1055048Y-246695D01*
X1055037Y-246765D01*
X1055013Y-246846D01*
X1055012Y-246931D01*
X1055001Y-247000D01*
X1055001Y-253000D01*
X1055010Y-253064D01*
X1055009Y-253128D01*
X1055030Y-253203D01*
X1055041Y-253279D01*
X1055067Y-253338D01*
X1055084Y-253400D01*
X1055125Y-253466D01*
X1055157Y-253536D01*
X1055199Y-253585D01*
X1055232Y-253640D01*
X1055290Y-253692D01*
X1055340Y-253750D01*
X1055394Y-253786D01*
X1055442Y-253829D01*
X1055511Y-253862D01*
X1055576Y-253905D01*
X1055638Y-253924D01*
X1055695Y-253952D01*
X1055765Y-253963D01*
X1055846Y-253987D01*
X1055931Y-253988D01*
X1056000Y-253999D01*
X1070000Y-253999D01*
X1070064Y-253990D01*
G37*
G36*
X1070064Y-263990D02*
X1070064Y-263990D01*
X1070128Y-263991D01*
X1070203Y-263970D01*
X1070279Y-263959D01*
X1070338Y-263933D01*
X1070400Y-263916D01*
X1070466Y-263875D01*
X1070536Y-263843D01*
X1070585Y-263801D01*
X1070640Y-263768D01*
X1070692Y-263710D01*
X1070750Y-263660D01*
X1070786Y-263606D01*
X1070829Y-263558D01*
X1070862Y-263489D01*
X1070905Y-263424D01*
X1070924Y-263362D01*
X1070952Y-263305D01*
X1070963Y-263235D01*
X1070987Y-263154D01*
X1070988Y-263069D01*
X1070999Y-263000D01*
X1070999Y-257000D01*
X1070990Y-256937D01*
X1070991Y-256877D01*
X1070991Y-256876D01*
X1070991Y-256872D01*
X1070970Y-256797D01*
X1070959Y-256721D01*
X1070933Y-256662D01*
X1070916Y-256600D01*
X1070875Y-256534D01*
X1070843Y-256464D01*
X1070801Y-256415D01*
X1070768Y-256360D01*
X1070710Y-256308D01*
X1070660Y-256250D01*
X1070606Y-256214D01*
X1070558Y-256171D01*
X1070489Y-256138D01*
X1070424Y-256095D01*
X1070362Y-256076D01*
X1070305Y-256048D01*
X1070235Y-256037D01*
X1070154Y-256013D01*
X1070069Y-256012D01*
X1070000Y-256001D01*
X1056000Y-256001D01*
X1055936Y-256010D01*
X1055872Y-256009D01*
X1055797Y-256030D01*
X1055721Y-256041D01*
X1055662Y-256067D01*
X1055600Y-256084D01*
X1055534Y-256125D01*
X1055464Y-256157D01*
X1055415Y-256199D01*
X1055360Y-256232D01*
X1055308Y-256290D01*
X1055250Y-256340D01*
X1055214Y-256394D01*
X1055171Y-256442D01*
X1055138Y-256511D01*
X1055095Y-256576D01*
X1055076Y-256638D01*
X1055048Y-256695D01*
X1055037Y-256765D01*
X1055013Y-256846D01*
X1055012Y-256931D01*
X1055001Y-257000D01*
X1055001Y-263000D01*
X1055010Y-263064D01*
X1055009Y-263128D01*
X1055030Y-263203D01*
X1055041Y-263279D01*
X1055067Y-263338D01*
X1055084Y-263400D01*
X1055125Y-263466D01*
X1055157Y-263536D01*
X1055199Y-263585D01*
X1055232Y-263640D01*
X1055290Y-263692D01*
X1055340Y-263750D01*
X1055394Y-263786D01*
X1055442Y-263829D01*
X1055511Y-263862D01*
X1055576Y-263905D01*
X1055638Y-263924D01*
X1055695Y-263952D01*
X1055765Y-263963D01*
X1055846Y-263987D01*
X1055931Y-263988D01*
X1056000Y-263999D01*
X1070000Y-263999D01*
X1070064Y-263990D01*
G37*
G36*
X-140677Y-358344D02*
X-140677Y-358344D01*
X-140674Y-358337D01*
X-140667Y-358337D01*
X-140668Y-358324D01*
X-140652Y-358290D01*
X-140672Y-358280D01*
X-140674Y-358258D01*
X-147174Y-354158D01*
X-147189Y-354160D01*
X-147194Y-354151D01*
X-147994Y-354051D01*
X-148013Y-354062D01*
X-148024Y-354057D01*
X-152824Y-356757D01*
X-152832Y-356774D01*
X-152847Y-356785D01*
X-152840Y-356794D01*
X-152848Y-356812D01*
X-152820Y-356824D01*
X-152802Y-356849D01*
X-150416Y-356949D01*
X-145128Y-360640D01*
X-145088Y-360639D01*
X-145077Y-360644D01*
X-140677Y-358344D01*
G37*
G36*
X-139775Y-369643D02*
X-139775Y-369643D01*
X-139761Y-369608D01*
X-139751Y-369601D01*
X-139651Y-364301D01*
X-139664Y-364283D01*
X-139668Y-364262D01*
X-139677Y-364264D01*
X-139686Y-364253D01*
X-139698Y-364262D01*
X-139700Y-364259D01*
X-139704Y-364259D01*
X-139725Y-364275D01*
X-139745Y-364280D01*
X-142945Y-371380D01*
X-142941Y-371397D01*
X-142948Y-371412D01*
X-142936Y-371417D01*
X-142932Y-371438D01*
X-142903Y-371431D01*
X-142875Y-371443D01*
X-139775Y-369643D01*
G37*
%LPC*%
G36*
X-150046Y-372298D02*
X-150046Y-372298D01*
X-148963Y-369740D01*
X-146913Y-369056D01*
X-146558Y-369412D01*
X-147636Y-372157D01*
X-149873Y-372644D01*
X-150046Y-372298D01*
G37*
%LPD*%
%LPC*%
G36*
X282801Y-302999D02*
X282801Y-302999D01*
X282801Y-303001D01*
X282799Y-303001D01*
X282799Y-302999D01*
X282801Y-302999D01*
G37*
%LPD*%
D10*
X285800Y-233000D03*
X282800Y-303000D03*
D11*
X870380Y-328000D03*
X885620Y-328000D03*
D12*
X878000Y-328000D03*
D11*
X872620Y-229000D03*
X857380Y-229000D03*
D12*
X865000Y-229000D03*
D13*
X1177000Y-301000D03*
X996000Y-303000D03*
D14*
X998000Y-301000D02*
X1177000Y-301000D01*
D13*
X-140000Y-94000D03*
D14*
X-125000Y-79000D02*
X171000Y-79000D01*
X-125000Y-79000D02*
X-140000Y-94000D01*
X1074000Y-113000D02*
X1165000Y-113000D01*
D13*
X1165000Y-113000D03*
D14*
X998000Y-301000D02*
X996000Y-303000D01*
X1074000Y-113000D02*
X1037900Y-76900D01*
X173100Y-76900D02*
X171000Y-79000D01*
X173100Y-76900D02*
X1037900Y-76900D01*
D15*
X947000Y-328000D03*
X1128000Y-335000D03*
D14*
X954000Y-335000D02*
X947000Y-328000D01*
X954000Y-335000D02*
X1128000Y-335000D01*
D13*
X973000Y-290500D03*
X1165000Y-235000D03*
D14*
X-110500Y-117000D02*
X-140000Y-117000D01*
D13*
X-140000Y-117000D03*
X1165000Y-131000D03*
D14*
X172000Y-84000D02*
X-77500Y-84000D01*
X-110500Y-117000D01*
X1152000Y-118000D02*
X1165000Y-131000D01*
X1165000Y-235000D02*
X1186052Y-256052D01*
X1186052Y-303921D01*
X993552Y-313052D02*
X973000Y-292500D01*
X973000Y-290500D01*
X1176921Y-313052D02*
X1186052Y-303921D01*
X1176921Y-313052D02*
X993552Y-313052D01*
X1072000Y-118000D02*
X1152000Y-118000D01*
X1072000Y-118000D02*
X1034924Y-80924D01*
X175076Y-80924D02*
X172000Y-84000D01*
X175076Y-80924D02*
X1034924Y-80924D01*
D13*
X1070000Y-250000D03*
X835000Y-217746D03*
D14*
X846254Y-229000D02*
X857380Y-229000D01*
X846254Y-229000D02*
X835000Y-217746D01*
X1046000Y-250000D02*
X1070000Y-250000D01*
X1046000Y-250000D02*
X1016000Y-220000D01*
D13*
X1016000Y-220000D03*
X490000Y-163000D03*
D14*
X536000Y-163000D01*
D13*
X536000Y-163000D03*
X223000Y-321000D03*
D14*
X223000Y-333000D02*
X247000Y-357000D01*
X223000Y-333000D02*
X223000Y-321000D01*
X247000Y-357000D02*
X573000Y-357000D01*
X574000Y-356000D01*
D13*
X574000Y-356000D03*
D14*
X571921Y-206052D02*
X572501Y-205472D01*
X571921Y-206052D02*
X71948Y-206052D01*
X937472Y-205472D02*
X943000Y-211000D01*
D13*
X943000Y-211000D03*
D14*
X937472Y-205472D02*
X572501Y-205472D01*
X-24000Y-302000D02*
X-24000Y-309000D01*
D13*
X-24000Y-309000D03*
D14*
X-24000Y-302000D02*
X71948Y-206052D01*
D13*
X-23000Y-169500D03*
D14*
X-23000Y-133500D01*
X1031000Y-99000D02*
X1031000Y-90000D01*
D13*
X1031000Y-99000D03*
D14*
X1031000Y-90000D02*
X1029972Y-88972D01*
X17476Y-93024D02*
X-23000Y-133500D01*
X17476Y-93024D02*
X174667Y-93024D01*
X178719Y-88972D01*
X1029972Y-88972D01*
X864000Y-268000D02*
X856000Y-268000D01*
X864000Y-268000D02*
X868000Y-264000D01*
D13*
X935000Y-233000D03*
X636748Y-293000D03*
D14*
X684000Y-293000D01*
X692000Y-285000D01*
X904000Y-264000D02*
X935000Y-233000D01*
X904000Y-264000D02*
X868000Y-264000D01*
X856000Y-268000D02*
X839000Y-285000D01*
X692000Y-285000D01*
D13*
X825000Y-256000D03*
X644000Y-283000D03*
D14*
X688000Y-283000D02*
X691000Y-280000D01*
X688000Y-283000D02*
X644000Y-283000D01*
X825000Y-271000D02*
X825000Y-256000D01*
X825000Y-271000D02*
X816000Y-280000D01*
X691000Y-280000D01*
X897000Y-290000D02*
X902000Y-285000D01*
X173000Y-89000D02*
X-48000Y-89000D01*
X-51000Y-92000D01*
D15*
X897000Y-290000D03*
D13*
X-51000Y-92000D03*
D14*
X1073000Y-126000D02*
X1090000Y-126000D01*
D13*
X1090000Y-126000D03*
D14*
X984421Y-262948D02*
X976052Y-262948D01*
X984421Y-262948D02*
X990473Y-269000D01*
X954000Y-285000D02*
X902000Y-285000D01*
X954000Y-285000D02*
X976052Y-262948D01*
X177052Y-84948D02*
X173000Y-89000D01*
X177052Y-84948D02*
X1031948Y-84948D01*
X1073000Y-126000D01*
X1032000Y-269000D02*
X990473Y-269000D01*
X1032000Y-269000D02*
X1033000Y-268000D01*
D13*
X1033000Y-268000D03*
X320000Y-345000D03*
X335000Y-335000D03*
X350000Y-345000D03*
X350000Y-320000D03*
X365000Y-335000D03*
X618000Y-315000D03*
X618000Y-296000D03*
D14*
X580000Y-258000D01*
X580000Y-226000D01*
D13*
X580000Y-226000D03*
X380000Y-320000D03*
X380000Y-345000D03*
X-92000Y-66000D03*
D14*
X1037000Y-69000D02*
X1071000Y-103000D01*
X1082000Y-103000D01*
D13*
X1082000Y-103000D03*
D14*
X-89000Y-69000D02*
X-92000Y-66000D01*
X-89000Y-69000D02*
X1037000Y-69000D01*
D13*
X958354Y-233646D03*
D14*
X937921Y-225948D02*
X914361Y-225948D01*
X818361Y-246948D02*
X790361Y-274948D01*
X893361Y-246948D02*
X914361Y-225948D01*
X893361Y-246948D02*
X818361Y-246948D01*
X937921Y-225948D02*
X945619Y-233646D01*
X958354Y-233646D01*
X790361Y-274948D02*
X624174Y-274948D01*
D13*
X591798Y-242572D03*
D14*
X624174Y-274948D01*
D13*
X980500Y-271000D03*
X1164500Y-275000D03*
D14*
X-22500Y-190500D02*
X-104000Y-190500D01*
D13*
X-140000Y-226500D03*
D14*
X1164500Y-275000D02*
X1164500Y-281500D01*
X1151000Y-295000D01*
D13*
X973000Y-227000D03*
D14*
X-104000Y-190500D02*
X-140000Y-226500D01*
X1006000Y-295000D02*
X1151000Y-295000D01*
X1006000Y-295000D02*
X983000Y-272000D01*
X981000Y-272000D01*
X980500Y-271000D01*
X973000Y-227000D02*
X883948Y-137948D01*
X30052Y-137948D01*
X-22500Y-190500D01*
X338800Y-295000D02*
X348800Y-305000D01*
X338800Y-295000D02*
X338800Y-280000D01*
X273800Y-280000D01*
D13*
X348800Y-305000D03*
X273800Y-280000D03*
X335000Y-235000D03*
X343000Y-225000D03*
X375000Y-240000D03*
X405000Y-240000D03*
X360000Y-255000D03*
X390000Y-255000D03*
X420000Y-255000D03*
X435000Y-240000D03*
X390000Y-225000D03*
X420000Y-225000D03*
X360000Y-225000D03*
X345100Y-257000D03*
X455000Y-225000D03*
X455000Y-255000D03*
X484000Y-277000D03*
D14*
X526545Y-277000D02*
X535295Y-285750D01*
X526545Y-277000D02*
X484000Y-277000D01*
D13*
X535295Y-285750D03*
D14*
X582250Y-285750D01*
X603500Y-307000D01*
X739027Y-307000D01*
X760027Y-328000D02*
X870380Y-328000D01*
X760027Y-328000D02*
X739027Y-307000D01*
D13*
X285000Y-325000D03*
X296000Y-342000D03*
X281000Y-342000D03*
X266000Y-342000D03*
X270000Y-325000D03*
X301000Y-304000D03*
X251000Y-342000D03*
X251000Y-326000D03*
X251000Y-306000D03*
X271000Y-300000D03*
X922000Y-273000D03*
X910000Y-144000D03*
X927000Y-154000D03*
X761000Y-261000D03*
X1001000Y-245000D03*
X865000Y-146000D03*
X505000Y-235000D03*
X570000Y-260000D03*
X550000Y-260000D03*
X525000Y-260000D03*
X349000Y-289000D03*
X369000Y-289000D03*
X389000Y-289000D03*
X379000Y-277000D03*
X379000Y-302000D03*
X400000Y-302000D03*
X400000Y-277000D03*
X420000Y-277000D03*
X440000Y-277000D03*
X420000Y-302000D03*
X440000Y-302000D03*
X409000Y-289000D03*
X429000Y-289000D03*
X454000Y-289000D03*
X884000Y-154000D03*
X285000Y-263000D03*
X260000Y-267000D03*
D16*
X0Y0D03*
X1025000Y0D03*
X1025000Y-360000D03*
X0Y-360000D03*
D13*
X1070000Y-270000D03*
X375000Y-155000D03*
X395000Y-145000D03*
X415000Y-155000D03*
X435000Y-145000D03*
X455000Y-155000D03*
X475000Y-145000D03*
X545000Y-155000D03*
X565000Y-145000D03*
X585000Y-155000D03*
X605000Y-145000D03*
X625000Y-155000D03*
X645000Y-145000D03*
X549135Y-245056D03*
X715000Y-327000D03*
X699000Y-338000D03*
X716000Y-355000D03*
X871000Y-287000D03*
X803000Y-300000D03*
X768000Y-213000D03*
X985000Y-233000D03*
D17*
X977293Y-233000D02*
X976015Y-234278D01*
X977293Y-233000D02*
X985000Y-233000D01*
X968919Y-234278D02*
X961263Y-226622D01*
X947622Y-226622D02*
X931000Y-210000D01*
X947622Y-226622D02*
X961263Y-226622D01*
X931000Y-210000D02*
X771000Y-210000D01*
X768000Y-213000D01*
X968919Y-234278D02*
X976015Y-234278D01*
D13*
X588000Y-233000D03*
X695000Y-296000D03*
D14*
X686691Y-296000D01*
X588000Y-233000D02*
X585000Y-236000D01*
X682639Y-300052D02*
X686691Y-296000D01*
X620816Y-289202D02*
X620202Y-289202D01*
X585000Y-254000D01*
X620816Y-289202D02*
X631666Y-300052D01*
X585000Y-254000D02*
X585000Y-236000D01*
X631666Y-300052D02*
X682639Y-300052D01*
D13*
X1070000Y-260000D03*
X1043000Y-260000D03*
D14*
X987164Y-260000D01*
X986088Y-258924D01*
X974076Y-258924D01*
X952024Y-280976D02*
X895703Y-280976D01*
X865881Y-310798D01*
X952024Y-280976D02*
X974076Y-258924D01*
X791798Y-310798D02*
X786000Y-305000D01*
D13*
X786000Y-305000D03*
D14*
X791798Y-310798D02*
X865881Y-310798D01*
X885620Y-328000D02*
X917000Y-328000D01*
D13*
X917000Y-328000D03*
X875000Y-238000D03*
D14*
X872620Y-235620D01*
X872620Y-229000D01*
D18*
X285800Y-233000D03*
X273800Y-233000D03*
M02*
