M48
;GenerationSoftware,Autodesk,EAGLE,9.6.1*%
;CreationDate,2020-12-04T22:12:08Z*%
FMAT,2
ICI,OFF
METRIC,TZ,000.000
T4C0.500
T3C0.600
T2C0.800
T1C2.000
%
G90
M71
T1
X0Y0
X102500Y0
X102500Y-36000
X0Y-36000
T2
X77000Y-35500
X74000Y-35500
T3
X94700Y-32800
X112800Y-33500
X89700Y-29000
X28580Y-23300
X27380Y-23300
T4
X116500Y-13100
X107000Y-25000
X83500Y-21775
X101600Y-22000
X49000Y-16300
X53600Y-16300
X22300Y-32100
X57400Y-35600
X-2400Y-30900
X-2300Y-16950
X103100Y-9900
X93500Y-23300
X63675Y-29300
X82500Y-25600
X64400Y-28300
X-5100Y-9200
X109000Y-12600
X103300Y-26800
X32000Y-34500
X33500Y-33500
X35000Y-34500
X35000Y-32000
X36500Y-33500
X61800Y-31500
X61800Y-29600
X58000Y-22600
X38000Y-32000
X38000Y-34500
X-9200Y-6600
X108200Y-10300
X95835Y-23365
X59180Y-24257
X98050Y-27100
X116450Y-27500
X-14000Y-22650
X97300Y-22700
X34880Y-30500
X27380Y-28000
X33500Y-23500
X34300Y-22500
X37500Y-24000
X40500Y-24000
X36000Y-25500
X39000Y-25500
X42000Y-25500
X43500Y-24000
X39000Y-22500
X42000Y-22500
X36000Y-22500
X34510Y-25700
X45500Y-22500
X45500Y-25500
X48400Y-27700
X53529Y-28575
X28500Y-32500
X29600Y-34200
X28100Y-34200
X26600Y-34200
X94300Y-21100
X30100Y-30400
X25100Y-34200
X25100Y-32600
X25100Y-30600
X27100Y-30000
X92200Y-27300
X91000Y-14400
X92700Y-15400
X76100Y-26100
X100100Y-24500
X86500Y-14600
X50500Y-23500
X57000Y-26000
X55000Y-26000
X52500Y-26000
X34900Y-28900
X36900Y-28900
X38900Y-28900
X37900Y-27700
X37900Y-30200
X40000Y-30200
X40000Y-27700
X42000Y-27700
X44000Y-27700
X42000Y-30200
X44000Y-30200
X40900Y-28900
X42900Y-28900
X45400Y-28900
X88400Y-15400
X28500Y-26300
X26000Y-26700
X117700Y-30100
X99600Y-30300
X-14000Y-9400
X116500Y-11300
X107000Y-27000
X37500Y-15500
X39500Y-14500
X41500Y-15500
X43500Y-14500
X45500Y-15500
X47500Y-14500
X54500Y-15500
X56500Y-14500
X58500Y-15500
X60500Y-14500
X62500Y-15500
X64500Y-14500
X54913Y-24506
X27000Y-32500
X69900Y-33800
X71600Y-35500
X87100Y-28700
X80300Y-30000
X76800Y-21300
X98500Y-23300
X58800Y-23300
X69500Y-29600
X107000Y-26000
X104300Y-26000
X78600Y-30500
X91700Y-32800
X87500Y-23800
X97300Y-29050
X116500Y-23500
X-14000Y-11700
X71500Y-32700
M30