G04 EAGLE Gerber RS-274X export*
G75*
%MOMM*%
%FSLAX34Y34*%
%LPD*%
%IN*%
%IPPOS*%
%AMOC8*
5,1,8,0,0,1.08239X$1,22.5*%
G01*
%ADD10C,0.100000*%
%ADD11C,0.152400*%
%ADD12C,0.000000*%


D10*
X800000Y-385000D02*
X1197000Y-385000D01*
X1202000Y-380000D01*
X1202000Y20000D01*
X1197000Y25000D01*
X-173000Y25000D01*
X-178000Y20000D01*
X-178000Y-380000D01*
X-173000Y-385000D01*
X598000Y-385000D01*
X788000Y-373000D02*
X800000Y-385000D01*
X788000Y-373000D02*
X722000Y-373000D01*
X710000Y-385000D01*
X690000Y-385000D01*
X682000Y-377000D01*
X682000Y-324000D01*
X605000Y-324000D01*
X605000Y-378000D01*
X598000Y-385000D01*
D11*
X-146585Y111762D02*
X-146585Y128032D01*
X-138450Y128032D01*
X-135739Y125320D01*
X-135739Y122609D01*
X-138450Y119897D01*
X-135739Y117185D01*
X-135739Y114474D01*
X-138450Y111762D01*
X-146585Y111762D01*
X-146585Y119897D02*
X-138450Y119897D01*
X-127502Y111762D02*
X-122079Y111762D01*
X-119367Y114474D01*
X-119367Y119897D01*
X-122079Y122609D01*
X-127502Y122609D01*
X-130214Y119897D01*
X-130214Y114474D01*
X-127502Y111762D01*
X-111130Y114474D02*
X-111130Y125320D01*
X-111130Y114474D02*
X-108419Y111762D01*
X-108419Y122609D02*
X-113842Y122609D01*
X-100216Y125320D02*
X-100216Y114474D01*
X-97504Y111762D01*
X-97504Y122609D02*
X-102928Y122609D01*
X-89302Y111762D02*
X-83878Y111762D01*
X-81167Y114474D01*
X-81167Y119897D01*
X-83878Y122609D01*
X-89302Y122609D01*
X-92013Y119897D01*
X-92013Y114474D01*
X-89302Y111762D01*
X-75642Y111762D02*
X-75642Y122609D01*
X-72930Y122609D01*
X-70218Y119897D01*
X-70218Y111762D01*
X-70218Y119897D02*
X-67507Y122609D01*
X-64795Y119897D01*
X-64795Y111762D01*
X-42899Y111762D02*
X-42899Y128032D01*
X-34764Y128032D01*
X-32052Y125320D01*
X-32052Y122609D01*
X-34764Y119897D01*
X-32052Y117185D01*
X-32052Y114474D01*
X-34764Y111762D01*
X-42899Y111762D01*
X-42899Y119897D02*
X-34764Y119897D01*
X-23815Y111762D02*
X-18392Y111762D01*
X-15680Y114474D01*
X-15680Y119897D01*
X-18392Y122609D01*
X-23815Y122609D01*
X-26527Y119897D01*
X-26527Y114474D01*
X-23815Y111762D01*
X-7444Y122609D02*
X-2021Y122609D01*
X691Y119897D01*
X691Y111762D01*
X-7444Y111762D01*
X-10156Y114474D01*
X-7444Y117185D01*
X691Y117185D01*
X6216Y111762D02*
X6216Y122609D01*
X11639Y122609D02*
X6216Y117185D01*
X11639Y122609D02*
X14351Y122609D01*
X30706Y128032D02*
X30706Y111762D01*
X22571Y111762D01*
X19859Y114474D01*
X19859Y119897D01*
X22571Y122609D01*
X30706Y122609D01*
X55314Y111762D02*
X60737Y111762D01*
X63449Y114474D01*
X63449Y119897D01*
X60737Y122609D01*
X55314Y122609D01*
X52602Y119897D01*
X52602Y114474D01*
X55314Y111762D01*
X71685Y111762D02*
X71685Y125320D01*
X74397Y128032D01*
X74397Y119897D02*
X68974Y119897D01*
X96260Y111762D02*
X96260Y128032D01*
X104395Y128032D01*
X107106Y125320D01*
X107106Y119897D01*
X104395Y117185D01*
X96260Y117185D01*
X120766Y128032D02*
X123478Y125320D01*
X120766Y128032D02*
X115343Y128032D01*
X112631Y125320D01*
X112631Y114474D01*
X115343Y111762D01*
X120766Y111762D01*
X123478Y114474D01*
X129003Y111762D02*
X129003Y128032D01*
X137138Y128032D01*
X139849Y125320D01*
X139849Y122609D01*
X137138Y119897D01*
X139849Y117185D01*
X139849Y114474D01*
X137138Y111762D01*
X129003Y111762D01*
X129003Y119897D02*
X137138Y119897D01*
X169881Y128032D02*
X172593Y125320D01*
X169881Y128032D02*
X164458Y128032D01*
X161746Y125320D01*
X161746Y122609D01*
X164458Y119897D01*
X169881Y119897D01*
X172593Y117185D01*
X172593Y114474D01*
X169881Y111762D01*
X164458Y111762D01*
X161746Y114474D01*
X180829Y122609D02*
X186252Y122609D01*
X188964Y119897D01*
X188964Y111762D01*
X180829Y111762D01*
X178117Y114474D01*
X180829Y117185D01*
X188964Y117185D01*
X194489Y111762D02*
X194489Y122609D01*
X202624Y122609D01*
X205336Y119897D01*
X205336Y111762D01*
X221707Y111762D02*
X221707Y128032D01*
X221707Y111762D02*
X213572Y111762D01*
X210861Y114474D01*
X210861Y119897D01*
X213572Y122609D01*
X221707Y122609D01*
X227232Y122609D02*
X227232Y114474D01*
X229944Y111762D01*
X232655Y114474D01*
X235367Y111762D01*
X238079Y114474D01*
X238079Y122609D01*
X243604Y122609D02*
X246315Y122609D01*
X246315Y111762D01*
X243604Y111762D02*
X249027Y111762D01*
X246315Y128032D02*
X246315Y130744D01*
X257230Y122609D02*
X265365Y122609D01*
X257230Y122609D02*
X254518Y119897D01*
X254518Y114474D01*
X257230Y111762D01*
X265365Y111762D01*
X270890Y111762D02*
X270890Y128032D01*
X273601Y122609D02*
X270890Y119897D01*
X273601Y122609D02*
X279025Y122609D01*
X281736Y119897D01*
X281736Y111762D01*
D12*
X736000Y-355000D02*
X736002Y-354874D01*
X736008Y-354748D01*
X736018Y-354622D01*
X736032Y-354496D01*
X736050Y-354371D01*
X736072Y-354247D01*
X736097Y-354123D01*
X736127Y-354000D01*
X736160Y-353879D01*
X736198Y-353758D01*
X736239Y-353639D01*
X736284Y-353520D01*
X736332Y-353404D01*
X736384Y-353289D01*
X736440Y-353176D01*
X736500Y-353064D01*
X736563Y-352955D01*
X736629Y-352847D01*
X736698Y-352742D01*
X736771Y-352639D01*
X736848Y-352538D01*
X736927Y-352440D01*
X737009Y-352344D01*
X737095Y-352251D01*
X737183Y-352160D01*
X737274Y-352073D01*
X737368Y-351988D01*
X737464Y-351907D01*
X737563Y-351828D01*
X737664Y-351753D01*
X737768Y-351681D01*
X737874Y-351612D01*
X737982Y-351546D01*
X738092Y-351484D01*
X738204Y-351426D01*
X738317Y-351371D01*
X738433Y-351320D01*
X738550Y-351272D01*
X738668Y-351228D01*
X738788Y-351188D01*
X738909Y-351152D01*
X739031Y-351119D01*
X739154Y-351090D01*
X739278Y-351066D01*
X739402Y-351045D01*
X739527Y-351028D01*
X739653Y-351015D01*
X739779Y-351006D01*
X739905Y-351001D01*
X740032Y-351000D01*
X740158Y-351003D01*
X740284Y-351010D01*
X740410Y-351021D01*
X740535Y-351036D01*
X740660Y-351055D01*
X740784Y-351078D01*
X740908Y-351104D01*
X741030Y-351135D01*
X741152Y-351169D01*
X741272Y-351208D01*
X741391Y-351250D01*
X741509Y-351295D01*
X741625Y-351345D01*
X741740Y-351398D01*
X741852Y-351455D01*
X741963Y-351515D01*
X742072Y-351579D01*
X742179Y-351646D01*
X742284Y-351716D01*
X742387Y-351790D01*
X742487Y-351867D01*
X742585Y-351947D01*
X742680Y-352030D01*
X742772Y-352116D01*
X742862Y-352205D01*
X742949Y-352297D01*
X743032Y-352391D01*
X743113Y-352488D01*
X743191Y-352588D01*
X743266Y-352690D01*
X743337Y-352794D01*
X743405Y-352901D01*
X743469Y-353009D01*
X743530Y-353120D01*
X743588Y-353232D01*
X743642Y-353346D01*
X743692Y-353462D01*
X743739Y-353579D01*
X743782Y-353698D01*
X743821Y-353818D01*
X743857Y-353939D01*
X743888Y-354062D01*
X743916Y-354185D01*
X743940Y-354309D01*
X743960Y-354434D01*
X743976Y-354559D01*
X743988Y-354685D01*
X743996Y-354811D01*
X744000Y-354937D01*
X744000Y-355063D01*
X743996Y-355189D01*
X743988Y-355315D01*
X743976Y-355441D01*
X743960Y-355566D01*
X743940Y-355691D01*
X743916Y-355815D01*
X743888Y-355938D01*
X743857Y-356061D01*
X743821Y-356182D01*
X743782Y-356302D01*
X743739Y-356421D01*
X743692Y-356538D01*
X743642Y-356654D01*
X743588Y-356768D01*
X743530Y-356880D01*
X743469Y-356991D01*
X743405Y-357099D01*
X743337Y-357206D01*
X743266Y-357310D01*
X743191Y-357412D01*
X743113Y-357512D01*
X743032Y-357609D01*
X742949Y-357703D01*
X742862Y-357795D01*
X742772Y-357884D01*
X742680Y-357970D01*
X742585Y-358053D01*
X742487Y-358133D01*
X742387Y-358210D01*
X742284Y-358284D01*
X742179Y-358354D01*
X742072Y-358421D01*
X741963Y-358485D01*
X741852Y-358545D01*
X741740Y-358602D01*
X741625Y-358655D01*
X741509Y-358705D01*
X741391Y-358750D01*
X741272Y-358792D01*
X741152Y-358831D01*
X741030Y-358865D01*
X740908Y-358896D01*
X740784Y-358922D01*
X740660Y-358945D01*
X740535Y-358964D01*
X740410Y-358979D01*
X740284Y-358990D01*
X740158Y-358997D01*
X740032Y-359000D01*
X739905Y-358999D01*
X739779Y-358994D01*
X739653Y-358985D01*
X739527Y-358972D01*
X739402Y-358955D01*
X739278Y-358934D01*
X739154Y-358910D01*
X739031Y-358881D01*
X738909Y-358848D01*
X738788Y-358812D01*
X738668Y-358772D01*
X738550Y-358728D01*
X738433Y-358680D01*
X738317Y-358629D01*
X738204Y-358574D01*
X738092Y-358516D01*
X737982Y-358454D01*
X737874Y-358388D01*
X737768Y-358319D01*
X737664Y-358247D01*
X737563Y-358172D01*
X737464Y-358093D01*
X737368Y-358012D01*
X737274Y-357927D01*
X737183Y-357840D01*
X737095Y-357749D01*
X737009Y-357656D01*
X736927Y-357560D01*
X736848Y-357462D01*
X736771Y-357361D01*
X736698Y-357258D01*
X736629Y-357153D01*
X736563Y-357045D01*
X736500Y-356936D01*
X736440Y-356824D01*
X736384Y-356711D01*
X736332Y-356596D01*
X736284Y-356480D01*
X736239Y-356361D01*
X736198Y-356242D01*
X736160Y-356121D01*
X736127Y-356000D01*
X736097Y-355877D01*
X736072Y-355753D01*
X736050Y-355629D01*
X736032Y-355504D01*
X736018Y-355378D01*
X736008Y-355252D01*
X736002Y-355126D01*
X736000Y-355000D01*
X766000Y-355000D02*
X766002Y-354874D01*
X766008Y-354748D01*
X766018Y-354622D01*
X766032Y-354496D01*
X766050Y-354371D01*
X766072Y-354247D01*
X766097Y-354123D01*
X766127Y-354000D01*
X766160Y-353879D01*
X766198Y-353758D01*
X766239Y-353639D01*
X766284Y-353520D01*
X766332Y-353404D01*
X766384Y-353289D01*
X766440Y-353176D01*
X766500Y-353064D01*
X766563Y-352955D01*
X766629Y-352847D01*
X766698Y-352742D01*
X766771Y-352639D01*
X766848Y-352538D01*
X766927Y-352440D01*
X767009Y-352344D01*
X767095Y-352251D01*
X767183Y-352160D01*
X767274Y-352073D01*
X767368Y-351988D01*
X767464Y-351907D01*
X767563Y-351828D01*
X767664Y-351753D01*
X767768Y-351681D01*
X767874Y-351612D01*
X767982Y-351546D01*
X768092Y-351484D01*
X768204Y-351426D01*
X768317Y-351371D01*
X768433Y-351320D01*
X768550Y-351272D01*
X768668Y-351228D01*
X768788Y-351188D01*
X768909Y-351152D01*
X769031Y-351119D01*
X769154Y-351090D01*
X769278Y-351066D01*
X769402Y-351045D01*
X769527Y-351028D01*
X769653Y-351015D01*
X769779Y-351006D01*
X769905Y-351001D01*
X770032Y-351000D01*
X770158Y-351003D01*
X770284Y-351010D01*
X770410Y-351021D01*
X770535Y-351036D01*
X770660Y-351055D01*
X770784Y-351078D01*
X770908Y-351104D01*
X771030Y-351135D01*
X771152Y-351169D01*
X771272Y-351208D01*
X771391Y-351250D01*
X771509Y-351295D01*
X771625Y-351345D01*
X771740Y-351398D01*
X771852Y-351455D01*
X771963Y-351515D01*
X772072Y-351579D01*
X772179Y-351646D01*
X772284Y-351716D01*
X772387Y-351790D01*
X772487Y-351867D01*
X772585Y-351947D01*
X772680Y-352030D01*
X772772Y-352116D01*
X772862Y-352205D01*
X772949Y-352297D01*
X773032Y-352391D01*
X773113Y-352488D01*
X773191Y-352588D01*
X773266Y-352690D01*
X773337Y-352794D01*
X773405Y-352901D01*
X773469Y-353009D01*
X773530Y-353120D01*
X773588Y-353232D01*
X773642Y-353346D01*
X773692Y-353462D01*
X773739Y-353579D01*
X773782Y-353698D01*
X773821Y-353818D01*
X773857Y-353939D01*
X773888Y-354062D01*
X773916Y-354185D01*
X773940Y-354309D01*
X773960Y-354434D01*
X773976Y-354559D01*
X773988Y-354685D01*
X773996Y-354811D01*
X774000Y-354937D01*
X774000Y-355063D01*
X773996Y-355189D01*
X773988Y-355315D01*
X773976Y-355441D01*
X773960Y-355566D01*
X773940Y-355691D01*
X773916Y-355815D01*
X773888Y-355938D01*
X773857Y-356061D01*
X773821Y-356182D01*
X773782Y-356302D01*
X773739Y-356421D01*
X773692Y-356538D01*
X773642Y-356654D01*
X773588Y-356768D01*
X773530Y-356880D01*
X773469Y-356991D01*
X773405Y-357099D01*
X773337Y-357206D01*
X773266Y-357310D01*
X773191Y-357412D01*
X773113Y-357512D01*
X773032Y-357609D01*
X772949Y-357703D01*
X772862Y-357795D01*
X772772Y-357884D01*
X772680Y-357970D01*
X772585Y-358053D01*
X772487Y-358133D01*
X772387Y-358210D01*
X772284Y-358284D01*
X772179Y-358354D01*
X772072Y-358421D01*
X771963Y-358485D01*
X771852Y-358545D01*
X771740Y-358602D01*
X771625Y-358655D01*
X771509Y-358705D01*
X771391Y-358750D01*
X771272Y-358792D01*
X771152Y-358831D01*
X771030Y-358865D01*
X770908Y-358896D01*
X770784Y-358922D01*
X770660Y-358945D01*
X770535Y-358964D01*
X770410Y-358979D01*
X770284Y-358990D01*
X770158Y-358997D01*
X770032Y-359000D01*
X769905Y-358999D01*
X769779Y-358994D01*
X769653Y-358985D01*
X769527Y-358972D01*
X769402Y-358955D01*
X769278Y-358934D01*
X769154Y-358910D01*
X769031Y-358881D01*
X768909Y-358848D01*
X768788Y-358812D01*
X768668Y-358772D01*
X768550Y-358728D01*
X768433Y-358680D01*
X768317Y-358629D01*
X768204Y-358574D01*
X768092Y-358516D01*
X767982Y-358454D01*
X767874Y-358388D01*
X767768Y-358319D01*
X767664Y-358247D01*
X767563Y-358172D01*
X767464Y-358093D01*
X767368Y-358012D01*
X767274Y-357927D01*
X767183Y-357840D01*
X767095Y-357749D01*
X767009Y-357656D01*
X766927Y-357560D01*
X766848Y-357462D01*
X766771Y-357361D01*
X766698Y-357258D01*
X766629Y-357153D01*
X766563Y-357045D01*
X766500Y-356936D01*
X766440Y-356824D01*
X766384Y-356711D01*
X766332Y-356596D01*
X766284Y-356480D01*
X766239Y-356361D01*
X766198Y-356242D01*
X766160Y-356121D01*
X766127Y-356000D01*
X766097Y-355877D01*
X766072Y-355753D01*
X766050Y-355629D01*
X766032Y-355504D01*
X766018Y-355378D01*
X766008Y-355252D01*
X766002Y-355126D01*
X766000Y-355000D01*
M02*
