G04 EAGLE Gerber RS-274X export*
G75*
%MOMM*%
%FSLAX34Y34*%
%LPD*%
%INSolderpaste Top*%
%IPPOS*%
%AMOC8*
5,1,8,0,0,1.08239X$1,22.5*%
G01*
%ADD10R,1.000000X2.000000*%
%ADD11R,0.760000X2.270000*%
%ADD12R,1.500000X0.700000*%
%ADD13R,0.400000X2.000000*%
%ADD14R,2.200000X1.900000*%
%ADD15R,1.600000X1.300000*%
%ADD16R,1.300000X1.500000*%
%ADD17R,0.550000X1.200000*%
%ADD18R,1.500000X1.300000*%
%ADD19R,1.300000X1.600000*%
%ADD20R,1.465300X1.164600*%
%ADD21R,1.400000X1.400000*%
%ADD22R,0.800000X2.000000*%
%ADD23R,0.900000X0.800000*%
%ADD24R,1.000000X0.800000*%
%ADD25R,0.635000X1.016000*%
%ADD26R,3.530000X1.200000*%
%ADD27R,0.900000X1.300000*%


D10*
X-140000Y-25000D03*
X-140000Y-65000D03*
X-118000Y-65000D03*
X-118000Y-25000D03*
X-140000Y-160000D03*
X-140000Y-200000D03*
X-118000Y-200000D03*
X-118000Y-160000D03*
X-140000Y-295000D03*
X-140000Y-335000D03*
X-118000Y-335000D03*
X-118000Y-295000D03*
X1165000Y-65000D03*
X1165000Y-25000D03*
X1143000Y-25000D03*
X1143000Y-65000D03*
X1165000Y-200000D03*
X1165000Y-160000D03*
X1143000Y-160000D03*
X1143000Y-200000D03*
X1165000Y-335000D03*
X1165000Y-295000D03*
X1143000Y-295000D03*
X1143000Y-335000D03*
D11*
X896550Y-308650D03*
X909250Y-308650D03*
X921950Y-308650D03*
X934650Y-308650D03*
X947350Y-308650D03*
X960050Y-308650D03*
X972750Y-308650D03*
X985450Y-308650D03*
X985450Y-251350D03*
X972750Y-251350D03*
X960050Y-251350D03*
X947350Y-251350D03*
X934650Y-251350D03*
X921950Y-251350D03*
X909250Y-251350D03*
X896550Y-251350D03*
D12*
X-10000Y-51000D03*
X-10000Y-39000D03*
X10000Y-39000D03*
X10000Y-51000D03*
X40000Y-51000D03*
X40000Y-39000D03*
X60000Y-39000D03*
X60000Y-51000D03*
X90000Y-51000D03*
X90000Y-39000D03*
X110000Y-39000D03*
X110000Y-51000D03*
X140000Y-51000D03*
X140000Y-39000D03*
X160000Y-39000D03*
X160000Y-51000D03*
X190000Y-51000D03*
X190000Y-39000D03*
X210000Y-39000D03*
X210000Y-51000D03*
X265000Y-51000D03*
X265000Y-39000D03*
X285000Y-39000D03*
X285000Y-51000D03*
X315000Y-51000D03*
X315000Y-39000D03*
X335000Y-39000D03*
X335000Y-51000D03*
X365000Y-51000D03*
X365000Y-39000D03*
X385000Y-39000D03*
X385000Y-51000D03*
X415000Y-51000D03*
X415000Y-39000D03*
X435000Y-39000D03*
X435000Y-51000D03*
X465000Y-51000D03*
X465000Y-39000D03*
X485000Y-39000D03*
X485000Y-51000D03*
X540000Y-51000D03*
X540000Y-39000D03*
X560000Y-39000D03*
X560000Y-51000D03*
X590000Y-51000D03*
X590000Y-39000D03*
X610000Y-39000D03*
X610000Y-51000D03*
X640000Y-51000D03*
X640000Y-39000D03*
X660000Y-39000D03*
X660000Y-51000D03*
X690000Y-51000D03*
X690000Y-39000D03*
X710000Y-39000D03*
X710000Y-51000D03*
X740000Y-51000D03*
X740000Y-39000D03*
X760000Y-39000D03*
X760000Y-51000D03*
X815000Y-51000D03*
X815000Y-39000D03*
X835000Y-39000D03*
X835000Y-51000D03*
X865000Y-51000D03*
X865000Y-39000D03*
X885000Y-39000D03*
X885000Y-51000D03*
X915000Y-51000D03*
X915000Y-39000D03*
X935000Y-39000D03*
X935000Y-51000D03*
X965000Y-51000D03*
X965000Y-39000D03*
X985000Y-39000D03*
X985000Y-51000D03*
X1015000Y-51000D03*
X1015000Y-39000D03*
X1035000Y-39000D03*
X1035000Y-51000D03*
X-10000Y-186000D03*
X-10000Y-174000D03*
X10000Y-174000D03*
X10000Y-186000D03*
X40000Y-186000D03*
X40000Y-174000D03*
X60000Y-174000D03*
X60000Y-186000D03*
X90000Y-186000D03*
X90000Y-174000D03*
X110000Y-174000D03*
X110000Y-186000D03*
X140000Y-186000D03*
X140000Y-174000D03*
X160000Y-174000D03*
X160000Y-186000D03*
X190000Y-186000D03*
X190000Y-174000D03*
X210000Y-174000D03*
X210000Y-186000D03*
X265000Y-186000D03*
X265000Y-174000D03*
X285000Y-174000D03*
X285000Y-186000D03*
X315000Y-186000D03*
X315000Y-174000D03*
X335000Y-174000D03*
X335000Y-186000D03*
X365000Y-186000D03*
X365000Y-174000D03*
X385000Y-174000D03*
X385000Y-186000D03*
X415000Y-186000D03*
X415000Y-174000D03*
X435000Y-174000D03*
X435000Y-186000D03*
X465000Y-186000D03*
X465000Y-174000D03*
X485000Y-174000D03*
X485000Y-186000D03*
X540000Y-186000D03*
X540000Y-174000D03*
X560000Y-174000D03*
X560000Y-186000D03*
X590000Y-186000D03*
X590000Y-174000D03*
X610000Y-174000D03*
X610000Y-186000D03*
X640000Y-186000D03*
X640000Y-174000D03*
X660000Y-174000D03*
X660000Y-186000D03*
X690000Y-186000D03*
X690000Y-174000D03*
X710000Y-174000D03*
X710000Y-186000D03*
X740000Y-186000D03*
X740000Y-174000D03*
X760000Y-174000D03*
X760000Y-186000D03*
X815000Y-186000D03*
X815000Y-174000D03*
X835000Y-174000D03*
X835000Y-186000D03*
X865000Y-186000D03*
X865000Y-174000D03*
X885000Y-174000D03*
X885000Y-186000D03*
X915000Y-186000D03*
X915000Y-174000D03*
X935000Y-174000D03*
X935000Y-186000D03*
X965000Y-186000D03*
X965000Y-174000D03*
X985000Y-174000D03*
X985000Y-186000D03*
X1015000Y-186000D03*
X1015000Y-174000D03*
X1035000Y-174000D03*
X1035000Y-186000D03*
X-10000Y-321000D03*
X-10000Y-309000D03*
X10000Y-309000D03*
X10000Y-321000D03*
X40000Y-321000D03*
X40000Y-309000D03*
X60000Y-309000D03*
X60000Y-321000D03*
X90000Y-321000D03*
X90000Y-309000D03*
X110000Y-309000D03*
X110000Y-321000D03*
X140000Y-321000D03*
X140000Y-309000D03*
X160000Y-309000D03*
X160000Y-321000D03*
X190000Y-321000D03*
X190000Y-309000D03*
X210000Y-309000D03*
X210000Y-321000D03*
D13*
X643800Y-311800D03*
X650300Y-311800D03*
X656800Y-311800D03*
X637300Y-311800D03*
X630800Y-311800D03*
D14*
X692800Y-359800D03*
X594800Y-359800D03*
X594800Y-317800D03*
X692800Y-317800D03*
D15*
X875000Y-250000D03*
X875000Y-270000D03*
X875000Y-310000D03*
X875000Y-330000D03*
D16*
X849500Y-239000D03*
X830500Y-239000D03*
D10*
X790000Y-240000D03*
X790000Y-280000D03*
X812000Y-280000D03*
X812000Y-240000D03*
D17*
X338300Y-276999D03*
X328800Y-276999D03*
X319300Y-276999D03*
X319300Y-303001D03*
X338300Y-303001D03*
D18*
X288800Y-280500D03*
X288800Y-299500D03*
D19*
X318800Y-255000D03*
X298800Y-255000D03*
X318800Y-325000D03*
X298800Y-325000D03*
D12*
X745000Y-301000D03*
X745000Y-289000D03*
X765000Y-289000D03*
X765000Y-301000D03*
D15*
X568800Y-293750D03*
X568800Y-273750D03*
D20*
X482800Y-292246D03*
X482800Y-309754D03*
D21*
X526300Y-338000D03*
X489300Y-338000D03*
D19*
X501800Y-275000D03*
X521800Y-275000D03*
D22*
X763230Y-334000D03*
D23*
X717000Y-343750D03*
D24*
X717500Y-366250D03*
D23*
X793000Y-343750D03*
D24*
X792500Y-366250D03*
D22*
X733230Y-334000D03*
X778230Y-334000D03*
D16*
X741500Y-226000D03*
X722500Y-226000D03*
X826500Y-337000D03*
X845500Y-337000D03*
D25*
X483000Y-264000D03*
X473500Y-244000D03*
X492500Y-244000D03*
D16*
X492500Y-224000D03*
X473500Y-224000D03*
D25*
X523000Y-244000D03*
X513500Y-224000D03*
X532500Y-224000D03*
D18*
X564000Y-242500D03*
X564000Y-223500D03*
D17*
X506500Y-320001D03*
X516000Y-320001D03*
X525500Y-320001D03*
X525500Y-293999D03*
X506500Y-293999D03*
D16*
X540250Y-320000D03*
X559250Y-320000D03*
D18*
X550000Y-276250D03*
X550000Y-295250D03*
D26*
X831700Y-305100D03*
X435700Y-332100D03*
X842700Y-280100D03*
D27*
X319500Y-233000D03*
X300500Y-233000D03*
M02*
