G04 EAGLE Gerber RS-274X export*
G75*
%MOMM*%
%FSLAX34Y34*%
%LPD*%
%INSoldermask Bottom*%
%IPPOS*%
%AMOC8*
5,1,8,0,0,1.08239X$1,22.5*%
G01*
%ADD10R,4.101600X2.101600*%
%ADD11C,0.901600*%
%ADD12P,0.981078X8X22.500000*%
%ADD13C,3.901600*%

G36*
X-159497Y-356949D02*
X-159497Y-356949D01*
X-156900Y-356949D01*
X-156885Y-356938D01*
X-156875Y-356942D01*
X-135275Y-344042D01*
X-135261Y-344008D01*
X-135251Y-344000D01*
X-135251Y-343500D01*
X-135273Y-343470D01*
X-135275Y-343458D01*
X-141175Y-339958D01*
X-141193Y-339960D01*
X-141200Y-339951D01*
X-141500Y-339951D01*
X-141518Y-339964D01*
X-141530Y-339961D01*
X-154308Y-349844D01*
X-154718Y-349680D01*
X-145463Y-338832D01*
X-145462Y-338817D01*
X-145453Y-338810D01*
X-145461Y-338800D01*
X-145452Y-338790D01*
X-145552Y-338290D01*
X-145579Y-338266D01*
X-145582Y-338254D01*
X-150282Y-336454D01*
X-150295Y-336458D01*
X-150300Y-336451D01*
X-150800Y-336451D01*
X-150825Y-336470D01*
X-150839Y-336470D01*
X-159505Y-347626D01*
X-159641Y-347490D01*
X-154155Y-335721D01*
X-154158Y-335709D01*
X-154156Y-335708D01*
X-154159Y-335704D01*
X-154163Y-335685D01*
X-154159Y-335673D01*
X-154359Y-335373D01*
X-154392Y-335361D01*
X-154400Y-335351D01*
X-158600Y-335351D01*
X-158621Y-335367D01*
X-158635Y-335365D01*
X-158835Y-335565D01*
X-158836Y-335577D01*
X-158844Y-335579D01*
X-163929Y-346245D01*
X-164440Y-346160D01*
X-162252Y-336911D01*
X-162267Y-336878D01*
X-162265Y-336865D01*
X-162565Y-336565D01*
X-162616Y-336558D01*
X-162621Y-336556D01*
X-168521Y-339356D01*
X-168537Y-339386D01*
X-168549Y-339393D01*
X-169642Y-346551D01*
X-170254Y-346551D01*
X-170651Y-341196D01*
X-170686Y-341156D01*
X-170688Y-341152D01*
X-171088Y-341052D01*
X-171112Y-341063D01*
X-171114Y-341063D01*
X-171116Y-341064D01*
X-171119Y-341065D01*
X-171132Y-341062D01*
X-173032Y-342662D01*
X-173038Y-342692D01*
X-173049Y-342700D01*
X-173049Y-358300D01*
X-173013Y-358347D01*
X-173003Y-358340D01*
X-172995Y-358349D01*
X-159497Y-356949D01*
G37*
G36*
X-157493Y-380948D02*
X-157493Y-380948D01*
X-157493Y-380949D01*
X-153493Y-380349D01*
X-153473Y-380329D01*
X-153460Y-380328D01*
X-149573Y-374748D01*
X-146297Y-374549D01*
X-146267Y-374523D01*
X-146255Y-374520D01*
X-139655Y-360020D01*
X-139659Y-360005D01*
X-139652Y-359991D01*
X-139663Y-359985D01*
X-139668Y-359962D01*
X-139696Y-359969D01*
X-139722Y-359956D01*
X-144808Y-362449D01*
X-145482Y-362353D01*
X-150772Y-358759D01*
X-150792Y-358760D01*
X-150799Y-358751D01*
X-158099Y-358551D01*
X-158103Y-358554D01*
X-158105Y-358551D01*
X-173005Y-360151D01*
X-173049Y-360192D01*
X-173044Y-360197D01*
X-173049Y-360201D01*
X-172849Y-377501D01*
X-172813Y-377548D01*
X-172802Y-377539D01*
X-172792Y-377549D01*
X-168492Y-376849D01*
X-168481Y-376837D01*
X-168471Y-376840D01*
X-159985Y-370550D01*
X-158002Y-370649D01*
X-157953Y-370616D01*
X-157954Y-370615D01*
X-157953Y-370614D01*
X-157818Y-370175D01*
X-157621Y-369535D01*
X-157424Y-368895D01*
X-157227Y-368254D01*
X-157030Y-367614D01*
X-156833Y-366974D01*
X-156636Y-366334D01*
X-156439Y-365693D01*
X-156242Y-365053D01*
X-156045Y-364413D01*
X-155958Y-364130D01*
X-152587Y-361651D01*
X-151820Y-361747D01*
X-148899Y-364181D01*
X-149698Y-364448D01*
X-152182Y-363454D01*
X-152216Y-363464D01*
X-152228Y-363460D01*
X-154628Y-365160D01*
X-154635Y-365180D01*
X-154647Y-365184D01*
X-157543Y-373873D01*
X-159634Y-375864D01*
X-159642Y-375913D01*
X-159645Y-375919D01*
X-157545Y-380919D01*
X-157494Y-380949D01*
X-157493Y-380948D01*
G37*
G36*
X1070064Y-274990D02*
X1070064Y-274990D01*
X1070128Y-274991D01*
X1070203Y-274970D01*
X1070279Y-274959D01*
X1070338Y-274933D01*
X1070400Y-274916D01*
X1070466Y-274875D01*
X1070536Y-274843D01*
X1070585Y-274801D01*
X1070640Y-274768D01*
X1070692Y-274710D01*
X1070750Y-274660D01*
X1070786Y-274606D01*
X1070829Y-274558D01*
X1070862Y-274489D01*
X1070905Y-274424D01*
X1070924Y-274362D01*
X1070952Y-274305D01*
X1070963Y-274235D01*
X1070987Y-274154D01*
X1070988Y-274069D01*
X1070999Y-274000D01*
X1070999Y-267000D01*
X1070990Y-266937D01*
X1070991Y-266877D01*
X1070991Y-266872D01*
X1070970Y-266797D01*
X1070959Y-266721D01*
X1070933Y-266662D01*
X1070916Y-266600D01*
X1070875Y-266534D01*
X1070843Y-266464D01*
X1070801Y-266415D01*
X1070768Y-266360D01*
X1070710Y-266308D01*
X1070660Y-266250D01*
X1070606Y-266214D01*
X1070558Y-266171D01*
X1070489Y-266138D01*
X1070424Y-266095D01*
X1070362Y-266076D01*
X1070305Y-266048D01*
X1070235Y-266037D01*
X1070154Y-266013D01*
X1070069Y-266012D01*
X1070000Y-266001D01*
X1056000Y-266001D01*
X1055936Y-266010D01*
X1055872Y-266009D01*
X1055797Y-266030D01*
X1055721Y-266041D01*
X1055662Y-266067D01*
X1055600Y-266084D01*
X1055534Y-266125D01*
X1055464Y-266157D01*
X1055415Y-266199D01*
X1055360Y-266232D01*
X1055308Y-266290D01*
X1055250Y-266340D01*
X1055214Y-266394D01*
X1055171Y-266442D01*
X1055138Y-266511D01*
X1055095Y-266576D01*
X1055076Y-266638D01*
X1055048Y-266695D01*
X1055037Y-266765D01*
X1055013Y-266846D01*
X1055012Y-266931D01*
X1055001Y-267000D01*
X1055001Y-274000D01*
X1055010Y-274064D01*
X1055009Y-274128D01*
X1055030Y-274203D01*
X1055041Y-274279D01*
X1055067Y-274338D01*
X1055084Y-274400D01*
X1055125Y-274466D01*
X1055157Y-274536D01*
X1055199Y-274585D01*
X1055232Y-274640D01*
X1055290Y-274692D01*
X1055340Y-274750D01*
X1055394Y-274786D01*
X1055442Y-274829D01*
X1055511Y-274862D01*
X1055576Y-274905D01*
X1055638Y-274924D01*
X1055695Y-274952D01*
X1055765Y-274963D01*
X1055846Y-274987D01*
X1055931Y-274988D01*
X1056000Y-274999D01*
X1070000Y-274999D01*
X1070064Y-274990D01*
G37*
G36*
X1070064Y-253990D02*
X1070064Y-253990D01*
X1070128Y-253991D01*
X1070203Y-253970D01*
X1070279Y-253959D01*
X1070338Y-253933D01*
X1070400Y-253916D01*
X1070466Y-253875D01*
X1070536Y-253843D01*
X1070585Y-253801D01*
X1070640Y-253768D01*
X1070692Y-253710D01*
X1070750Y-253660D01*
X1070786Y-253606D01*
X1070829Y-253558D01*
X1070862Y-253489D01*
X1070905Y-253424D01*
X1070924Y-253362D01*
X1070952Y-253305D01*
X1070963Y-253235D01*
X1070987Y-253154D01*
X1070988Y-253069D01*
X1070999Y-253000D01*
X1070999Y-247000D01*
X1070990Y-246937D01*
X1070991Y-246877D01*
X1070991Y-246876D01*
X1070991Y-246872D01*
X1070970Y-246797D01*
X1070959Y-246721D01*
X1070933Y-246662D01*
X1070916Y-246600D01*
X1070875Y-246534D01*
X1070843Y-246464D01*
X1070801Y-246415D01*
X1070768Y-246360D01*
X1070710Y-246308D01*
X1070660Y-246250D01*
X1070606Y-246214D01*
X1070558Y-246171D01*
X1070489Y-246138D01*
X1070424Y-246095D01*
X1070362Y-246076D01*
X1070305Y-246048D01*
X1070235Y-246037D01*
X1070154Y-246013D01*
X1070069Y-246012D01*
X1070000Y-246001D01*
X1056000Y-246001D01*
X1055936Y-246010D01*
X1055872Y-246009D01*
X1055797Y-246030D01*
X1055721Y-246041D01*
X1055662Y-246067D01*
X1055600Y-246084D01*
X1055534Y-246125D01*
X1055464Y-246157D01*
X1055415Y-246199D01*
X1055360Y-246232D01*
X1055308Y-246290D01*
X1055250Y-246340D01*
X1055214Y-246394D01*
X1055171Y-246442D01*
X1055138Y-246511D01*
X1055095Y-246576D01*
X1055076Y-246638D01*
X1055048Y-246695D01*
X1055037Y-246765D01*
X1055013Y-246846D01*
X1055012Y-246931D01*
X1055001Y-247000D01*
X1055001Y-253000D01*
X1055010Y-253064D01*
X1055009Y-253128D01*
X1055030Y-253203D01*
X1055041Y-253279D01*
X1055067Y-253338D01*
X1055084Y-253400D01*
X1055125Y-253466D01*
X1055157Y-253536D01*
X1055199Y-253585D01*
X1055232Y-253640D01*
X1055290Y-253692D01*
X1055340Y-253750D01*
X1055394Y-253786D01*
X1055442Y-253829D01*
X1055511Y-253862D01*
X1055576Y-253905D01*
X1055638Y-253924D01*
X1055695Y-253952D01*
X1055765Y-253963D01*
X1055846Y-253987D01*
X1055931Y-253988D01*
X1056000Y-253999D01*
X1070000Y-253999D01*
X1070064Y-253990D01*
G37*
G36*
X1070064Y-263990D02*
X1070064Y-263990D01*
X1070128Y-263991D01*
X1070203Y-263970D01*
X1070279Y-263959D01*
X1070338Y-263933D01*
X1070400Y-263916D01*
X1070466Y-263875D01*
X1070536Y-263843D01*
X1070585Y-263801D01*
X1070640Y-263768D01*
X1070692Y-263710D01*
X1070750Y-263660D01*
X1070786Y-263606D01*
X1070829Y-263558D01*
X1070862Y-263489D01*
X1070905Y-263424D01*
X1070924Y-263362D01*
X1070952Y-263305D01*
X1070963Y-263235D01*
X1070987Y-263154D01*
X1070988Y-263069D01*
X1070999Y-263000D01*
X1070999Y-257000D01*
X1070990Y-256937D01*
X1070991Y-256877D01*
X1070991Y-256876D01*
X1070991Y-256872D01*
X1070970Y-256797D01*
X1070959Y-256721D01*
X1070933Y-256662D01*
X1070916Y-256600D01*
X1070875Y-256534D01*
X1070843Y-256464D01*
X1070801Y-256415D01*
X1070768Y-256360D01*
X1070710Y-256308D01*
X1070660Y-256250D01*
X1070606Y-256214D01*
X1070558Y-256171D01*
X1070489Y-256138D01*
X1070424Y-256095D01*
X1070362Y-256076D01*
X1070305Y-256048D01*
X1070235Y-256037D01*
X1070154Y-256013D01*
X1070069Y-256012D01*
X1070000Y-256001D01*
X1056000Y-256001D01*
X1055936Y-256010D01*
X1055872Y-256009D01*
X1055797Y-256030D01*
X1055721Y-256041D01*
X1055662Y-256067D01*
X1055600Y-256084D01*
X1055534Y-256125D01*
X1055464Y-256157D01*
X1055415Y-256199D01*
X1055360Y-256232D01*
X1055308Y-256290D01*
X1055250Y-256340D01*
X1055214Y-256394D01*
X1055171Y-256442D01*
X1055138Y-256511D01*
X1055095Y-256576D01*
X1055076Y-256638D01*
X1055048Y-256695D01*
X1055037Y-256765D01*
X1055013Y-256846D01*
X1055012Y-256931D01*
X1055001Y-257000D01*
X1055001Y-263000D01*
X1055010Y-263064D01*
X1055009Y-263128D01*
X1055030Y-263203D01*
X1055041Y-263279D01*
X1055067Y-263338D01*
X1055084Y-263400D01*
X1055125Y-263466D01*
X1055157Y-263536D01*
X1055199Y-263585D01*
X1055232Y-263640D01*
X1055290Y-263692D01*
X1055340Y-263750D01*
X1055394Y-263786D01*
X1055442Y-263829D01*
X1055511Y-263862D01*
X1055576Y-263905D01*
X1055638Y-263924D01*
X1055695Y-263952D01*
X1055765Y-263963D01*
X1055846Y-263987D01*
X1055931Y-263988D01*
X1056000Y-263999D01*
X1070000Y-263999D01*
X1070064Y-263990D01*
G37*
G36*
X-140677Y-358344D02*
X-140677Y-358344D01*
X-140674Y-358337D01*
X-140667Y-358337D01*
X-140668Y-358324D01*
X-140652Y-358290D01*
X-140672Y-358280D01*
X-140674Y-358258D01*
X-147174Y-354158D01*
X-147189Y-354160D01*
X-147194Y-354151D01*
X-147994Y-354051D01*
X-148013Y-354062D01*
X-148024Y-354057D01*
X-152824Y-356757D01*
X-152832Y-356774D01*
X-152847Y-356785D01*
X-152840Y-356794D01*
X-152848Y-356812D01*
X-152820Y-356824D01*
X-152802Y-356849D01*
X-150416Y-356949D01*
X-145128Y-360640D01*
X-145088Y-360639D01*
X-145077Y-360644D01*
X-140677Y-358344D01*
G37*
G36*
X-139775Y-369643D02*
X-139775Y-369643D01*
X-139761Y-369608D01*
X-139751Y-369601D01*
X-139651Y-364301D01*
X-139664Y-364283D01*
X-139668Y-364262D01*
X-139677Y-364264D01*
X-139686Y-364253D01*
X-139698Y-364262D01*
X-139700Y-364259D01*
X-139704Y-364259D01*
X-139725Y-364275D01*
X-139745Y-364280D01*
X-142945Y-371380D01*
X-142941Y-371397D01*
X-142948Y-371412D01*
X-142936Y-371417D01*
X-142932Y-371438D01*
X-142903Y-371431D01*
X-142875Y-371443D01*
X-139775Y-369643D01*
G37*
%LPC*%
G36*
X-150046Y-372298D02*
X-150046Y-372298D01*
X-148963Y-369740D01*
X-146913Y-369056D01*
X-146558Y-369412D01*
X-147636Y-372157D01*
X-149873Y-372644D01*
X-150046Y-372298D01*
G37*
%LPD*%
D10*
X285800Y-233000D03*
X282800Y-303000D03*
D11*
X740000Y-355000D03*
X770000Y-355000D03*
D12*
X1070000Y-250000D03*
D13*
X0Y0D03*
X1025000Y0D03*
X1025000Y-360000D03*
X0Y-360000D03*
D12*
X1070000Y-270000D03*
X1070000Y-260000D03*
M02*
