<?xml version="1.0" encoding="UTF-8" standalone="no"?>
<svg
   xmlns:dc="http://purl.org/dc/elements/1.1/"
   xmlns:cc="http://creativecommons.org/ns#"
   xmlns:rdf="http://www.w3.org/1999/02/22-rdf-syntax-ns#"
   xmlns:svg="http://www.w3.org/2000/svg"
   xmlns="http://www.w3.org/2000/svg"
   xmlns:sodipodi="http://sodipodi.sourceforge.net/DTD/sodipodi-0.dtd"
   xmlns:inkscape="http://www.inkscape.org/namespaces/inkscape"
   sodipodi:docname="bottom-box-art.svg"
   inkscape:version="1.0 (4035a4fb49, 2020-05-01)"
   id="svg853"
   version="1.1"
   viewBox="0 0 138.07019 41.063339"
   height="41.063339mm"
   width="138.07019mm">
  <defs
     id="defs847">
    <clipPath
       clipPathUnits="userSpaceOnUse"
       id="clipPath1454">
      <path
         d="M 302,198 H 9898 V 13002 H 302 Z"
         clip-rule="evenodd"
         id="path1452" />
    </clipPath>
    <clipPath
       clipPathUnits="userSpaceOnUse"
       id="clipPath1464">
      <path
         d="M 302,198 H 9898 V 13002 H 302 Z"
         clip-rule="evenodd"
         id="path1462" />
    </clipPath>
    <clipPath
       clipPathUnits="userSpaceOnUse"
       id="clipPath1470">
      <path
         d="M 1837,5628 H 8363 V 7571 H 1837 Z"
         clip-rule="evenodd"
         id="path1468" />
    </clipPath>
  </defs>
  <sodipodi:namedview
     inkscape:window-maximized="1"
     inkscape:window-y="-8"
     inkscape:window-x="-8"
     inkscape:window-height="1017"
     inkscape:window-width="1920"
     fit-margin-bottom="0"
     fit-margin-right="0"
     fit-margin-left="0"
     fit-margin-top="0"
     showgrid="false"
     inkscape:document-rotation="0"
     inkscape:current-layer="layer1"
     inkscape:document-units="mm"
     inkscape:cy="127.73081"
     inkscape:cx="281.20579"
     inkscape:zoom="3.959798"
     inkscape:pageshadow="2"
     inkscape:pageopacity="0.0"
     borderopacity="1.0"
     bordercolor="#666666"
     pagecolor="#ffffff"
     id="base" />
  <metadata
     id="metadata850">
    <rdf:RDF>
      <cc:Work
         rdf:about="">
        <dc:format>image/svg+xml</dc:format>
        <dc:type
           rdf:resource="http://purl.org/dc/dcmitype/StillImage" />
        <dc:title></dc:title>
      </cc:Work>
    </rdf:RDF>
  </metadata>
  <g
     transform="translate(-36.798243,-120.07547)"
     id="layer1"
     inkscape:groupmode="layer"
     inkscape:label="Layer 1">
    <path
       d="m 125.73184,130.99821 c -0.006,-2e-5 -0.0114,3.4e-4 -0.0173,0.001 -0.0923,0.001 -0.13719,0.0933 -0.18152,0.15971 -1.06015,1.69115 -2.12055,3.38203 -3.18119,5.07268 -0.41471,0.67141 -0.84972,1.33061 -1.23871,2.01769 -0.63344,1.0675 -1.19046,2.17713 -1.77957,3.26888 -0.0135,0.0274 -0.0274,0.0566 -0.0277,0.0882 -0.005,0.35788 0.0164,0.71649 -0.001,1.07411 -0.25156,2.26237 -0.50655,4.52452 -0.75836,6.78689 1.0822,0.001 2.16462,-10e-4 3.24707,-0.002 1.46187,-0.009 2.92401,-0.001 4.38612,-0.005 0.0973,0.005 0.16238,-0.0764 0.21945,-0.1428 0.19034,-0.23393 0.38608,-0.46342 0.57493,-0.69833 0.0504,-0.0571 0.0742,-0.15162 0.014,-0.21041 -0.0379,-0.0571 -0.1073,-0.0671 -0.17001,-0.0716 -0.83944,-0.0722 -1.67965,-0.13766 -2.5191,-0.21238 0.0184,-0.10483 0.0414,-0.20845 0.0564,-0.31378 1.12727,-0.16437 2.25598,-0.32136 3.38349,-0.48523 0.0938,-0.0112 0.1624,-0.0877 0.19817,-0.17025 0.40956,-0.87938 0.8206,-1.75823 1.23702,-2.63443 0.0211,-0.0488 0.0465,-0.0982 0.0495,-0.15214 -0.0157,-0.0767 -0.0769,-0.14475 -0.1558,-0.15625 -0.0683,-0.007 -0.13324,0.0191 -0.19864,0.0341 -0.7106,0.17759 -1.42195,0.35197 -2.1328,0.52883 -0.74857,0.18199 -1.49446,0.37624 -2.24475,0.55113 -0.0128,-0.0887 -0.0233,-0.17781 -0.0199,-0.26745 0.60821,-0.29983 1.22231,-0.58816 1.83176,-0.88553 0.54673,-0.27115 1.10204,-0.52465 1.64828,-0.79728 0.5727,-0.27802 1.1498,-0.54774 1.71955,-0.83214 0.0526,-0.026 0.0975,-0.0757 0.10093,-0.13666 0.0221,-0.65305 0.0213,-1.30708 0.0367,-1.96061 0.002,-0.0777 -0.0384,-0.15747 -0.11195,-0.18809 -0.0757,-0.0401 -0.1575,0.001 -0.22584,0.036 -0.72285,0.35566 -1.45455,0.69319 -2.17765,1.04813 -0.62217,0.30105 -1.24899,0.59231 -1.86896,0.89826 -0.52003,0.25083 -1.0452,0.49135 -1.56106,0.75075 -0.0162,-0.0649 -0.0414,-0.12689 -0.0791,-0.18224 1.78496,-1.37516 3.566,-2.7557 5.34998,-4.13208 0.0495,-0.0389 0.10459,-0.0759 0.13448,-0.13324 0.0309,-0.0696 0.0125,-0.1482 -0.0154,-0.21532 -0.27704,-0.71869 -0.55848,-1.43541 -0.8365,-2.15361 -0.0289,-0.0767 -0.0953,-0.15261 -0.183,-0.15261 -0.0566,-0.004 -0.10359,0.0323 -0.14474,0.0659 -1.75483,1.4751 -3.51261,2.94652 -5.26745,4.42187 -0.0301,-0.0546 -0.0637,-0.10729 -0.0897,-0.16387 0.0157,-0.048 0.0564,-0.0828 0.0845,-0.12368 1.55765,-2.02674 3.116,-4.05273 4.6734,-6.0797 0.0676,-0.0774 0.10437,-0.19475 0.0405,-0.28587 -0.53939,-0.90485 -1.08196,-1.80799 -1.62282,-2.71211 -0.0388,-0.0659 -0.091,-0.14731 -0.17542,-0.14754 z m -10.17654,2.13821 c -0.2065,-10e-4 -0.41345,0.0111 -0.62013,0.009 -0.35836,0.0226 -0.71795,0.0169 -1.07656,0.0272 -0.25793,0.0235 -0.52025,0.002 -0.77648,0.0289 -0.31354,0.50975 -0.61655,1.02633 -0.92495,1.5395 0.20258,-0.0825 0.40002,-0.17707 0.60112,-0.2633 1.00064,-0.4463 2.00421,-0.88602 3.00336,-1.33526 -0.0687,-0.004 -0.13752,-0.006 -0.20636,-0.006 z m 2.19462,0.009 c -0.0455,0.009 -0.0907,0.0206 -0.13133,0.0434 -0.21065,0.10826 -0.42398,0.21117 -0.63341,0.32163 -0.23295,0.14011 -0.49703,0.21383 -0.73708,0.33998 -0.20478,0.11415 -0.42426,0.19819 -0.63614,0.29764 -0.885,0.39609 -1.77243,0.78678 -2.65426,1.18972 -0.12346,0.0532 -0.24645,0.10826 -0.3628,0.17611 -0.44116,0.20405 -0.88818,0.39586 -1.32494,0.60969 -0.18028,0.0688 -0.35372,0.15407 -0.53352,0.22438 -0.0975,0.0439 -0.12147,0.15947 -0.12074,0.25623 -0.01,0.47912 -0.026,0.958 -0.0394,1.43712 -0.89701,0.61752 -1.79842,1.22892 -2.69617,1.84546 -0.0644,0.0431 -0.0919,0.11929 -0.0995,0.19351 -0.0772,0.56412 -0.15236,1.12874 -0.22879,1.6931 -0.0215,0.10876 0.0551,0.21408 0.15774,0.24544 0.68758,0.2692 1.37445,0.54111 2.05027,0.83873 0.0813,0.0372 0.17145,0.0776 0.26233,0.0484 0.10435,-0.0424 0.16582,-0.14306 0.23685,-0.22487 0.22389,-0.26553 0.44093,-0.53766 0.66898,-0.79951 0.11366,-0.075 0.25083,-0.10705 0.37306,-0.16681 0.29836,-0.10779 0.58323,-0.25328 0.89015,-0.33729 0.98178,-0.30497 1.96135,-0.61726 2.94288,-0.9237 0.0514,-0.0157 0.10751,-0.0338 0.13911,-0.0808 0.2616,-0.36131 0.52492,-0.72113 0.78702,-1.08219 -0.13669,-0.40956 -0.32286,-0.80173 -0.46786,-1.20859 -0.0451,-0.15849 5.7e-4,-0.33708 0.12519,-0.44756 0.36277,0.42132 0.73264,0.83701 1.07558,1.27498 0.0977,0.12125 0.17465,0.27461 0.15823,0.43456 -0.0206,0.12812 -0.059,0.2567 -0.13889,0.36129 -0.25181,0.34514 -0.50238,0.69102 -0.75419,1.03615 -0.0953,0.1313 -0.18594,0.27019 -0.31185,0.37479 -0.0862,0.0742 -0.19939,0.0999 -0.30545,0.132 -0.93987,0.29762 -1.88148,0.59059 -2.82087,0.88919 0.001,0.27066 0.005,0.54157 0.0147,0.812 0.002,0.0554 0.002,0.11638 -0.0387,0.15949 -1.00847,1.3509 -2.01668,2.70252 -3.02515,4.05343 -0.0461,0.0634 -0.0644,0.14061 -0.0774,0.21654 -0.10851,0.60552 -0.22118,1.21057 -0.32871,1.81657 -0.0277,0.12174 0.0967,0.21605 0.20843,0.21163 0.2452,0.004 0.49063,0.002 0.73583,0.005 1.225,0.0218 2.45027,0.0189 3.67528,0.0382 1.29237,0.006 2.58445,0.0282 3.87681,0.0334 0.26186,-2.35741 0.52323,-4.71531 0.78215,-7.07296 0.0238,-0.2697 0.006,-0.54085 0.004,-0.81103 -0.0129,-0.9318 -0.0588,-1.86262 -0.083,-2.79417 -0.006,-0.058 0.002,-0.11979 -0.0215,-0.17417 -0.50068,-0.81789 -1.05329,-1.60221 -1.59831,-2.39071 -0.0953,-0.1286 -0.14624,-0.28661 -0.15407,-0.44558 -0.007,-0.0776 0.0311,-0.14771 0.0605,-0.21655 0.14378,-0.30692 0.28561,-0.61456 0.42548,-0.92319 0.17514,-0.42842 0.38141,-0.84289 0.57321,-1.26396 0.0357,-0.0808 0.0801,-0.15922 0.10043,-0.24593 z m 0.8585,0.5308 c -0.0492,-7e-5 -0.10414,0.006 -0.12343,0.0583 -0.13962,0.26994 -0.2748,0.54233 -0.41149,0.81398 -0.0708,0.1313 -0.10535,0.27802 -0.17467,0.41005 -0.13913,0.28464 -0.27653,0.57024 -0.41052,0.85732 0.55114,0.80246 1.10669,1.60201 1.65905,2.40349 0.0573,0.0852 0.11731,0.17831 0.11485,0.28511 0.002,0.35567 0.0149,0.71084 0.0201,1.06626 0.026,0.002 0.0522,0.005 0.0786,0.007 0.30252,-0.56829 0.59522,-1.1427 0.90974,-1.70438 0.0941,-0.21775 0.21235,-0.42325 0.32405,-0.63219 0.0458,-0.074 0.0388,-0.16315 0.0405,-0.24644 -3.9e-4,-0.0409 0.002,-0.085 -0.0226,-0.12027 -0.65867,-1.0675 -1.3279,-2.12863 -1.98364,-3.19809 -0.007,-1.4e-4 -0.0136,-2e-4 -0.0206,-2.7e-4 z m -5.44161,2.85606 c 0.0176,0.001 0.0352,0.003 0.0525,0.009 0.0825,0.0353 0.12245,0.13793 0.0921,0.22147 -0.0877,0.27899 -0.18444,0.55503 -0.27507,0.83305 -0.0255,0.0936 -0.0992,0.16657 -0.18935,0.1994 -0.35297,0.13741 -0.70227,0.28562 -1.05696,0.41863 -0.11611,0.0551 -0.26652,-0.0603 -0.2364,-0.18594 0.0671,-0.29125 0.1372,-0.58176 0.20701,-0.87203 0.0147,-0.0723 0.0666,-0.1352 0.13886,-0.1548 0.37747,-0.12859 0.74493,-0.28289 1.11334,-0.43451 0.0481,-0.0215 0.10122,-0.0364 0.154,-0.0339 z"
       style="fill:#020202;fill-opacity:1;stroke-width:0.0244951"
       id="path4" />
    <g
       transform="matrix(0.0990048,0,0,0.0990048,81.857741,131.56458)"
       id="g2026">
      <path
         fill="#0099b0"
         d="m 152.336,57.604 -16.439,-3.057 c -0.4,-0.075 -0.838,-0.451 -0.973,-0.837 l -5.039,-11.756 c -0.188,-0.363 -0.152,-0.933 0.08,-1.271 l 9.578,-13.96 c 0.229,-0.336 0.184,-0.847 -0.105,-1.136 L 127.475,13.624 c -0.289,-0.289 -0.799,-0.336 -1.135,-0.105 l -14.205,9.748 c -0.336,0.231 -0.912,0.272 -1.277,0.092 L 99.462,18.694 c -0.387,-0.128 -0.764,-0.561 -0.84,-0.962 L 95.457,0.729 C 95.383,0.328 94.988,0 94.58,0 H 77.66 C 77.253,0 76.858,0.328 76.784,0.729 L 73.62,17.732 c -0.076,0.401 -0.452,0.834 -0.84,0.962 l -11.397,4.665 c -0.366,0.18 -0.942,0.139 -1.277,-0.092 L 45.902,13.519 c -0.337,-0.231 -0.848,-0.184 -1.136,0.105 L 32.802,25.587 c -0.288,0.289 -0.336,0.8 -0.105,1.136 l 9.579,13.96 c 0.23,0.338 0.266,0.908 0.079,1.271 l -5.04,11.756 c -0.134,0.386 -0.571,0.762 -0.973,0.837 l -16.438,3.057 c -0.402,0.076 -0.729,0.47 -0.729,0.878 l 10e-4,16.919 c 0,0.408 0.328,0.805 0.729,0.878 l 16.035,2.984 c 0.401,0.073 0.83,0.454 0.952,0.843 l 5.006,12.505 c 0.179,0.367 0.137,0.941 -0.095,1.277 l -9.108,13.273 c -0.23,0.336 -0.183,0.848 0.105,1.137 l 11.965,11.963 c 0.288,0.287 0.799,0.334 1.136,0.105 l 13.038,-8.949 c 0.336,-0.23 0.899,-0.248 1.25,-0.043 l 5.75,3.07 c 0.364,0.186 0.789,0.029 0.945,-0.348 L 78.74,85.449 c 0.157,-0.377 0,-0.858 -0.348,-1.071 l -1.439,-0.881 c -0.266,-0.162 -0.627,-0.441 -0.91,-0.697 -5.191,-3.324 -8.635,-9.139 -8.635,-15.761 0,-10.334 8.378,-18.711 18.711,-18.711 10.333,0 18.71,8.377 18.71,18.711 0,6.622 -3.443,12.437 -8.635,15.761 -0.281,0.256 -0.643,0.535 -0.908,0.697 l -1.439,0.881 c -0.346,0.213 -0.504,0.694 -0.348,1.071 l 11.855,28.648 c 0.156,0.377 0.58,0.533 0.945,0.348 l 5.75,-3.07 c 0.352,-0.205 0.914,-0.188 1.25,0.043 l 13.039,8.949 c 0.336,0.229 0.848,0.182 1.135,-0.105 l 11.965,-11.963 c 0.289,-0.289 0.336,-0.801 0.105,-1.137 l -9.109,-13.273 c -0.23,-0.336 -0.273,-0.91 -0.094,-1.277 l 5.006,-12.505 c 0.123,-0.389 0.549,-0.77 0.951,-0.843 l 16.035,-2.984 c 0.4,-0.073 0.729,-0.47 0.729,-0.878 l 0.002,-16.919 c 0.001,-0.409 -0.327,-0.803 -0.727,-0.879"
         id="path1965" />
      <path
         fill-rule="evenodd"
         fill="#0099b0"
         d="m 45.597,180.781 h 3.613 v -12.254 c 0,-4.426 -3.046,-5.914 -7.473,-5.914 -2.692,0 -4.675,0.707 -6.056,2.621 l 2.833,2.16 c 0.637,-1.027 1.523,-1.383 3.4,-1.383 2.585,0 3.683,0.604 3.683,2.303 v 1.877 h -4.994 c -3.86,0 -5.843,2.445 -5.843,5.313 0,3.117 2.337,5.49 6.339,5.49 2.444,0 3.684,-0.566 4.427,-1.807 h 0.071 z m 0,-6.305 c 0,2.799 -1.027,3.117 -4.037,3.117 -2.444,0 -3.401,-1.063 -3.401,-2.266 0,-1.311 0.992,-2.162 3.118,-2.162 h 4.32 z"
         id="path1967" />
      <path
         fill-rule="evenodd"
         fill="#0099b0"
         d="m 53.178,180.781 h 3.612 v -10.803 c 0,-2.619 1.736,-3.754 3.507,-3.754 0.921,0 1.523,0.248 2.373,0.887 l 2.62,-3.117 c -1.098,-0.85 -2.301,-1.381 -3.754,-1.381 -1.912,0 -3.542,0.709 -4.675,2.125 H 56.79 v -1.912 h -3.612 z"
         id="path1969" />
      <path
         fill-rule="evenodd"
         fill="#0099b0"
         d="m 76.095,180.781 h 3.612 v -25.217 h -3.612 v 9.174 c -1.346,-1.275 -2.798,-2.125 -4.64,-2.125 -2.196,0 -3.789,0.99 -4.816,2.338 -0.992,1.273 -1.275,2.441 -1.275,6.836 0,4.426 0.283,5.594 1.275,6.869 1.027,1.346 2.62,2.338 4.816,2.338 1.842,0 3.507,-0.852 4.64,-2.09 z m -3.542,-14.557 c 3.365,0 3.542,2.977 3.542,5.563 0,2.621 -0.177,5.594 -3.542,5.594 -3.4,0 -3.577,-2.797 -3.577,-5.594 0,-2.764 0.177,-5.563 3.577,-5.563"
         id="path1971" />
      <path
         d="m 95.664,162.826 h -2.621 l -4.072,12.572 H 88.9 L 85.464,162.826 H 81.64 l 5.737,17.955 h 3.187 l 3.754,-12.573 h 0.071 l 3.754,12.573 h 3.189 l 5.736,-17.955 h -3.826 l -3.433,12.572 h -0.073 z"
         style="fill:#0099b0;fill-rule:evenodd"
         id="polygon1973" />
      <path
         fill-rule="evenodd"
         fill="#0099b0"
         d="m 118.186,180.781 h 3.613 v -12.254 c 0,-4.426 -3.047,-5.914 -7.473,-5.914 -2.691,0 -4.676,0.707 -6.057,2.621 l 2.834,2.16 c 0.637,-1.027 1.521,-1.383 3.398,-1.383 2.586,0 3.684,0.604 3.684,2.303 v 1.877 h -4.994 c -3.859,0 -5.844,2.445 -5.844,5.313 0,3.117 2.338,5.49 6.34,5.49 2.443,0 3.684,-0.566 4.428,-1.807 h 0.07 v 1.594 z m 0,-6.305 c 0,2.799 -1.027,3.117 -4.037,3.117 -2.443,0 -3.4,-1.063 -3.4,-2.266 0,-1.311 0.992,-2.162 3.117,-2.162 h 4.32 z"
         id="path1975" />
      <path
         fill-rule="evenodd"
         fill="#0099b0"
         d="m 125.768,180.781 h 3.611 v -10.803 c 0,-2.619 1.734,-3.754 3.506,-3.754 0.922,0 1.523,0.248 2.373,0.887 l 2.621,-3.117 c -1.098,-0.85 -2.303,-1.381 -3.754,-1.381 -1.912,0 -3.541,0.709 -4.674,2.125 h -0.072 v -1.912 h -3.611 z"
         id="path1977" />
      <path
         fill-rule="evenodd"
         fill="#0099b0"
         d="m 152.748,173.167 v -2.977 c 0,-4.639 -3.434,-7.578 -7.4,-7.578 -3.471,0 -7.402,2.266 -7.402,9.242 0,7.367 4.285,9.139 7.969,9.139 2.408,0 4.709,-0.85 6.48,-2.904 l -2.621,-2.232 c -1.063,1.1 -2.551,1.736 -3.93,1.736 -2.48,0 -4.285,-1.488 -4.285,-4.426 z m -11.189,-2.976 c 0.07,-2.727 1.664,-4.18 3.789,-4.18 2.125,0 3.684,1.453 3.789,4.18 z"
         id="path1979" />
      <path
         fill-rule="evenodd"
         fill="#0099b0"
         d="m 0,143.425 c 0,3.895 0.566,5.383 1.947,6.906 0.992,1.098 2.657,2.301 5.455,2.301 2.797,0 4.462,-1.203 5.454,-2.301 1.381,-1.523 1.948,-3.012 1.948,-6.906 0,-3.861 -0.567,-5.348 -1.948,-6.871 -0.992,-1.098 -2.657,-2.303 -5.454,-2.303 -2.798,0 -4.463,1.205 -5.455,2.303 C 0.566,138.078 0,139.564 0,143.425 m 11.191,0.035 c 0,2.586 -0.212,3.293 -0.885,4.25 -0.532,0.744 -1.665,1.311 -2.904,1.311 -1.24,0 -2.373,-0.566 -2.904,-1.311 -0.673,-0.957 -0.886,-1.664 -0.886,-4.285 0,-2.586 0.213,-3.295 0.886,-4.25 0.531,-0.744 1.664,-1.311 2.904,-1.311 1.239,0 2.372,0.566 2.904,1.311 0.673,0.955 0.885,1.664 0.885,4.285"
         id="path1981" />
      <path
         fill-rule="evenodd"
         fill="#0099b0"
         d="m 49.469,144.806 v -2.975 c 0,-4.641 -3.435,-7.58 -7.401,-7.58 -3.472,0 -7.402,2.268 -7.402,9.244 0,7.365 4.285,9.137 7.968,9.137 2.409,0 4.71,-0.85 6.481,-2.904 l -2.621,-2.23 c -1.062,1.098 -2.549,1.736 -3.93,1.736 -2.48,0 -4.286,-1.488 -4.286,-4.428 z m -11.191,-2.974 c 0.071,-2.729 1.665,-4.18 3.79,-4.18 2.125,0 3.683,1.451 3.789,4.18 z"
         id="path1983" />
      <path
         fill-rule="evenodd"
         fill="#0099b0"
         d="m 52.552,152.419 h 3.612 v -10.693 c 0,-2.445 1.523,-3.861 3.577,-3.861 2.019,0 3.542,1.416 3.542,3.861 v 10.693 h 3.612 v -11.934 c 0,-4.074 -3.187,-6.234 -5.985,-6.234 -1.912,0 -3.542,0.709 -4.674,2.125 h -0.072 v -1.912 h -3.612 z"
         id="path1985" />
      <path
         fill-rule="evenodd"
         fill="#0099b0"
         d="m 76.662,149.41 c 2.302,2.16 4.994,3.223 7.898,3.223 4.179,0 7.437,-2.018 7.437,-5.525 0,-2.867 -1.486,-5.135 -5.206,-5.383 l -2.975,-0.211 c -1.806,-0.143 -2.372,-0.922 -2.372,-1.701 0,-1.238 0.779,-2.16 3.08,-2.16 1.949,0 3.402,0.674 4.818,1.664 l 2.23,-2.619 c -1.771,-1.488 -3.895,-2.445 -7.049,-2.445 -3.789,0 -6.693,1.877 -6.693,5.525 0,3.08 2.196,4.852 5.17,5.1 l 3.188,0.283 c 1.241,0.105 2.196,0.496 2.196,1.771 0,1.523 -1.489,2.301 -3.542,2.301 -2.408,0 -4.108,-0.777 -5.666,-2.301 z"
         id="path1987" />
      <path
         fill-rule="evenodd"
         fill="#0099b0"
         d="m 94.051,143.425 c 0,3.895 0.568,5.383 1.949,6.906 0.992,1.098 2.656,2.301 5.453,2.301 2.799,0 4.463,-1.203 5.455,-2.301 1.381,-1.523 1.947,-3.012 1.947,-6.906 0,-3.861 -0.566,-5.348 -1.947,-6.871 -0.992,-1.098 -2.656,-2.303 -5.455,-2.303 -2.797,0 -4.461,1.205 -5.453,2.303 -1.381,1.524 -1.949,3.01 -1.949,6.871 m 11.191,0.035 c 0,2.586 -0.211,3.293 -0.885,4.25 -0.531,0.744 -1.664,1.311 -2.904,1.311 -1.238,0 -2.373,-0.566 -2.902,-1.311 -0.674,-0.957 -0.887,-1.664 -0.887,-4.285 0,-2.586 0.213,-3.295 0.887,-4.25 0.529,-0.744 1.664,-1.311 2.902,-1.311 1.24,0 2.373,0.566 2.904,1.311 0.674,0.955 0.885,1.664 0.885,4.285"
         id="path1989" />
      <path
         fill-rule="evenodd"
         fill="#0099b0"
         d="m 111.939,146.4 c 0,4.072 3.188,6.232 6.021,6.232 1.875,0 3.506,-0.709 4.639,-2.125 h 0.07 v 1.914 h 3.611 v -17.957 h -3.611 v 10.695 c 0,2.443 -1.523,3.861 -3.543,3.861 -2.053,0 -3.576,-1.418 -3.576,-3.861 v -10.695 h -3.611 z"
         id="path1991" />
      <path
         fill-rule="evenodd"
         fill="#0099b0"
         d="m 130.242,152.419 h 3.613 v -10.801 c 0,-2.621 1.734,-3.754 3.506,-3.754 0.922,0 1.523,0.248 2.373,0.885 l 2.621,-3.117 c -1.1,-0.85 -2.301,-1.381 -3.754,-1.381 -1.912,0 -3.543,0.709 -4.676,2.125 h -0.07 v -1.912 h -3.613 z"
         id="path1993" />
      <path
         fill-rule="evenodd"
         fill="#0099b0"
         d="m 153.859,147.144 c -0.885,1.098 -2.16,1.877 -3.646,1.877 -2.939,0 -4.676,-1.666 -4.676,-5.563 0,-3.93 1.736,-5.594 4.676,-5.594 1.486,0 2.762,0.779 3.646,1.877 l 2.656,-2.373 c -1.557,-1.807 -3.719,-3.117 -6.445,-3.117 -4.143,0 -8.145,2.621 -8.145,9.207 0,6.555 4.002,9.174 8.145,9.174 2.727,0 4.889,-1.311 6.445,-3.115 z"
         id="path1995" />
      <path
         fill-rule="evenodd"
         fill="#0099b0"
         d="m 172.238,144.806 v -2.975 c 0,-4.641 -3.438,-7.58 -7.402,-7.58 -3.473,0 -7.402,2.268 -7.402,9.244 0,7.365 4.285,9.137 7.969,9.137 2.408,0 4.711,-0.85 6.48,-2.904 l -2.621,-2.23 c -1.063,1.098 -2.549,1.736 -3.93,1.736 -2.48,0 -4.285,-1.488 -4.285,-4.428 z m -11.191,-2.974 c 0.07,-2.729 1.664,-4.18 3.789,-4.18 2.125,0 3.682,1.451 3.789,4.18 z"
         id="path1997" />
      <path
         fill="#0099b0"
         d="m 25.041,149.021 c 3.4,0 3.577,-2.799 3.577,-5.561 0,-2.799 -0.177,-5.596 -3.577,-5.596 -3.364,0 -3.542,2.975 -3.542,5.596 0,2.586 0.177,5.561 3.542,5.561 m -7.168,31.76 v -46.316 h 3.626 v 1.877 c 1.134,-1.24 2.798,-2.09 4.64,-2.09 2.195,0 3.79,0.992 4.817,2.338 0.991,1.275 1.274,2.443 1.274,6.871 0,4.391 -0.283,5.561 -1.274,6.834 -1.027,1.346 -2.622,2.338 -4.817,2.338 -1.842,0 -3.294,-0.85 -4.64,-2.125 l -0.013,14.23 c 1.204,-1.416 2.833,-2.125 4.745,-2.125 2.798,0 5.985,2.16 5.985,6.232 v 11.936 h -3.612 v -10.695 c 0,-2.445 -1.523,-3.861 -3.542,-3.861 -2.054,0 -3.576,1.416 -3.576,3.861 v 10.695 z"
         id="path1999" />
    </g>
    <g
       style="font-style:normal;font-weight:normal;font-size:3.52778px;line-height:1.25;font-family:sans-serif;fill:#000000;fill-opacity:1;stroke:none;stroke-width:0.264583"
       id="text1699"
       aria-label="www.pegasusprototyping.ca/stattracker">
      <path
         id="path2028"
         style="font-size:3.52778px;stroke-width:0.264583"
         d="m 70.72779,152.50823 h 0.316949 l 0.396186,1.50551 0.394464,-1.50551 h 0.373793 l 0.396186,1.50551 0.394464,-1.50551 h 0.316949 l -0.504707,1.92925 h -0.373793 l -0.415134,-1.5813 -0.416857,1.5813 h -0.373793 z" />
      <path
         id="path2030"
         style="font-size:3.52778px;stroke-width:0.264583"
         d="m 73.614782,152.50823 h 0.316949 l 0.396186,1.50551 0.394464,-1.50551 h 0.373793 l 0.396186,1.50551 0.394464,-1.50551 h 0.316949 l -0.504707,1.92925 h -0.373793 l -0.415134,-1.5813 -0.416857,1.5813 h -0.373793 z" />
      <path
         id="path2032"
         style="font-size:3.52778px;stroke-width:0.264583"
         d="m 76.501774,152.50823 h 0.316949 l 0.396186,1.50551 0.394464,-1.50551 h 0.373793 l 0.396186,1.50551 0.394464,-1.50551 h 0.316949 l -0.504707,1.92925 h -0.373793 l -0.415134,-1.5813 -0.416857,1.5813 h -0.373793 z" />
      <path
         id="path2034"
         style="font-size:3.52778px;stroke-width:0.264583"
         d="m 79.294026,153.99996 h 0.363458 v 0.43752 h -0.363458 z" />
      <path
         id="path2036"
         style="font-size:3.52778px;stroke-width:0.264583"
         d="m 80.678955,154.1481 v 1.02319 h -0.318672 v -2.66306 h 0.318672 v 0.29283 q 0.09991,-0.17225 0.251492,-0.25493 0.153307,-0.0844 0.36518,-0.0844 0.3514,0 0.570164,0.27905 0.220486,0.27906 0.220486,0.73381 0,0.45475 -0.220486,0.73381 -0.218764,0.27905 -0.570164,0.27905 -0.211873,0 -0.36518,-0.0827 -0.151584,-0.0844 -0.251492,-0.25666 z m 1.078316,-0.67352 q 0,-0.34968 -0.144695,-0.54777 -0.142971,-0.19982 -0.394463,-0.19982 -0.251492,0 -0.396186,0.19982 -0.142972,0.19809 -0.142972,0.54777 0,0.34968 0.142972,0.54949 0.144694,0.1981 0.396186,0.1981 0.251492,0 0.394463,-0.1981 0.144695,-0.19981 0.144695,-0.54949 z" />
      <path
         id="path2038"
         style="font-size:3.52778px;stroke-width:0.264583"
         d="m 84.261857,153.39362 v 0.15503 h -1.457276 q 0.02067,0.32728 0.19637,0.49954 0.177423,0.17053 0.492649,0.17053 0.182591,0 0.353123,-0.0448 0.172255,-0.0448 0.341065,-0.13435 v 0.29972 q -0.170533,0.0724 -0.349678,0.11024 -0.179145,0.0379 -0.363458,0.0379 -0.461643,0 -0.732083,-0.26872 -0.268718,-0.26872 -0.268718,-0.72691 0,-0.47371 0.254938,-0.75104 0.256659,-0.27905 0.690742,-0.27905 0.389296,0 0.61495,0.25149 0.227376,0.24977 0.227376,0.68041 z m -0.316949,-0.093 q -0.0034,-0.2601 -0.146416,-0.41513 -0.14125,-0.15503 -0.375516,-0.15503 -0.265273,0 -0.42547,0.14986 -0.158474,0.14986 -0.18259,0.42203 z" />
      <path
         id="path2040"
         style="font-size:3.52778px;stroke-width:0.264583"
         d="m 86.051585,153.45046 q 0,-0.34451 -0.142972,-0.53399 -0.141249,-0.18948 -0.397908,-0.18948 -0.254938,0 -0.397909,0.18948 -0.141249,0.18948 -0.141249,0.53399 0,0.34279 0.141249,0.53227 0.142971,0.18948 0.397909,0.18948 0.256659,0 0.397908,-0.18948 0.142972,-0.18948 0.142972,-0.53227 z m 0.316949,0.74759 q 0,0.49265 -0.218764,0.73208 -0.218763,0.24116 -0.670071,0.24116 -0.167087,0 -0.315227,-0.0258 -0.148139,-0.0241 -0.287665,-0.0758 v -0.30834 q 0.139526,0.0758 0.275607,0.11197 0.136082,0.0362 0.277331,0.0362 0.311781,0 0.466811,-0.16364 0.155029,-0.16192 0.155029,-0.49093 v -0.15675 q -0.09819,0.17053 -0.251492,0.25494 -0.153307,0.0844 -0.366903,0.0844 -0.354845,0 -0.571886,-0.27044 -0.217041,-0.27044 -0.217041,-0.71658 0,-0.44786 0.217041,-0.7183 0.217041,-0.27044 0.571886,-0.27044 0.213596,0 0.366903,0.0844 0.153307,0.0844 0.251492,0.25493 v -0.29283 h 0.316949 z" />
      <path
         id="path2042"
         style="font-size:3.52778px;stroke-width:0.264583"
         d="m 87.898158,153.46769 q -0.384128,0 -0.532268,0.0879 -0.148139,0.0879 -0.148139,0.29972 0,0.16881 0.110243,0.26872 0.111966,0.0982 0.303169,0.0982 0.26355,0 0.422024,-0.18604 0.160197,-0.18776 0.160197,-0.49782 v -0.0706 z m 0.632175,-0.13091 v 1.1007 h -0.316949 v -0.29283 q -0.10852,0.1757 -0.27044,0.26011 -0.161919,0.0827 -0.396186,0.0827 -0.296278,0 -0.471978,-0.16537 -0.173978,-0.16708 -0.173978,-0.44614 0,-0.32556 0.217041,-0.49092 0.218764,-0.16537 0.651124,-0.16537 h 0.444417 v -0.031 q 0,-0.21877 -0.144694,-0.33762 -0.142971,-0.12058 -0.403076,-0.12058 -0.165365,0 -0.322117,0.0396 -0.156752,0.0396 -0.301446,0.11885 v -0.29283 q 0.173978,-0.0672 0.33762,-0.0999 0.163642,-0.0344 0.318671,-0.0344 0.41858,0 0.625285,0.21704 0.206706,0.21704 0.206706,0.65802 z" />
      <path
         id="path2044"
         style="font-size:3.52778px;stroke-width:0.264583"
         d="m 90.414801,152.56507 v 0.29973 q -0.134359,-0.0689 -0.279053,-0.10336 -0.144694,-0.0344 -0.299723,-0.0344 -0.235989,0 -0.354845,0.0724 -0.117134,0.0724 -0.117134,0.21704 0,0.11025 0.08441,0.17398 0.0844,0.062 0.339342,0.11886 l 0.108521,0.0241 q 0.33762,0.0724 0.478869,0.20498 0.142971,0.13092 0.142971,0.36691 0,0.26871 -0.213596,0.42547 -0.211873,0.15675 -0.583944,0.15675 -0.155029,0 -0.323839,-0.031 -0.167087,-0.0293 -0.353123,-0.0896 v -0.32728 q 0.1757,0.0913 0.346233,0.1378 0.170532,0.0448 0.337619,0.0448 0.223932,0 0.34451,-0.0758 0.120578,-0.0775 0.120578,-0.21704 0,-0.12919 -0.08785,-0.19809 -0.08613,-0.0689 -0.380683,-0.13264 l -0.110243,-0.0258 q -0.294556,-0.062 -0.42547,-0.18949 -0.130913,-0.12919 -0.130913,-0.35312 0,-0.27216 0.192925,-0.4203 0.192926,-0.14814 0.547771,-0.14814 0.1757,0 0.330729,0.0258 0.15503,0.0258 0.285943,0.0775 z" />
      <path
         id="path2046"
         style="font-size:3.52778px;stroke-width:0.264583"
         d="m 90.991855,153.67612 v -1.16789 h 0.316949 v 1.15583 q 0,0.27389 0.106798,0.41169 0.106798,0.13608 0.320394,0.13608 0.256659,0 0.404799,-0.16364 0.149861,-0.16364 0.149861,-0.44614 v -1.09382 h 0.316949 v 1.92925 h -0.316949 v -0.29627 q -0.11541,0.1757 -0.268717,0.26182 -0.151585,0.0844 -0.353123,0.0844 -0.332452,0 -0.504707,-0.20671 -0.172254,-0.2067 -0.172254,-0.60461 z m 0.79754,-1.2144 z" />
      <path
         id="path2048"
         style="font-size:3.52778px;stroke-width:0.264583"
         d="m 94.493798,152.56507 v 0.29973 q -0.134359,-0.0689 -0.279053,-0.10336 -0.144694,-0.0344 -0.299724,-0.0344 -0.235989,0 -0.354845,0.0724 -0.117133,0.0724 -0.117133,0.21704 0,0.11025 0.08441,0.17398 0.0844,0.062 0.339342,0.11886 l 0.108521,0.0241 q 0.337619,0.0724 0.478868,0.20498 0.142972,0.13092 0.142972,0.36691 0,0.26871 -0.213596,0.42547 -0.211874,0.15675 -0.583944,0.15675 -0.15503,0 -0.323839,-0.031 -0.167088,-0.0293 -0.353123,-0.0896 v -0.32728 q 0.1757,0.0913 0.346232,0.1378 0.170533,0.0448 0.33762,0.0448 0.223931,0 0.34451,-0.0758 0.120578,-0.0775 0.120578,-0.21704 0,-0.12919 -0.08785,-0.19809 -0.08613,-0.0689 -0.380683,-0.13264 l -0.110243,-0.0258 q -0.294556,-0.062 -0.42547,-0.18949 -0.130914,-0.12919 -0.130914,-0.35312 0,-0.27216 0.192926,-0.4203 0.192925,-0.14814 0.54777,-0.14814 0.1757,0 0.33073,0.0258 0.155029,0.0258 0.285943,0.0775 z" />
      <path
         id="path2050"
         style="font-size:3.52778px;stroke-width:0.264583"
         d="m 95.410193,154.1481 v 1.02319 h -0.318671 v -2.66306 h 0.318671 v 0.29283 q 0.09991,-0.17225 0.251492,-0.25493 0.153307,-0.0844 0.365181,-0.0844 0.3514,0 0.570163,0.27905 0.220487,0.27906 0.220487,0.73381 0,0.45475 -0.220487,0.73381 -0.218763,0.27905 -0.570163,0.27905 -0.211874,0 -0.365181,-0.0827 -0.151584,-0.0844 -0.251492,-0.25666 z m 1.078316,-0.67352 q 0,-0.34968 -0.144694,-0.54777 -0.142972,-0.19982 -0.394464,-0.19982 -0.251492,0 -0.396186,0.19982 -0.142972,0.19809 -0.142972,0.54777 0,0.34968 0.142972,0.54949 0.144694,0.1981 0.396186,0.1981 0.251492,0 0.394464,-0.1981 0.144694,-0.19981 0.144694,-0.54949 z" />
      <path
         id="path2052"
         style="font-size:3.52778px;stroke-width:0.264583"
         d="m 98.460827,152.80451 q -0.0534,-0.031 -0.117133,-0.0448 -0.06201,-0.0155 -0.137804,-0.0155 -0.268718,0 -0.413412,0.1757 -0.142972,0.17398 -0.142972,0.50126 v 1.0163 h -0.318671 v -1.92925 h 0.318671 v 0.29972 q 0.09991,-0.1757 0.260105,-0.2601 0.160197,-0.0861 0.389296,-0.0861 0.03273,0 0.07235,0.005 0.03962,0.003 0.08785,0.0121 z" />
      <path
         id="path2054"
         style="font-size:3.52778px;stroke-width:0.264583"
         d="m 99.468519,152.73044 q -0.254937,0 -0.403076,0.19981 -0.148139,0.1981 -0.148139,0.54433 0,0.34623 0.146416,0.54605 0.148139,0.19809 0.404799,0.19809 0.253215,0 0.401354,-0.19981 0.148137,-0.19982 0.148137,-0.54433 0,-0.34279 -0.148137,-0.5426 -0.148139,-0.20154 -0.401354,-0.20154 z m 0,-0.26872 q 0.413412,0 0.649401,0.26872 0.23599,0.26872 0.23599,0.74414 0,0.4737 -0.23599,0.74414 -0.235989,0.26872 -0.649401,0.26872 -0.415134,0 -0.651123,-0.26872 -0.234267,-0.27044 -0.234267,-0.74414 0,-0.47542 0.234267,-0.74414 0.235989,-0.26872 0.651123,-0.26872 z" />
      <path
         id="path2056"
         style="font-size:3.52778px;stroke-width:0.264583"
         d="m 101.19107,151.96046 v 0.54777 h 0.65284 v 0.24632 h -0.65284 v 1.04731 q 0,0.23599 0.0637,0.30317 0.0655,0.0672 0.26355,0.0672 h 0.32556 v 0.26527 h -0.32556 q -0.3669,0 -0.50643,-0.13608 -0.13953,-0.1378 -0.13953,-0.49954 v -1.04731 h -0.23254 v -0.24632 h 0.23254 v -0.54777 z" />
      <path
         id="path2058"
         style="font-size:3.52778px;stroke-width:0.264583"
         d="m 103.01008,152.73044 q -0.25494,0 -0.40308,0.19981 -0.14814,0.1981 -0.14814,0.54433 0,0.34623 0.14642,0.54605 0.14814,0.19809 0.4048,0.19809 0.25321,0 0.40135,-0.19981 0.14814,-0.19982 0.14814,-0.54433 0,-0.34279 -0.14814,-0.5426 -0.14814,-0.20154 -0.40135,-0.20154 z m 0,-0.26872 q 0.41341,0 0.6494,0.26872 0.23599,0.26872 0.23599,0.74414 0,0.4737 -0.23599,0.74414 -0.23599,0.26872 -0.6494,0.26872 -0.41514,0 -0.65112,-0.26872 -0.23427,-0.27044 -0.23427,-0.74414 0,-0.47542 0.23427,-0.74414 0.23598,-0.26872 0.65112,-0.26872 z" />
      <path
         id="path2060"
         style="font-size:3.52778px;stroke-width:0.264583"
         d="m 104.73263,151.96046 v 0.54777 h 0.65285 v 0.24632 h -0.65285 v 1.04731 q 0,0.23599 0.0637,0.30317 0.0655,0.0672 0.26355,0.0672 h 0.32557 v 0.26527 h -0.32557 q -0.3669,0 -0.50643,-0.13608 -0.13952,-0.1378 -0.13952,-0.49954 v -1.04731 h -0.23255 v -0.24632 h 0.23255 v -0.54777 z" />
      <path
         id="path2062"
         style="font-size:3.52778px;stroke-width:0.264583"
         d="m 106.60676,154.61663 q -0.13436,0.34451 -0.26183,0.44959 -0.12747,0.10507 -0.34106,0.10507 h -0.25322 v -0.26527 h 0.18604 q 0.13091,0 0.20326,-0.062 0.0724,-0.062 0.1602,-0.29284 l 0.0568,-0.14469 -0.78031,-1.89825 h 0.33589 l 0.60289,1.50895 0.6029,-1.50895 h 0.33589 z" />
      <path
         id="path2064"
         style="font-size:3.52778px;stroke-width:0.264583"
         d="m 108.1984,154.1481 v 1.02319 h -0.31868 v -2.66306 h 0.31868 v 0.29283 q 0.0999,-0.17225 0.25149,-0.25493 0.1533,-0.0844 0.36518,-0.0844 0.3514,0 0.57016,0.27905 0.22049,0.27906 0.22049,0.73381 0,0.45475 -0.22049,0.73381 -0.21876,0.27905 -0.57016,0.27905 -0.21188,0 -0.36518,-0.0827 -0.15159,-0.0844 -0.25149,-0.25666 z m 1.07831,-0.67352 q 0,-0.34968 -0.14469,-0.54777 -0.14297,-0.19982 -0.39447,-0.19982 -0.25149,0 -0.39618,0.19982 -0.14297,0.19809 -0.14297,0.54777 0,0.34968 0.14297,0.54949 0.14469,0.1981 0.39618,0.1981 0.2515,0 0.39447,-0.1981 0.14469,-0.19981 0.14469,-0.54949 z" />
      <path
         id="path2066"
         style="font-size:3.52778px;stroke-width:0.264583"
         d="m 110.1311,152.50823 h 0.31695 v 1.92925 h -0.31695 z m 0,-0.75103 h 0.31695 v 0.40135 h -0.31695 z" />
      <path
         id="path2068"
         style="font-size:3.52778px;stroke-width:0.264583"
         d="m 112.7132,153.27304 v 1.16444 h -0.31695 v -1.1541 q 0,-0.27389 -0.1068,-0.40997 -0.1068,-0.13608 -0.32039,-0.13608 -0.25666,0 -0.4048,0.16364 -0.14814,0.16364 -0.14814,0.44614 v 1.09037 h -0.31867 v -1.92925 h 0.31867 v 0.29972 q 0.11369,-0.17397 0.26699,-0.2601 0.15503,-0.0861 0.35657,-0.0861 0.33245,0 0.50299,0.20671 0.17053,0.20498 0.17053,0.60461 z" />
      <path
         id="path2070"
         style="font-size:3.52778px;stroke-width:0.264583"
         d="m 114.61834,153.45046 q 0,-0.34451 -0.14298,-0.53399 -0.14125,-0.18948 -0.3979,-0.18948 -0.25494,0 -0.39791,0.18948 -0.14125,0.18948 -0.14125,0.53399 0,0.34279 0.14125,0.53227 0.14297,0.18948 0.39791,0.18948 0.25665,0 0.3979,-0.18948 0.14298,-0.18948 0.14298,-0.53227 z m 0.31694,0.74759 q 0,0.49265 -0.21876,0.73208 -0.21876,0.24116 -0.67007,0.24116 -0.16709,0 -0.31523,-0.0258 -0.14814,-0.0241 -0.28766,-0.0758 v -0.30834 q 0.13952,0.0758 0.2756,0.11197 0.13609,0.0362 0.27734,0.0362 0.31178,0 0.46681,-0.16364 0.15503,-0.16192 0.15503,-0.49093 v -0.15675 q -0.0982,0.17053 -0.2515,0.25494 -0.1533,0.0844 -0.3669,0.0844 -0.35484,0 -0.57189,-0.27044 -0.21704,-0.27044 -0.21704,-0.71658 0,-0.44786 0.21704,-0.7183 0.21705,-0.27044 0.57189,-0.27044 0.2136,0 0.3669,0.0844 0.15331,0.0844 0.2515,0.25493 v -0.29283 h 0.31694 z" />
      <path
         id="path2072"
         style="font-size:3.52778px;stroke-width:0.264583"
         d="m 115.63292,153.99996 h 0.36346 v 0.43752 h -0.36346 z" />
      <path
         id="path2074"
         style="font-size:3.52778px;stroke-width:0.264583"
         d="m 118.09961,152.5823 v 0.29628 q -0.13436,-0.0741 -0.27044,-0.11025 -0.13436,-0.0379 -0.27217,-0.0379 -0.30833,0 -0.47886,0.19637 -0.17054,0.19465 -0.17054,0.54777 0,0.35312 0.17054,0.54949 0.17053,0.19465 0.47886,0.19465 0.13781,0 0.27217,-0.0362 0.13608,-0.0379 0.27044,-0.11197 v 0.29284 q -0.13264,0.062 -0.27561,0.093 -0.14125,0.031 -0.30145,0.031 -0.4358,0 -0.69246,-0.27389 -0.25666,-0.27388 -0.25666,-0.73897 0,-0.47198 0.25838,-0.74242 0.26011,-0.27044 0.71141,-0.27044 0.14642,0 0.28595,0.031 0.13952,0.0293 0.27044,0.0896 z" />
      <path
         id="path2076"
         style="font-size:3.52778px;stroke-width:0.264583"
         d="m 119.53104,153.46769 q -0.38412,0 -0.53226,0.0879 -0.14814,0.0879 -0.14814,0.29972 0,0.16881 0.11024,0.26872 0.11197,0.0982 0.30317,0.0982 0.26355,0 0.42202,-0.18604 0.1602,-0.18776 0.1602,-0.49782 v -0.0706 z m 0.63218,-0.13091 v 1.1007 h -0.31695 v -0.29283 q -0.10852,0.1757 -0.27044,0.26011 -0.16192,0.0827 -0.39619,0.0827 -0.29627,0 -0.47197,-0.16537 -0.17398,-0.16708 -0.17398,-0.44614 0,-0.32556 0.21704,-0.49092 0.21876,-0.16537 0.65112,-0.16537 h 0.44442 v -0.031 q 0,-0.21877 -0.14469,-0.33762 -0.14297,-0.12058 -0.40308,-0.12058 -0.16536,0 -0.32212,0.0396 -0.15675,0.0396 -0.30144,0.11885 v -0.29283 q 0.17398,-0.0672 0.33762,-0.0999 0.16364,-0.0344 0.31867,-0.0344 0.41858,0 0.62528,0.21704 0.20671,0.21704 0.20671,0.65802 z" />
      <path
         id="path2078"
         style="font-size:3.52778px;stroke-width:0.264583"
         d="m 121.38106,151.86572 h 0.29284 l -0.89573,2.89905 h -0.29283 z" />
      <path
         id="path2080"
         style="font-size:3.52778px;stroke-width:0.264583"
         d="m 123.23969,152.56507 v 0.29973 q -0.13436,-0.0689 -0.27905,-0.10336 -0.14469,-0.0344 -0.29972,-0.0344 -0.23599,0 -0.35485,0.0724 -0.11713,0.0724 -0.11713,0.21704 0,0.11025 0.0844,0.17398 0.0844,0.062 0.33935,0.11886 l 0.10852,0.0241 q 0.33762,0.0724 0.47886,0.20498 0.14298,0.13092 0.14298,0.36691 0,0.26871 -0.2136,0.42547 -0.21187,0.15675 -0.58394,0.15675 -0.15503,0 -0.32384,-0.031 -0.16709,-0.0293 -0.35313,-0.0896 v -0.32728 q 0.1757,0.0913 0.34624,0.1378 0.17053,0.0448 0.33762,0.0448 0.22393,0 0.34451,-0.0758 0.12057,-0.0775 0.12057,-0.21704 0,-0.12919 -0.0879,-0.19809 -0.0861,-0.0689 -0.38068,-0.13264 l -0.11024,-0.0258 q -0.29456,-0.062 -0.42547,-0.18949 -0.13092,-0.12919 -0.13092,-0.35312 0,-0.27216 0.19293,-0.4203 0.19293,-0.14814 0.54777,-0.14814 0.1757,0 0.33073,0.0258 0.15503,0.0258 0.28594,0.0775 z" />
      <path
         id="path2082"
         style="font-size:3.52778px;stroke-width:0.264583"
         d="m 124.16298,151.96046 v 0.54777 h 0.65285 v 0.24632 h -0.65285 v 1.04731 q 0,0.23599 0.0637,0.30317 0.0654,0.0672 0.26355,0.0672 h 0.32556 v 0.26527 h -0.32556 q -0.36691,0 -0.50643,-0.13608 -0.13953,-0.1378 -0.13953,-0.49954 v -1.04731 h -0.23254 v -0.24632 h 0.23254 v -0.54777 z" />
      <path
         id="path2084"
         style="font-size:3.52778px;stroke-width:0.264583"
         d="m 126.11118,153.46769 q -0.38412,0 -0.53226,0.0879 -0.14814,0.0879 -0.14814,0.29972 0,0.16881 0.11024,0.26872 0.11197,0.0982 0.30317,0.0982 0.26355,0 0.42202,-0.18604 0.1602,-0.18776 0.1602,-0.49782 v -0.0706 z m 0.63218,-0.13091 v 1.1007 h -0.31695 v -0.29283 q -0.10852,0.1757 -0.27044,0.26011 -0.16192,0.0827 -0.39619,0.0827 -0.29627,0 -0.47197,-0.16537 -0.17398,-0.16708 -0.17398,-0.44614 0,-0.32556 0.21704,-0.49092 0.21876,-0.16537 0.65112,-0.16537 h 0.44442 v -0.031 q 0,-0.21877 -0.14469,-0.33762 -0.14298,-0.12058 -0.40308,-0.12058 -0.16536,0 -0.32212,0.0396 -0.15675,0.0396 -0.30144,0.11885 v -0.29283 q 0.17397,-0.0672 0.33762,-0.0999 0.16364,-0.0344 0.31867,-0.0344 0.41858,0 0.62528,0.21704 0.20671,0.21704 0.20671,0.65802 z" />
      <path
         id="path2086"
         style="font-size:3.52778px;stroke-width:0.264583"
         d="m 127.71143,151.96046 v 0.54777 h 0.65285 v 0.24632 h -0.65285 v 1.04731 q 0,0.23599 0.0637,0.30317 0.0654,0.0672 0.26355,0.0672 h 0.32556 v 0.26527 h -0.32556 q -0.36691,0 -0.50643,-0.13608 -0.13953,-0.1378 -0.13953,-0.49954 v -1.04731 h -0.23254 v -0.24632 h 0.23254 v -0.54777 z" />
      <path
         id="path2088"
         style="font-size:3.52778px;stroke-width:0.264583"
         d="m 129.09636,151.96046 v 0.54777 h 0.65285 v 0.24632 h -0.65285 v 1.04731 q 0,0.23599 0.0637,0.30317 0.0654,0.0672 0.26355,0.0672 h 0.32556 v 0.26527 h -0.32556 q -0.36691,0 -0.50643,-0.13608 -0.13953,-0.1378 -0.13953,-0.49954 v -1.04731 h -0.23254 v -0.24632 h 0.23254 v -0.54777 z" />
      <path
         id="path2090"
         style="font-size:3.52778px;stroke-width:0.264583"
         d="m 131.28572,152.80451 q -0.0534,-0.031 -0.11714,-0.0448 -0.062,-0.0155 -0.1378,-0.0155 -0.26872,0 -0.41341,0.1757 -0.14297,0.17398 -0.14297,0.50126 v 1.0163 h -0.31867 v -1.92925 h 0.31867 v 0.29972 q 0.0999,-0.1757 0.2601,-0.2601 0.1602,-0.0861 0.3893,-0.0861 0.0327,0 0.0723,0.005 0.0396,0.003 0.0878,0.0121 z" />
      <path
         id="path2092"
         style="font-size:3.52778px;stroke-width:0.264583"
         d="m 132.49839,153.46769 q -0.38412,0 -0.53226,0.0879 -0.14814,0.0879 -0.14814,0.29972 0,0.16881 0.11024,0.26872 0.11197,0.0982 0.30317,0.0982 0.26355,0 0.42202,-0.18604 0.1602,-0.18776 0.1602,-0.49782 v -0.0706 z m 0.63218,-0.13091 v 1.1007 h -0.31695 v -0.29283 q -0.10852,0.1757 -0.27044,0.26011 -0.16192,0.0827 -0.39619,0.0827 -0.29627,0 -0.47197,-0.16537 -0.17398,-0.16708 -0.17398,-0.44614 0,-0.32556 0.21704,-0.49092 0.21876,-0.16537 0.65112,-0.16537 h 0.44442 v -0.031 q 0,-0.21877 -0.14469,-0.33762 -0.14297,-0.12058 -0.40308,-0.12058 -0.16536,0 -0.32212,0.0396 -0.15675,0.0396 -0.30144,0.11885 v -0.29283 q 0.17398,-0.0672 0.33762,-0.0999 0.16364,-0.0344 0.31867,-0.0344 0.41858,0 0.62528,0.21704 0.20671,0.21704 0.20671,0.65802 z" />
      <path
         id="path2094"
         style="font-size:3.52778px;stroke-width:0.264583"
         d="m 135.17351,152.5823 v 0.29628 q -0.13436,-0.0741 -0.27044,-0.11025 -0.13436,-0.0379 -0.27216,-0.0379 -0.30834,0 -0.47887,0.19637 -0.17053,0.19465 -0.17053,0.54777 0,0.35312 0.17053,0.54949 0.17053,0.19465 0.47887,0.19465 0.1378,0 0.27216,-0.0362 0.13608,-0.0379 0.27044,-0.11197 v 0.29284 q -0.13263,0.062 -0.27561,0.093 -0.14124,0.031 -0.30144,0.031 -0.43581,0 -0.69247,-0.27389 -0.25666,-0.27388 -0.25666,-0.73897 0,-0.47198 0.25839,-0.74242 0.2601,-0.27044 0.71141,-0.27044 0.14642,0 0.28594,0.031 0.13953,0.0293 0.27044,0.0896 z" />
      <path
         id="path2096"
         style="font-size:3.52778px;stroke-width:0.264583"
         d="m 135.71612,151.7572 h 0.31867 v 1.58302 l 0.94568,-0.83199 h 0.4048 l -1.0232,0.90262 1.06626,1.02663 h -0.41341 l -0.98013,-0.94223 v 0.94223 h -0.31867 z" />
      <path
         id="path2098"
         style="font-size:3.52778px;stroke-width:0.264583"
         d="m 139.30074,153.39362 v 0.15503 h -1.45728 q 0.0207,0.32728 0.19637,0.49954 0.17743,0.17053 0.49265,0.17053 0.18259,0 0.35312,-0.0448 0.17226,-0.0448 0.34107,-0.13435 v 0.29972 q -0.17053,0.0724 -0.34968,0.11024 -0.17914,0.0379 -0.36346,0.0379 -0.46164,0 -0.73208,-0.26872 -0.26872,-0.26872 -0.26872,-0.72691 0,-0.47371 0.25494,-0.75104 0.25666,-0.27905 0.69074,-0.27905 0.3893,0 0.61495,0.25149 0.22738,0.24977 0.22738,0.68041 z m -0.31695,-0.093 q -0.003,-0.2601 -0.14642,-0.41513 -0.14125,-0.15503 -0.37551,-0.15503 -0.26528,0 -0.42547,0.14986 -0.15848,0.14986 -0.18259,0.42203 z" />
      <path
         id="path2100"
         style="font-size:3.52778px;stroke-width:0.264583"
         d="m 140.93888,152.80451 q -0.0534,-0.031 -0.11713,-0.0448 -0.062,-0.0155 -0.13781,-0.0155 -0.26871,0 -0.41341,0.1757 -0.14297,0.17398 -0.14297,0.50126 v 1.0163 h -0.31867 v -1.92925 h 0.31867 v 0.29972 q 0.0999,-0.1757 0.26011,-0.2601 0.16019,-0.0861 0.38929,-0.0861 0.0327,0 0.0724,0.005 0.0396,0.003 0.0879,0.0121 z" />
    </g>
  </g>
</svg>
