<?xml version="1.0" encoding="UTF-8" standalone="no"?>
<svg
   xmlns:dc="http://purl.org/dc/elements/1.1/"
   xmlns:cc="http://creativecommons.org/ns#"
   xmlns:rdf="http://www.w3.org/1999/02/22-rdf-syntax-ns#"
   xmlns:svg="http://www.w3.org/2000/svg"
   xmlns="http://www.w3.org/2000/svg"
   xmlns:sodipodi="http://sodipodi.sourceforge.net/DTD/sodipodi-0.dtd"
   xmlns:inkscape="http://www.inkscape.org/namespaces/inkscape"
   inkscape:version="1.0 (4035a4fb49, 2020-05-01)"
   sodipodi:docname="HLD-stat-tracker-spacers.svg"
   viewBox="0 0 521.83997 155.28"
   height="41.084499mm"
   width="138.07016mm"
   xml:space="preserve"
   id="svg995"
   version="1.1"><metadata
     id="metadata1001"><rdf:RDF><cc:Work
         rdf:about=""><dc:format>image/svg+xml</dc:format><dc:type
           rdf:resource="http://purl.org/dc/dcmitype/StillImage" /><dc:title></dc:title></cc:Work></rdf:RDF></metadata><defs
     id="defs999"><clipPath
       id="clipPath1021"
       clipPathUnits="userSpaceOnUse"><path
         id="path1019"
         clip-rule="evenodd"
         d="M 302,198 H 9898 V 13002 H 302 Z" /></clipPath><clipPath
       id="clipPath1031"
       clipPathUnits="userSpaceOnUse"><path
         id="path1029"
         clip-rule="evenodd"
         d="M 302,198 H 9898 V 13002 H 302 Z" /></clipPath><clipPath
       id="clipPath1037"
       clipPathUnits="userSpaceOnUse"><path
         id="path1035"
         clip-rule="evenodd"
         d="M 413,4412 H 9786 V 8788 H 413 Z" /></clipPath></defs><sodipodi:namedview
     inkscape:current-layer="g1003"
     inkscape:window-maximized="1"
     inkscape:window-y="-8"
     inkscape:window-x="-8"
     inkscape:cy="88.304694"
     inkscape:cx="234.23751"
     inkscape:zoom="6.4393939"
     units="mm"
     fit-margin-bottom="0"
     fit-margin-right="0"
     fit-margin-left="0"
     fit-margin-top="0"
     showgrid="false"
     id="namedview997"
     inkscape:window-height="1017"
     inkscape:window-width="1920"
     inkscape:pageshadow="2"
     inkscape:pageopacity="0"
     guidetolerance="10"
     gridtolerance="10"
     objecttolerance="10"
     borderopacity="1"
     bordercolor="#666666"
     pagecolor="#ffffff" /><g
     transform="matrix(1.3333333,0,0,-1.3333333,-59.399999,540.59999)"
     inkscape:label="HLD-stat-tracker-spacers"
     inkscape:groupmode="layer"
     id="g1003"><path
       transform="matrix(0.75000002,0,0,-0.75000002,44.55,405.45)"
       d="M 284.83984 43.755859 C 284.5235 43.759219 284.37063 44.075321 284.21875 44.302734 L 284.2168 44.302734 C 280.58497 50.096201 276.95381 55.889854 273.32031 61.681641 C 271.89963 63.981734 270.40873 66.23995 269.07617 68.59375 C 266.90613 72.25075 264.99862 76.050949 262.98047 79.791016 C 262.93434 79.885002 262.88561 79.985483 262.88477 80.09375 C 262.8673 81.31975 262.94126 82.54829 262.88086 83.773438 C 262.01906 91.523797 261.14584 99.273075 260.2832 107.02344 C 263.99055 107.02744 267.69806 107.01842 271.40625 107.01758 C 276.41426 106.98718 281.42277 107.01507 286.43164 107 C 286.76477 107.01845 286.98807 106.73718 287.18359 106.50977 C 287.83562 105.70838 288.50731 104.92192 289.1543 104.11719 C 289.32723 103.92165 289.40761 103.59787 289.20117 103.39648 C 289.07111 103.20091 288.83395 103.16741 288.61914 103.15234 C 285.74338 102.9048 282.86598 102.67976 279.99023 102.42383 C 280.05323 102.06467 280.13044 101.71044 280.18164 101.34961 C 284.04339 100.78654 287.91085 100.24889 291.77344 99.6875 C 292.09484 99.6489 292.33059 99.386316 292.45312 99.103516 C 293.85619 96.090982 295.26291 93.079752 296.68945 90.078125 C 296.76163 89.911138 296.8487 89.743207 296.85938 89.558594 C 296.80566 89.29594 296.59637 89.060951 296.32617 89.021484 C 296.09205 88.998844 295.86857 89.087472 295.64453 89.138672 C 293.21016 89.747045 290.77309 90.345305 288.33789 90.951172 C 285.77346 91.574652 283.21874 92.240697 280.64844 92.839844 C 280.60484 92.536084 280.56808 92.229008 280.58008 91.921875 C 282.66368 90.894768 284.76768 89.907392 286.85547 88.888672 C 288.72846 87.959739 290.63066 87.092176 292.50195 86.158203 C 294.46389 85.205776 296.44072 84.280894 298.39258 83.306641 C 298.57299 83.217694 298.72628 83.046837 298.73828 82.837891 C 298.81375 80.600731 298.81243 78.3619 298.86523 76.123047 C 298.87362 75.857047 298.73417 75.583449 298.48242 75.478516 C 298.22313 75.340876 297.94115 75.482363 297.70703 75.601562 C 295.23071 76.820003 292.72519 77.975486 290.24805 79.191406 C 288.11661 80.222713 285.96958 81.221438 283.8457 82.269531 C 282.0642 83.128825 280.2653 83.953144 278.49805 84.841797 C 278.44267 84.619424 278.35576 84.406437 278.22656 84.216797 C 284.34142 79.505824 290.44319 74.775707 296.55469 70.060547 C 296.72419 69.92712 296.91323 69.801829 297.01562 69.605469 C 297.12143 69.367149 297.05667 69.097121 296.96094 68.867188 C 296.01187 66.405133 295.04813 63.948668 294.0957 61.488281 C 293.99668 61.225628 293.76916 60.966797 293.46875 60.966797 C 293.2749 60.95337 293.11363 61.076473 292.97266 61.191406 C 286.961 66.244739 280.93937 71.285671 274.92773 76.339844 C 274.82452 76.15271 274.71003 75.973137 274.62109 75.779297 C 274.6748 75.614817 274.81362 75.495602 274.91016 75.355469 C 280.24629 68.412376 285.58463 61.471277 290.91992 54.527344 C 291.15159 54.26217 291.27761 53.861001 291.05859 53.548828 C 289.21079 50.449028 287.35284 47.355093 285.5 44.257812 C 285.35819 44.016973 285.1646 43.715593 284.83984 43.755859 z M 249.32812 51.085938 C 248.856 51.096821 248.38413 51.112089 247.91211 51.107422 C 246.68444 51.184622 245.45313 51.165972 244.22461 51.201172 C 243.341 51.281705 242.4422 51.207361 241.56445 51.298828 C 240.49035 53.045095 239.45102 54.816219 238.39453 56.574219 C 239.0885 56.291432 239.76614 55.967262 240.45508 55.671875 C 243.883 54.142955 247.32126 52.636656 250.74414 51.097656 C 250.27338 51.069456 249.80026 51.075053 249.32812 51.085938 z M 257.55469 51.109375 C 257.39861 51.138695 257.24478 51.179813 257.10547 51.257812 C 256.3838 51.62872 255.65301 51.980922 254.93555 52.359375 C 254.13752 52.839375 253.23252 53.091277 252.41016 53.523438 C 251.70862 53.914477 250.95634 54.202275 250.23047 54.542969 C 247.19863 55.899875 244.15764 57.238754 241.13672 58.619141 C 240.71379 58.801234 240.29312 58.990216 239.89453 59.222656 C 238.38322 59.92167 236.85167 60.577974 235.35547 61.310547 C 234.73786 61.546347 234.14328 61.839251 233.52734 62.080078 C 233.19337 62.230291 233.11257 62.625578 233.11523 62.957031 C 233.08081 64.598405 233.02465 66.239499 232.97852 67.880859 C 229.90556 69.996353 226.81765 72.090992 223.74219 74.203125 C 223.52149 74.350818 223.42834 74.610981 223.40234 74.865234 C 223.13801 76.797794 222.88095 78.732616 222.61914 80.666016 C 222.54529 81.038589 222.8066 81.400479 223.1582 81.507812 C 225.5137 82.43004 227.86644 83.361299 230.18164 84.380859 C 230.46024 84.508473 230.7707 84.646742 231.08203 84.546875 C 231.4395 84.401702 231.64922 84.055671 231.89258 83.775391 C 232.65955 82.865764 233.40234 81.934163 234.18359 81.037109 C 234.57295 80.780336 235.04416 80.66959 235.46289 80.464844 C 236.48497 80.095617 237.46028 79.598374 238.51172 79.310547 C 241.87503 78.265814 245.2313 77.196244 248.59375 76.146484 C 248.76996 76.092778 248.96205 76.030247 249.07031 75.869141 C 249.96651 74.631394 250.86773 73.399003 251.76562 72.162109 C 251.29739 70.759056 250.66084 69.415298 250.16406 68.021484 C 250.00966 67.478551 250.16552 66.866735 250.5918 66.488281 C 251.83458 67.931615 253.10254 69.355082 254.27734 70.855469 C 254.61217 71.270855 254.87463 71.79579 254.81836 72.34375 C 254.74787 72.782617 254.61731 73.223725 254.34375 73.582031 C 253.48111 74.764391 252.62241 75.948513 251.75977 77.130859 C 251.43334 77.580646 251.12273 78.057709 250.69141 78.416016 C 250.39602 78.670282 250.00788 78.75732 249.64453 78.867188 C 246.42472 79.886747 243.1986 80.891143 239.98047 81.914062 C 239.98474 82.84133 239.99938 83.768899 240.03125 84.695312 C 240.03717 84.884967 240.03941 85.094507 239.89844 85.242188 C 236.44366 89.870081 232.98992 94.501026 229.53516 99.128906 C 229.37745 99.346253 229.31393 99.609007 229.26953 99.869141 C 228.89778 101.9435 228.51292 104.0177 228.14453 106.09375 C 228.0497 106.5108 228.47671 106.83343 228.85938 106.81836 C 229.69936 106.83116 230.53892 106.82732 231.37891 106.83398 C 235.57548 106.90865 239.77413 106.90053 243.9707 106.9668 C 248.39804 106.98693 252.82267 107.06248 257.25 107.08008 C 258.14705 99.004143 259.0427 90.926383 259.92969 82.849609 C 260.01115 81.925703 259.95136 80.995887 259.94336 80.070312 C 259.89888 76.878206 259.74322 73.691267 259.66016 70.5 C 259.63829 70.30112 259.66727 70.088637 259.58594 69.902344 C 257.87072 67.100437 255.97647 64.414104 254.10938 61.712891 C 253.78294 61.272344 253.60883 60.730147 253.58203 60.185547 C 253.55686 59.919534 253.6884 59.679159 253.78906 59.443359 C 254.28165 58.391919 254.7689 57.33857 255.24805 56.28125 C 255.84803 54.813583 256.55388 53.393665 257.21094 51.951172 C 257.33346 51.674252 257.48509 51.406428 257.55469 51.109375 z M 260.56641 52.927734 C 260.38347 52.924374 260.14773 52.920513 260.07227 53.126953 C 259.59395 54.051686 259.13232 54.985402 258.66406 55.916016 C 258.42156 56.365789 258.30193 56.868006 258.06445 57.320312 C 257.58781 58.295393 257.11722 59.274333 256.6582 60.257812 C 258.54628 63.006867 260.44952 65.744541 262.3418 68.490234 C 262.53816 68.782261 262.74433 69.10093 262.73633 69.466797 C 262.74553 70.685237 262.78709 71.90348 262.80469 73.121094 C 262.89363 73.129494 262.98355 73.136531 263.07422 73.144531 C 264.11057 71.197705 265.11199 69.230801 266.18945 67.306641 C 266.51168 66.560641 266.91813 65.856412 267.30078 65.140625 C 267.45765 64.887198 267.43412 64.582182 267.43945 64.296875 C 267.43772 64.156742 267.44439 64.005566 267.36133 63.884766 C 265.10487 60.227766 262.81281 56.591441 260.56641 52.927734 z M 241.67383 62.720703 C 241.79351 62.70266 241.91446 62.707348 242.0332 62.742188 C 242.31599 62.862987 242.45366 63.213853 242.34961 63.5 C 242.04918 64.455787 241.71674 65.401089 241.40625 66.353516 C 241.31905 66.674076 241.06661 66.924656 240.75781 67.037109 C 239.5486 67.507869 238.35181 68.01505 237.13672 68.470703 C 236.73897 68.659516 236.22491 68.264464 236.32812 67.833984 C 236.55806 66.836238 236.79795 65.84009 237.03711 64.845703 C 237.08751 64.598156 237.26417 64.383526 237.51172 64.316406 C 238.80484 63.875846 240.06409 63.347565 241.32617 62.828125 C 241.4361 62.779058 241.55414 62.738746 241.67383 62.720703 z "
       style="stroke-width:0.0839145;fill-rule:evenodd;fill:#000000;fill-opacity:1"
       id="path1820" /></g></svg>
